{
.appVersion = "1179";
copyright = "Copyright (c) 2010, Sebastian Kosch (sebastian@aldusleaf.org),\012with Reserved Font Name \"Crimson Text\".\012This Font Software is licensed under the SIL Open Font License, Version 1.1.\012This license is available with a FAQ at: http://scripts.sil.org/OFL";
customParameters = (
{
name = vendorID;
value = PfEd;
},
{
name = panose;
value = (
2,
0,
5,
3,
0,
0,
0,
0,
0,
0
);
},
{
name = unicodeRanges;
value = (
0,
1,
2,
3,
5,
6,
7,
31,
33,
37,
38,
46,
47,
60
);
},
{
name = codePageRanges;
value = (
1252,
1250,
1254,
1257
);
},
{
name = glyphOrder;
value = (
.notdef,
.null,
CR,
space,
exclam,
quotedbl,
numbersign,
dollar,
percent,
ampersand,
quotesingle,
parenleft,
parenright,
asterisk,
plus,
comma,
hyphen,
period,
slash,
zero,
one,
two,
three,
four,
five,
six,
seven,
eight,
nine,
colon,
semicolon,
less,
equal,
greater,
question,
at,
A,
B,
C,
D,
E,
F,
G,
H,
I,
J,
K,
L,
M,
N,
O,
P,
Q,
R,
S,
T,
U,
V,
W,
X,
Y,
Z,
bracketleft,
backslash,
bracketright,
asciicircum,
underscore,
grave,
a,
b,
c,
d,
e,
f,
g,
h,
i,
j,
k,
l,
m,
n,
o,
p,
q,
r,
s,
t,
u,
v,
w,
x,
y,
z,
braceleft,
bar,
braceright,
asciitilde,
uni00A0,
exclamdown,
cent,
sterling,
currency,
yen,
brokenbar,
section,
dieresis,
copyright,
ordfeminine,
guillemotleft,
logicalnot,
registered,
macron,
degree,
plusminus,
uni00B2,
uni00B3,
acute,
uni00B5,
paragraph,
periodcentered,
cedilla,
uni00B9,
ordmasculine,
guillemotright,
onequarter,
onehalf,
threequarters,
questiondown,
Agrave,
Aacute,
Acircumflex,
Atilde,
Adieresis,
Aring,
AE,
Ccedilla,
Egrave,
Eacute,
Ecircumflex,
Edieresis,
Igrave,
Iacute,
Icircumflex,
Idieresis,
Eth,
Ntilde,
Ograve,
Oacute,
Ocircumflex,
Otilde,
Odieresis,
multiply,
Oslash,
Ugrave,
Uacute,
Ucircumflex,
Udieresis,
Yacute,
Thorn,
germandbls,
agrave,
aacute,
acircumflex,
atilde,
adieresis,
aring,
ae,
ccedilla,
egrave,
eacute,
ecircumflex,
edieresis,
igrave,
iacute,
icircumflex,
idieresis,
eth,
ntilde,
ograve,
oacute,
ocircumflex,
otilde,
odieresis,
divide,
oslash,

glyphs = (
{
glyphname = .notdef;
layers = (
{
layerId = "02396921-8257-42A3-8ED5-3052446F9CE3";
paths = (
{
closed = 1;
nodes = (
"306 0 LINE",
"306 682 LINE",
"34 682 LINE",
"34 0 LINE"
);
},
{
closed = 1;
nodes = (
"68 648 LINE",
"272 648 LINE",
"272 34 LINE",
"68 34 LINE"
);
}
);
userData = {
assembly = "PUSHB[ ]\011/* 2 values pushed */
1 0 
MDAP[1]\011/* MoveDirectAbsPt */
ALIGNRP[ ]\011/* AlignRelativePt */
PUSHB[ ]\011/* 3 values pushed */
7 4 6 
MIRP[01101]\011/* MoveIndirectRelPt */
SHP[0]\011/* ShiftPointByLastPoint */
PUSHB[ ]\011/* 2 values pushed */
6 5 
MDRP[11100]\011/* MoveDirectRelPt */
ALIGNRP[ ]\011/* AlignRelativePt */
PUSHB[ ]\011/* 3 values pushed */
3 2 6 
MIRP[01101]\011/* MoveIndirectRelPt */
SHP[0]\011/* ShiftPointByLastPoint */
SVTCA[0]\011/* SetFreedomAndProjectionVectorToAxis */
PUSHB[ ]\011/* 2 values pushed */
3 0 
MDAP[1]\011/* MoveDirectAbsPt */
ALIGNRP[ ]\011/* AlignRelativePt */
PUSHB[ ]\011/* 3 values pushed */
5 4 6 
MIRP[01101]\011/* MoveIndirectRelPt */
SHP[0]\011/* ShiftPointByLastPoint */
PUSHB[ ]\011/* 3 values pushed */
7 6 7 
MIRP[11100]\011/* MoveIndirectRelPt */
ALIGNRP[ ]\011/* AlignRelativePt */
PUSHB[ ]\011/* 3 values pushed */
1 2 6 
MIRP[01101]\011/* MoveIndirectRelPt */
SHP[0]\011/* ShiftPointByLastPoint */";
};
width = 374;
}
);
note = .notdef;
},
{
glyphname = exclam;
layers = (
{
layerId = "02396921-8257-42A3-8ED5-3052446F9CE3";
paths = (
{
closed = 1;
nodes = (
"70 16 OFFCURVE",
"95 -14 OFFCURVE",
"114 -14 QCURVE SMOOTH",
"142 -14 OFFCURVE",
"179 27 OFFCURVE",
"179 56 QCURVE SMOOTH",
"179 74 OFFCURVE",
"154 102 OFFCURVE",
"136 102 QCURVE SMOOTH",
"108 102 OFFCURVE",
"70 64 OFFCURVE",
"70 36 QCURVE SMOOTH"
);
},
{
closed = 1;
nodes = (
"220 631 OFFCURVE",
"186 594 OFFCURVE",
"183 577 QCURVE SMOOTH",
"173 510 OFFCURVE",
"147 308 OFFCURVE",
"130 168 OFFCURVE",
"130 166 QCURVE SMOOTH",
"130 148 OFFCURVE",
"136 148 QCURVE SMOOTH",
"141 148 OFFCURVE",
"162 161 OFFCURVE",
"164 170 QCURVE SMOOTH",
"182 241 OFFCURVE",
"240 453 OFFCURVE",
"273 576 OFFCURVE",
"273 588 QCURVE SMOOTH",
"273 605 OFFCURVE",
"257 631 OFFCURVE",
"242 631 QCURVE SMOOTH"
);
}
);
width = 187;
}
);
note = exclam;
unicode = 0021;
},
{
glyphname = quotedbl;
layers = (
{
layerId = "02396921-8257-42A3-8ED5-3052446F9CE3";
paths = (
{
closed = 1;
nodes = (
"88 698 OFFCURVE",
"48 653 OFFCURVE",
"45 636 QCURVE",
"45 623 OFFCURVE",
"49 558 OFFCURVE",
"49 487 OFFCURVE",
"45 447 QCURVE",
"44 441 OFFCURVE",
"54 434 OFFCURVE",
"66 434 OFFCURVE",
"79 442 OFFCURVE",
"81 449 QCURVE SMOOTH",
"89 476 OFFCURVE",
"134 602 OFFCURVE",
"140 633 QCURVE",
"146 677 OFFCURVE",
"135 698 OFFCURVE",
"112 698 QCURVE SMOOTH"
);
},
{
closed = 1;
nodes = (
"238 698 OFFCURVE",
"198 653 OFFCURVE",
"195 636 QCURVE",
"195 623 OFFCURVE",
"199 558 OFFCURVE",
"199 487 OFFCURVE",
"195 447 QCURVE",
"194 441 OFFCURVE",
"204 434 OFFCURVE",
"216 434 OFFCURVE",
"229 442 OFFCURVE",
"231 449 QCURVE SMOOTH",
"239 476 OFFCURVE",
"284 602 OFFCURVE",
"290 633 QCURVE",
"296 677 OFFCURVE",
"285 698 OFFCURVE",
"262 698 QCURVE SMOOTH"
);
}
);
width = 297;
}
);
note = quotedbl;
unicode = 0022;
},
{
glyphname = numbersign;
layers = (
{
layerId = "02396921-8257-42A3-8ED5-3052446F9CE3";
paths = (
{
closed = 1;
nodes = (
"393 524 LINE",
"393 525 OFFCURVE",
"394 526 QCURVE",
"394 532 OFFCURVE",
"372 532 QCURVE SMOOTH",
"342 532 OFFCURVE",
"339 524 QCURVE SMOOTH",
"288 373 LINE",
"201 373 LINE",
"253 524 LINE",
"253 525 OFFCURVE",
"254 526 QCURVE",
"254 532 OFFCURVE",
"232 532 QCURVE SMOOTH",
"202 532 OFFCURVE",
"199 524 QCURVE SMOOTH",
"148 373 LINE",
"71 373 LINE SMOOTH",
"63 373 OFFCURVE",
"46 336 OFFCURVE",
"46 323 QCURVE SMOOTH",
"46 317 OFFCURVE",
"53 317 QCURVE SMOOTH",
"129 317 LINE",
"100 231 LINE",
"23 231 LINE SMOOTH",
"15 231 OFFCURVE",
"-2 194 OFFCURVE",
"-2 181 QCURVE SMOOTH",
"-2 175 OFFCURVE",
"5 175 QCURVE SMOOTH",
"81 175 LINE",
"29 24 LINE",
"29 23 OFFCURVE",
"28 21 QCURVE",
"28 16 OFFCURVE",
"50 16 QCURVE SMOOTH",
"80 16 OFFCURVE",
"83 24 QCURVE SMOOTH",
"134 175 LINE",
"221 175 LINE",
"169 24 LINE",
"169 23 OFFCURVE",
"168 21 QCURVE",
"168 16 OFFCURVE",
"190 16 QCURVE SMOOTH",
"220 16 OFFCURVE",
"223 24 QCURVE SMOOTH",
"274 175 LINE",
"351 175 LINE SMOOTH",
"359 175 OFFCURVE",
"376 212 OFFCURVE",
"376 225 QCURVE SMOOTH",
"376 231 OFFCURVE",
"369 231 QCURVE SMOOTH",
"293 231 LINE",
"322 317 LINE",
"399 317 LINE SMOOTH",
"407 317 OFFCURVE",
"424 355 OFFCURVE",
"424 368 QCURVE SMOOTH",
"424 373 OFFCURVE",
"417 373 QCURVE SMOOTH",
"341 373 LINE"
);
},
{
closed = 1;
nodes = (
"240 231 LINE",
"153 231 LINE",
"182 317 LINE",
"269 317 LINE"
);
}
);
width = 419;
}
);
note = numbersign;
unicode = 0023;
},
{
glyphname = dollar;
layers = (
{
layerId = "02396921-8257-42A3-8ED5-3052446F9CE3";
paths = (
{
closed = 1;
nodes = (
"409 676 LINE",
"410 683 OFFCURVE",
"378 683 QCURVE",
"125 -43 LINE",
"124 -52 OFFCURVE",
"156 -52 QCURVE"
);
},
{
closed = 1;
nodes = (
"280 -8 OFFCURVE",
"413 93 OFFCURVE",
"428 170 QCURVE SMOOTH",
"442 240 OFFCURVE",
"377 299 QCURVE SMOOTH",
"361 313 OFFCURVE",
"286 366 QCURVE SMOOTH",
"235 401 OFFCURVE",
"192 459 OFFCURVE",
"201 505 QCURVE SMOOTH",
"220 602 OFFCURVE",
"321 602 QCURVE SMOOTH",
"371 602 OFFCURVE",
"420 522 OFFCURVE",
"418 487 QCURVE",
"418 478 OFFCURVE",
"440 476 QCURVE",
"446 476 OFFCURVE",
"448 484 QCURVE",
"458 535 OFFCURVE",
"464 621 QCURVE",
"459 622 OFFCURVE",
"408 635 OFFCURVE",
"355 644 OFFCURVE",
"334 644 QCURVE SMOOTH",
"263 644 OFFCURVE",
"138 546 OFFCURVE",
"124 473 QCURVE SMOOTH",
"117 438 OFFCURVE",
"131 381 OFFCURVE",
"179 331 OFFCURVE",
"226 295 OFFCURVE",
"268 269 QCURVE",
"269 268 OFFCURVE",
"290 255 OFFCURVE",
"294 252 OFFCURVE",
"313 239 OFFCURVE",
"319 232 OFFCURVE",
"333 218 OFFCURVE",
"338 207 OFFCURVE",
"346 190 OFFCURVE",
"347 173 OFFCURVE",
"347 152 OFFCURVE",
"345 141 QCURVE SMOOTH",
"335 89 OFFCURVE",
"259 31 OFFCURVE",
"213 31 QCURVE SMOOTH",
"99 31 OFFCURVE",
"92 166 QCURVE",
"87 174 OFFCURVE",
"73 174 QCURVE SMOOTH",
"57 174 OFFCURVE",
"55 166 QCURVE",
"43 80 OFFCURVE",
"52 15 QCURVE",
"167 -8 OFFCURVE",
"203 -8 QCURVE SMOOTH"
);
}
);
width = 430;
}
);
note = dollar;
unicode = 0024;
},
{
glyphname = percent;
layers = (
{
layerId = "02396921-8257-42A3-8ED5-3052446F9CE3";
paths = (
{
closed = 1;
nodes = (
"261 646 OFFCURVE",
"288 583 OFFCURVE",
"288 541 QCURVE SMOOTH",
"288 476 OFFCURVE",
"231 366 OFFCURVE",
"186 366 QCURVE SMOOTH",
"153 366 OFFCURVE",
"121 433 OFFCURVE",
"121 478 QCURVE SMOOTH",
"121 540 OFFCURVE",
"185 646 OFFCURVE",
"230 646 QCURVE SMOOTH"
);
},
{
closed = 1;
nodes = (
"166 673 OFFCURVE",
"58 545 OFFCURVE",
"58 469 QCURVE SMOOTH",
"58 415 OFFCURVE",
"120 338 OFFCURVE",
"174 338 QCURVE SMOOTH",
"245 338 OFFCURVE",
"353 466 OFFCURVE",
"353 541 QCURVE SMOOTH",
"353 596 OFFCURVE",
"295 673 OFFCURVE",
"240 673 QCURVE SMOOTH"
);
},
{
closed = 1;
nodes = (
"626 663 OFFCURVE",
"604 663 QCURVE SMOOTH",
"593 663 OFFCURVE",
"582 652 QCURVE",
"-14 -1 LINE",
"-11 -12 OFFCURVE",
"1 -12 QCURVE SMOOTH",
"23 -12 OFFCURVE",
"35 0 QCURVE",
"631 650 LINE"
);
},
{
closed = 1;
nodes = (
"473 300 OFFCURVE",
"500 237 OFFCURVE",
"500 195 QCURVE SMOOTH",
"500 130 OFFCURVE",
"443 20 OFFCURVE",
"398 20 QCURVE SMOOTH",
"365 20 OFFCURVE",
"333 87 OFFCURVE",
"333 132 QCURVE SMOOTH",
"333 194 OFFCURVE",
"397 300 OFFCURVE",
"442 300 QCURVE SMOOTH"
);
},
{
closed = 1;
nodes = (
"378 327 OFFCURVE",
"270 199 OFFCURVE",
"270 123 QCURVE SMOOTH",
"270 69 OFFCURVE",
"332 -8 OFFCURVE",
"386 -8 QCURVE SMOOTH",
"457 -8 OFFCURVE",
"565 120 OFFCURVE",
"565 195 QCURVE SMOOTH",
"565 250 OFFCURVE",
"507 327 OFFCURVE",
"452 327 QCURVE SMOOTH"
);
}
);
width = 618;
}
);
note = percent;
unicode = 0025;
},
{
glyphname = ampersand;
layers = (
{
layerId = "02396921-8257-42A3-8ED5-3052446F9CE3";
paths = (
{
closed = 1;
nodes = (
"396 305 OFFCURVE",
"438 335 OFFCURVE",
"466 335 QCURVE SMOOTH",
"502 335 OFFCURVE",
"549 276 OFFCURVE",
"549 237 QCURVE SMOOTH",
"549 152 OFFCURVE",
"420 29 OFFCURVE",
"338 29 QCURVE SMOOTH",
"264 29 OFFCURVE",
"164 131 OFFCURVE",
"164 204 QCURVE SMOOTH",
"164 280 OFFCURVE",
"236 341 QCURVE",
"260 320 OFFCURVE",
"298 320 QCURVE SMOOTH",
"323 320 OFFCURVE",
"363 341 OFFCURVE",
"363 360 QCURVE SMOOTH",
"363 380 OFFCURVE",
"316 402 OFFCURVE",
"288 402 QCURVE SMOOTH",
"274 402 OFFCURVE",
"249 395 QCURVE",
"216 424 OFFCURVE",
"216 474 QCURVE SMOOTH",
"216 521 OFFCURVE",
"280 590 OFFCURVE",
"326 590 QCURVE SMOOTH",
"358 590 OFFCURVE",
"404 546 OFFCURVE",
"404 514 QCURVE SMOOTH",
"404 497 OFFCURVE",
"394 470 OFFCURVE",
"394 469 QCURVE SMOOTH",
"394 462 OFFCURVE",
"403 462 QCURVE SMOOTH",
"420 462 OFFCURVE",
"463 514 OFFCURVE",
"463 543 QCURVE SMOOTH",
"463 585 OFFCURVE",
"394 635 OFFCURVE",
"348 635 QCURVE SMOOTH",
"282 635 OFFCURVE",
"166 545 OFFCURVE",
"166 479 QCURVE SMOOTH",
"166 424 OFFCURVE",
"204 381 QCURVE",
"157 363 OFFCURVE",
"78 257 OFFCURVE",
"78 196 QCURVE SMOOTH",
"78 104 OFFCURVE",
"227 -14 OFFCURVE",
"326 -14 QCURVE SMOOTH",
"440 -14 OFFCURVE",
"617 125 OFFCURVE",
"617 224 QCURVE SMOOTH",
"617 299 OFFCURVE",
"562 348 QCURVE",
"582 346 OFFCURVE",
"588 346 QCURVE SMOOTH",
"639 346 OFFCURVE",
"700 400 OFFCURVE",
"700 488 OFFCURVE",
"631 538 OFFCURVE",
"575 538 QCURVE",
"549 518 OFFCURVE",
"549 495 QCURVE SMOOTH",
"549 482 OFFCURVE",
"566 462 OFFCURVE",
"578 462 QCURVE SMOOTH",
"589 462 OFFCURVE",
"620 480 OFFCURVE",
"631 480 QCURVE SMOOTH",
"645 480 OFFCURVE",
"663 459 OFFCURVE",
"663 444 QCURVE SMOOTH",
"663 415 OFFCURVE",
"610 384 OFFCURVE",
"575 384 QCURVE SMOOTH",
"560 384 OFFCURVE",
"514 386 OFFCURVE",
"499 386 QCURVE SMOOTH",
"441 386 OFFCURVE",
"355 313 OFFCURVE",
"355 258 QCURVE SMOOTH",
"355 220 OFFCURVE",
"408 170 OFFCURVE",
"432 170 QCURVE",
"446 174 OFFCURVE",
"465 200 OFFCURVE",
"465 217 QCURVE SMOOTH",
"465 231 OFFCURVE",
"443 247 OFFCURVE",
"418 251 OFFCURVE",
"396 266 OFFCURVE",
"396 280 QCURVE SMOOTH"
);
}
);
width = 644;
}
);
note = ampersand;
unicode = 0026;
},
{
glyphname = quotesingle;
layers = (
{
layerId = "02396921-8257-42A3-8ED5-3052446F9CE3";
paths = (
{
closed = 1;
nodes = (
"88 698 OFFCURVE",
"48 653 OFFCURVE",
"45 636 QCURVE",
"45 623 OFFCURVE",
"49 558 OFFCURVE",
"49 487 OFFCURVE",
"45 447 QCURVE",
"44 441 OFFCURVE",
"54 434 OFFCURVE",
"66 434 OFFCURVE",
"79 442 OFFCURVE",
"81 449 QCURVE SMOOTH",
"89 476 OFFCURVE",
"134 602 OFFCURVE",
"140 633 QCURVE",
"146 677 OFFCURVE",
"135 698 OFFCURVE",
"112 698 QCURVE SMOOTH"
);
}
);
width = 147;
}
);
note = quotesingle;
unicode = 0027;
},
{
glyphname = parenleft;
layers = (
{
layerId = "02396921-8257-42A3-8ED5-3052446F9CE3";
paths = (
{
closed = 1;
nodes = (
"21 54 OFFCURVE",
"95 -121 OFFCURVE",
"130 -121 QCURVE SMOOTH",
"135 -121 OFFCURVE",
"148 -104 OFFCURVE",
"148 -98 QCURVE SMOOTH",
"148 -95 OFFCURVE",
"147 -95 QCURVE",
"125 -82 OFFCURVE",
"80 67 OFFCURVE",
"80 164 QCURVE SMOOTH",
"80 283 OFFCURVE",
"162 538 OFFCURVE",
"265 702 OFFCURVE",
"305 721 QCURVE",
"307 723 OFFCURVE",
"307 728 QCURVE SMOOTH",
"307 748 OFFCURVE",
"298 748 QCURVE SMOOTH",
"270 748 OFFCURVE",
"177 650 OFFCURVE",
"87 497 OFFCURVE",
"21 279 OFFCURVE",
"21 174 QCURVE SMOOTH"
);
}
);
width = 292;
}
);
note = parenleft;
unicode = 0028;
},
{
glyphname = parenright;
layers = (
{
layerId = "02396921-8257-42A3-8ED5-3052446F9CE3";
paths = (
{
closed = 1;
nodes = (
"269 580 OFFCURVE",
"200 748 OFFCURVE",
"161 748 QCURVE SMOOTH",
"156 748 OFFCURVE",
"144 728 OFFCURVE",
"144 723 QCURVE SMOOTH",
"144 722 OFFCURVE",
"145 721 QCURVE",
"173 705 OFFCURVE",
"210 570 OFFCURVE",
"210 477 QCURVE SMOOTH",
"210 386 OFFCURVE",
"172 207 OFFCURVE",
"115 76 OFFCURVE",
"51 -30 OFFCURVE",
"0 -88 OFFCURVE",
"-14 -95 QCURVE",
"-17 -96 OFFCURVE",
"-17 -103 QCURVE SMOOTH",
"-17 -121 OFFCURVE",
"-8 -121 QCURVE SMOOTH",
"9 -121 OFFCURVE",
"74 -67 OFFCURVE",
"152 40 OFFCURVE",
"222 175 OFFCURVE",
"269 362 OFFCURVE",
"269 457 QCURVE SMOOTH"
);
}
);
width = 276;
}
);
note = parenright;
unicode = 0029;
},
{
glyphname = asterisk;
layers = (
{
layerId = "02396921-8257-42A3-8ED5-3052446F9CE3";
paths = (
{
closed = 1;
nodes = (
"189 514 OFFCURVE",
"189 580 QCURVE SMOOTH",
"189 598 OFFCURVE",
"187 623 OFFCURVE",
"181 650 OFFCURVE",
"167 664 OFFCURVE",
"156 664 QCURVE SMOOTH",
"143 664 OFFCURVE",
"122 641 OFFCURVE",
"122 623 QCURVE SMOOTH",
"122 599 OFFCURVE",
"173 520 OFFCURVE",
"173 510 QCURVE SMOOTH",
"173 493 OFFCURVE",
"148 493 QCURVE SMOOTH",
"139 493 OFFCURVE",
"86 500 OFFCURVE",
"70 500 QCURVE SMOOTH",
"45 500 OFFCURVE",
"16 482 OFFCURVE",
"9 465 OFFCURVE",
"9 456 QCURVE SMOOTH",
"9 432 OFFCURVE",
"39 432 QCURVE SMOOTH",
"60 432 OFFCURVE",
"154 473 OFFCURVE",
"162 473 QCURVE SMOOTH",
"171 473 OFFCURVE",
"171 464 QCURVE SMOOTH",
"171 453 OFFCURVE",
"106 348 OFFCURVE",
"106 326 QCURVE SMOOTH",
"106 313 OFFCURVE",
"119 298 OFFCURVE",
"129 298 QCURVE SMOOTH",
"141 298 OFFCURVE",
"164 320 OFFCURVE",
"170 341 QCURVE SMOOTH",
"177 363 OFFCURVE",
"183 430 OFFCURVE",
"190 466 OFFCURVE",
"210 466 OFFCURVE",
"243 424 OFFCURVE",
"283 383 OFFCURVE",
"301 383 QCURVE SMOOTH",
"316 383 OFFCURVE",
"338 405 OFFCURVE",
"338 419 QCURVE SMOOTH",
"338 437 OFFCURVE",
"299 461 OFFCURVE",
"253 469 OFFCURVE",
"214 482 OFFCURVE",
"214 491 QCURVE SMOOTH",
"214 501 OFFCURVE",
"256 529 OFFCURVE",
"305 552 OFFCURVE",
"347 590 OFFCURVE",
"347 609 QCURVE SMOOTH",
"347 633 OFFCURVE",
"324 633 QCURVE SMOOTH",
"307 633 OFFCURVE",
"267 596 OFFCURVE",
"238 551 OFFCURVE",
"209 514 OFFCURVE",
"201 514 QCURVE SMOOTH"
);
}
);
width = 343;
}
);
note = asterisk;
unicode = 002A;
},
{
glyphname = plus;
layers = (
{
layerId = "02396921-8257-42A3-8ED5-3052446F9CE3";
paths = (
{
closed = 1;
nodes = (
"227 434 OFFCURVE",
"207 311 OFFCURVE",
"201 282 QCURVE",
"201 278 OFFCURVE",
"197 278 QCURVE SMOOTH",
"19 278 LINE",
"-3 250 OFFCURVE",
"-3 231 QCURVE SMOOTH",
"-3 222 OFFCURVE",
"2 222 QCURVE SMOOTH",
"181 222 LINE SMOOTH",
"185 222 OFFCURVE",
"185 217 QCURVE",
"174 161 OFFCURVE",
"149 21 QCURVE",
"148 18 OFFCURVE",
"156 12 OFFCURVE",
"164 12 QCURVE SMOOTH",
"179 12 OFFCURVE",
"213 22 OFFCURVE",
"214 30 QCURVE",
"249 218 LINE",
"249 222 OFFCURVE",
"253 222 QCURVE SMOOTH",
"432 222 LINE",
"453 245 OFFCURVE",
"453 269 QCURVE SMOOTH",
"453 278 OFFCURVE",
"449 278 QCURVE SMOOTH",
"268 278 LINE SMOOTH",
"263 278 OFFCURVE",
"265 283 QCURVE",
"277 345 OFFCURVE",
"300 479 QCURVE",
"301 483 OFFCURVE",
"296 488 OFFCURVE",
"290 488 QCURVE SMOOTH",
"280 488 OFFCURVE",
"236 479 OFFCURVE",
"234 470 QCURVE SMOOTH"
);
}
);
width = 457;
}
);
note = plus;
unicode = 002B;
},
{
glyphname = comma;
layers = (
{
layerId = "02396921-8257-42A3-8ED5-3052446F9CE3";
paths = (
{
closed = 1;
nodes = (
"-5 -150 OFFCURVE",
"9 -163 OFFCURVE",
"13 -163 QCURVE",
"26 -154 LINE SMOOTH",
"40 -145 OFFCURVE",
"81 -109 OFFCURVE",
"125 -63 OFFCURVE",
"162 2 OFFCURVE",
"170 35 QCURVE SMOOTH",
"181 82 OFFCURVE",
"181 102 QCURVE SMOOTH",
"181 118 OFFCURVE",
"178 125 QCURVE",
"164 129 OFFCURVE",
"156 129 QCURVE SMOOTH",
"127 129 OFFCURVE",
"77 91 OFFCURVE",
"77 66 QCURVE SMOOTH",
"77 61 OFFCURVE",
"90 11 OFFCURVE",
"90 -5 QCURVE SMOOTH",
"90 -35 OFFCURVE",
"42 -99 OFFCURVE",
"-5 -140 OFFCURVE",
"-5 -143 QCURVE SMOOTH"
);
}
);
width = 209;
}
);
note = comma;
unicode = 002C;
},
{
glyphname = hyphen;
layers = (
{
layerId = "02396921-8257-42A3-8ED5-3052446F9CE3";
paths = (
{
closed = 1;
nodes = (
"33 260 OFFCURVE",
"19 224 OFFCURVE",
"19 214 QCURVE SMOOTH",
"19 199 OFFCURVE",
"24 199 QCURVE",
"250 210 LINE",
"257 211 OFFCURVE",
"273 250 OFFCURVE",
"273 261 QCURVE SMOOTH",
"273 273 OFFCURVE",
"267 273 QCURVE",
"40 261 LINE"
);
}
);
width = 295;
}
);
note = hyphen;
unicode = 002D;
},
{
glyphname = period;
layers = (
{
layerId = "02396921-8257-42A3-8ED5-3052446F9CE3";
paths = (
{
closed = 1;
nodes = (
"170 77 OFFCURVE",
"146 102 OFFCURVE",
"127 102 QCURVE SMOOTH",
"102 102 OFFCURVE",
"60 60 OFFCURVE",
"60 33 QCURVE SMOOTH",
"60 13 OFFCURVE",
"85 -14 OFFCURVE",
"104 -14 QCURVE SMOOTH",
"129 -14 OFFCURVE",
"170 30 OFFCURVE",
"170 57 QCURVE SMOOTH"
);
}
);
width = 169;
}
);
note = period;
unicode = 002E;
},
{
glyphname = slash;
layers = (
{
layerId = "02396921-8257-42A3-8ED5-3052446F9CE3";
paths = (
{
closed = 1;
nodes = (
"466 761 OFFCURVE",
"454 761 QCURVE SMOOTH",
"423 761 OFFCURVE",
"410 739 QCURVE SMOOTH",
"-15 -28 LINE",
"-10 -33 OFFCURVE",
"3 -33 QCURVE SMOOTH",
"41 -33 OFFCURVE",
"54 -12 QCURVE",
"478 755 LINE"
);
}
);
width = 463;
}
);
note = slash;
unicode = 002F;
},
{
glyphname = zero;
layers = (
{
layerId = "02396921-8257-42A3-8ED5-3052446F9CE3";
paths = (
{
closed = 1;
nodes = (
"170 441 OFFCURVE",
"270 603 OFFCURVE",
"328 603 QCURVE SMOOTH",
"379 603 OFFCURVE",
"413 443 OFFCURVE",
"390 325 QCURVE SMOOTH",
"365 201 OFFCURVE",
"267 35 OFFCURVE",
"208 35 QCURVE SMOOTH",
"157 35 OFFCURVE",
"122 202 OFFCURVE",
"147 320 QCURVE SMOOTH"
);
},
{
closed = 1;
nodes = (
"49 230 OFFCURVE",
"66 87 OFFCURVE",
"143 -3 OFFCURVE",
"205 -3 QCURVE SMOOTH",
"266 -3 OFFCURVE",
"377 86 OFFCURVE",
"452 231 OFFCURVE",
"470 319 QCURVE SMOOTH",
"484 384 OFFCURVE",
"477 501 OFFCURVE",
"445 589 OFFCURVE",
"377 641 OFFCURVE",
"330 641 QCURVE SMOOTH",
"268 641 OFFCURVE",
"157 552 OFFCURVE",
"82 407 OFFCURVE",
"65 319 QCURVE SMOOTH"
);
}
);
width = 410;
}
);
note = zero;
unicode = 0030;
},
{
glyphname = one;
layers = (
{
layerId = "02396921-8257-42A3-8ED5-3052446F9CE3";
paths = (
{
closed = 1;
nodes = (
"204 499 OFFCURVE",
"235 517 OFFCURVE",
"259 529 OFFCURVE",
"264 529 QCURVE SMOOTH",
"269 529 OFFCURVE",
"273 522 OFFCURVE",
"270 492 OFFCURVE",
"264 463 QCURVE SMOOTH",
"194 103 LINE SMOOTH",
"186 63 OFFCURVE",
"178 46 QCURVE",
"175 39 OFFCURVE",
"122 26 OFFCURVE",
"109 26 QCURVE SMOOTH",
"106 26 OFFCURVE",
"100 1 OFFCURVE",
"103 -3 QCURVE",
"198 2 OFFCURVE",
"212 2 QCURVE SMOOTH",
"231 2 OFFCURVE",
"323 -3 QCURVE",
"325 0 OFFCURVE",
"326 8 QCURVE",
"329 26 OFFCURVE",
"326 26 QCURVE SMOOTH",
"317 26 OFFCURVE",
"269 39 OFFCURVE",
"268 46 QCURVE",
"267 74 OFFCURVE",
"278 135 QCURVE SMOOTH",
"354 529 LINE SMOOTH",
"366 590 OFFCURVE",
"382 623 QCURVE",
"382 642 OFFCURVE",
"374 642 QCURVE SMOOTH",
"372 642 LINE SMOOTH",
"369 642 OFFCURVE",
"189 527 QCURVE",
"186 524 OFFCURVE",
"186 521 QCURVE SMOOTH",
"186 516 OFFCURVE",
"193 499 OFFCURVE",
"198 496 QCURVE"
);
}
);
width = 410;
}
);
note = one;
unicode = 0031;
},
{
glyphname = two;
layers = (
{
layerId = "02396921-8257-42A3-8ED5-3052446F9CE3";
paths = (
{
closed = 1;
nodes = (
"413 160 OFFCURVE",
"399 160 QCURVE SMOOTH",
"390 160 OFFCURVE",
"384 150 QCURVE",
"382 147 OFFCURVE",
"368 118 OFFCURVE",
"365 112 OFFCURVE",
"352 91 OFFCURVE",
"343 86 OFFCURVE",
"327 75 OFFCURVE",
"309 72 OFFCURVE",
"298 72 QCURVE SMOOTH",
"127 72 LINE SMOOTH",
"120 72 OFFCURVE",
"127 79 QCURVE",
"157 105 OFFCURVE",
"184 129 OFFCURVE",
"257 197 OFFCURVE",
"300 243 OFFCURVE",
"364 317 OFFCURVE",
"403 376 OFFCURVE",
"438 447 OFFCURVE",
"444 479 QCURVE SMOOTH",
"452 519 OFFCURVE",
"437 591 OFFCURVE",
"384 642 OFFCURVE",
"342 642 QCURVE SMOOTH",
"303 642 OFFCURVE",
"226 607 OFFCURVE",
"175 558 OFFCURVE",
"142 517 OFFCURVE",
"137 505 QCURVE",
"136 502 OFFCURVE",
"146 489 OFFCURVE",
"151 489 QCURVE",
"213 572 OFFCURVE",
"291 572 QCURVE SMOOTH",
"332 572 OFFCURVE",
"370 513 OFFCURVE",
"360 459 QCURVE SMOOTH",
"344 377 OFFCURVE",
"155 144 OFFCURVE",
"32 33 QCURVE",
"29 15 OFFCURVE",
"35 0 QCURVE",
"340 0 LINE SMOOTH",
"356 0 OFFCURVE",
"362 16 QCURVE",
"372 46 OFFCURVE",
"409 141 OFFCURVE",
"415 156 QCURVE"
);
}
);
width = 410;
}
);
note = two;
unicode = 0032;
},
{
glyphname = three;
layers = (
{
layerId = "02396921-8257-42A3-8ED5-3052446F9CE3";
paths = (
{
closed = 1;
nodes = (
"287 642 OFFCURVE",
"215 598 OFFCURVE",
"182 558 QCURVE",
"181 551 OFFCURVE",
"184 532 OFFCURVE",
"188 532 QCURVE",
"190 533 OFFCURVE",
"210 552 OFFCURVE",
"230 568 OFFCURVE",
"268 583 OFFCURVE",
"288 583 QCURVE SMOOTH",
"320 583 OFFCURVE",
"359 530 OFFCURVE",
"352 496 QCURVE SMOOTH",
"340 434 OFFCURVE",
"250 362 OFFCURVE",
"183 350 QCURVE",
"181 346 OFFCURVE",
"179 340 QCURVE",
"175 324 OFFCURVE",
"181 314 QCURVE",
"209 321 OFFCURVE",
"243 321 QCURVE SMOOTH",
"290 321 OFFCURVE",
"345 239 OFFCURVE",
"333 180 QCURVE SMOOTH",
"325 140 OFFCURVE",
"293 81 OFFCURVE",
"254 50 OFFCURVE",
"216 35 OFFCURVE",
"198 35 QCURVE SMOOTH",
"155 35 OFFCURVE",
"132 56 QCURVE",
"126 62 OFFCURVE",
"109 86 OFFCURVE",
"95 101 OFFCURVE",
"86 101 QCURVE SMOOTH",
"70 101 OFFCURVE",
"47 76 OFFCURVE",
"42 54 QCURVE",
"41 48 OFFCURVE",
"43 28 OFFCURVE",
"46 25 QCURVE",
"82 -5 OFFCURVE",
"161 -5 QCURVE SMOOTH",
"254 -5 OFFCURVE",
"400 111 OFFCURVE",
"418 206 QCURVE SMOOTH",
"425 241 OFFCURVE",
"411 302 OFFCURVE",
"378 344 OFFCURVE",
"342 371 OFFCURVE",
"322 379 QCURVE",
"365 409 OFFCURVE",
"416 470 OFFCURVE",
"425 514 QCURVE SMOOTH",
"436 571 OFFCURVE",
"377 642 OFFCURVE",
"337 642 QCURVE SMOOTH"
);
}
);
width = 410;
}
);
note = three;
unicode = 0033;
},
{
glyphname = four;
layers = (
{
layerId = "02396921-8257-42A3-8ED5-3052446F9CE3";
paths = (
{
closed = 1;
nodes = (
"286 174 LINE",
"252 2 LINE",
"252 -3 OFFCURVE",
"267 -6 OFFCURVE",
"285 -6 QCURVE SMOOTH",
"321 -6 OFFCURVE",
"325 -1 QCURVE",
"359 174 LINE",
"427 174 OFFCURVE",
"427 174 QCURVE",
"437 192 OFFCURVE",
"443 225 QCURVE",
"446 232 OFFCURVE",
"437 232 QCURVE SMOOTH",
"370 232 LINE",
"449 635 LINE",
"452 645 OFFCURVE",
"439 645 QCURVE SMOOTH",
"426 645 OFFCURVE",
"415 633 QCURVE",
"50 205 LINE",
"46 182 OFFCURVE",
"50 174 QCURVE"
);
},
{
closed = 1;
nodes = (
"297 232 LINE",
"128 232 LINE SMOOTH",
"121 232 OFFCURVE",
"123 241 QCURVE",
"123 243 OFFCURVE",
"124 244 QCURVE",
"344 505 LINE",
"346 507 LINE",
"348 507 OFFCURVE",
"350 500 OFFCURVE",
"349 498 QCURVE"
);
}
);
width = 410;
}
);
note = four;
unicode = 0034;
},
{
glyphname = five;
layers = (
{
layerId = "02396921-8257-42A3-8ED5-3052446F9CE3";
paths = (
{
closed = 1;
nodes = (
"156 35 OFFCURVE",
"133 56 QCURVE",
"127 62 OFFCURVE",
"110 86 OFFCURVE",
"95 101 OFFCURVE",
"87 101 QCURVE SMOOTH",
"70 101 OFFCURVE",
"47 76 OFFCURVE",
"43 54 QCURVE",
"41 48 OFFCURVE",
"43 28 OFFCURVE",
"47 25 QCURVE",
"83 -5 OFFCURVE",
"166 -5 QCURVE SMOOTH",
"257 -5 OFFCURVE",
"400 114 OFFCURVE",
"418 206 QCURVE SMOOTH",
"432 281 OFFCURVE",
"346 391 OFFCURVE",
"271 391 QCURVE SMOOTH",
"213 391 OFFCURVE",
"181 378 QCURVE",
"231 518 OFFCURVE",
"239 538 QCURVE SMOOTH",
"242 545 OFFCURVE",
"247 546 QCURVE",
"247 546 OFFCURVE",
"410 553 OFFCURVE",
"436 561 QCURVE",
"447 589 OFFCURVE",
"452 616 QCURVE",
"454 630 OFFCURVE",
"451 637 QCURVE",
"414 629 OFFCURVE",
"230 623 QCURVE",
"128 326 LINE",
"136 316 OFFCURVE",
"142 312 QCURVE",
"177 323 OFFCURVE",
"225 323 QCURVE SMOOTH",
"263 323 OFFCURVE",
"315 296 OFFCURVE",
"333 254 OFFCURVE",
"339 203 OFFCURVE",
"333 180 QCURVE",
"318 106 OFFCURVE",
"242 35 OFFCURVE",
"203 35 QCURVE SMOOTH"
);
}
);
width = 410;
}
);
note = five;
unicode = 0035;
},
{
glyphname = six;
layers = (
{
layerId = "02396921-8257-42A3-8ED5-3052446F9CE3";
paths = (
{
closed = 1;
nodes = (
"263 372 OFFCURVE",
"195 345 OFFCURVE",
"195 328 QCURVE SMOOTH",
"195 318 OFFCURVE",
"201 314 QCURVE",
"202 314 OFFCURVE",
"218 321 OFFCURVE",
"228 325 OFFCURVE",
"246 329 OFFCURVE",
"254 329 QCURVE SMOOTH",
"303 329 OFFCURVE",
"350 267 OFFCURVE",
"350 217 QCURVE SMOOTH",
"350 139 OFFCURVE",
"264 33 OFFCURVE",
"219 33 QCURVE SMOOTH",
"178 33 OFFCURVE",
"138 102 OFFCURVE",
"138 152 QCURVE SMOOTH",
"138 246 OFFCURVE",
"182 350 QCURVE SMOOTH",
"224 448 OFFCURVE",
"364 571 OFFCURVE",
"461 612 QCURVE",
"461 637 OFFCURVE",
"453 637 QCURVE",
"365 598 OFFCURVE",
"225 500 OFFCURVE",
"138 402 OFFCURVE",
"81 296 OFFCURVE",
"58 205 OFFCURVE",
"58 162 QCURVE SMOOTH",
"58 80 OFFCURVE",
"137 -6 OFFCURVE",
"205 -6 QCURVE SMOOTH",
"258 -6 OFFCURVE",
"364 61 OFFCURVE",
"430 170 OFFCURVE",
"430 226 QCURVE SMOOTH",
"430 288 OFFCURVE",
"348 372 OFFCURVE",
"284 372 QCURVE SMOOTH"
);
}
);
width = 410;
}
);
note = six;
unicode = 0036;
},
{
glyphname = seven;
layers = (
{
layerId = "02396921-8257-42A3-8ED5-3052446F9CE3";
paths = (
{
closed = 1;
nodes = (
"120 -6 OFFCURVE",
"123 -3 QCURVE",
"477 560 LINE",
"482 567 OFFCURVE",
"499 593 OFFCURVE",
"508 606 OFFCURVE",
"516 622 OFFCURVE",
"517 627 QCURVE SMOOTH",
"519 636 OFFCURVE",
"513 636 QCURVE SMOOTH",
"512 636 OFFCURVE",
"464 633 OFFCURVE",
"450 633 QCURVE SMOOTH",
"181 633 LINE SMOOTH",
"169 633 OFFCURVE",
"164 621 QCURVE",
"155 595 OFFCURVE",
"110 482 OFFCURVE",
"106 471 QCURVE",
"112 468 OFFCURVE",
"136 470 OFFCURVE",
"138 474 QCURVE SMOOTH",
"149 497 OFFCURVE",
"167 525 OFFCURVE",
"197 553 OFFCURVE",
"212 553 QCURVE SMOOTH",
"436 553 LINE",
"86 22 LINE",
"85 15 OFFCURVE",
"103 -6 OFFCURVE",
"113 -6 QCURVE SMOOTH"
);
}
);
width = 410;
}
);
note = seven;
unicode = 0037;
},
{
glyphname = eight;
layers = (
{
layerId = "02396921-8257-42A3-8ED5-3052446F9CE3";
paths = (
{
closed = 1;
nodes = (
"274 643 OFFCURVE",
"162 544 OFFCURVE",
"149 480 QCURVE SMOOTH",
"139 430 OFFCURVE",
"182 347 OFFCURVE",
"214 324 QCURVE",
"218 322 OFFCURVE",
"212 318 QCURVE SMOOTH",
"209 316 OFFCURVE",
"203 313 QCURVE",
"178 298 OFFCURVE",
"147 276 OFFCURVE",
"97 234 OFFCURVE",
"65 183 OFFCURVE",
"60 154 QCURVE SMOOTH",
"45 81 OFFCURVE",
"124 -9 OFFCURVE",
"201 -9 QCURVE SMOOTH",
"272 -9 OFFCURVE",
"399 93 OFFCURVE",
"413 167 QCURVE SMOOTH",
"422 216 OFFCURVE",
"367 308 OFFCURVE",
"324 338 QCURVE",
"319 343 OFFCURVE",
"325 344 QCURVE",
"443 416 OFFCURVE",
"458 491 QCURVE SMOOTH",
"471 560 OFFCURVE",
"399 643 OFFCURVE",
"335 643 QCURVE SMOOTH"
);
},
{
closed = 1;
nodes = (
"363 608 OFFCURVE",
"399 533 OFFCURVE",
"390 486 QCURVE SMOOTH",
"374 409 OFFCURVE",
"303 364 QCURVE SMOOTH",
"300 362 OFFCURVE",
"297 362 QCURVE SMOOTH",
"296 362 OFFCURVE",
"292 364 QCURVE",
"207 424 OFFCURVE",
"220 492 QCURVE SMOOTH",
"230 544 OFFCURVE",
"288 608 OFFCURVE",
"323 608 QCURVE SMOOTH"
);
},
{
closed = 1;
nodes = (
"170 27 OFFCURVE",
"122 99 OFFCURVE",
"134 157 QCURVE SMOOTH",
"143 205 OFFCURVE",
"190 269 OFFCURVE",
"234 296 QCURVE",
"235 297 OFFCURVE",
"238 297 QCURVE SMOOTH",
"239 297 OFFCURVE",
"243 295 QCURVE",
"252 289 OFFCURVE",
"265 278 OFFCURVE",
"300 243 OFFCURVE",
"322 210 OFFCURVE",
"336 161 OFFCURVE",
"332 138 QCURVE SMOOTH",
"322 87 OFFCURVE",
"256 27 OFFCURVE",
"210 27 QCURVE SMOOTH"
);
}
);
width = 410;
}
);
note = eight;
unicode = 0038;
},
{
glyphname = nine;
layers = (
{
layerId = "02396921-8257-42A3-8ED5-3052446F9CE3";
paths = (
{
closed = 1;
nodes = (
"268 260 OFFCURVE",
"333 282 OFFCURVE",
"333 299 QCURVE SMOOTH",
"333 308 OFFCURVE",
"327 313 QCURVE",
"326 312 OFFCURVE",
"318 309 OFFCURVE",
"314 308 OFFCURVE",
"305 306 OFFCURVE",
"290 305 OFFCURVE",
"280 305 QCURVE SMOOTH",
"185 305 OFFCURVE",
"185 411 QCURVE SMOOTH",
"185 489 OFFCURVE",
"265 594 OFFCURVE",
"309 594 QCURVE SMOOTH",
"350 594 OFFCURVE",
"388 526 OFFCURVE",
"388 475 QCURVE SMOOTH",
"388 371 OFFCURVE",
"348 277 QCURVE SMOOTH",
"307 179 OFFCURVE",
"165 56 OFFCURVE",
"67 15 QCURVE",
"69 -2 OFFCURVE",
"84 -6 QCURVE",
"174 30 OFFCURVE",
"314 127 OFFCURVE",
"397 223 OFFCURVE",
"451 331 OFFCURVE",
"470 421 OFFCURVE",
"470 465 QCURVE SMOOTH",
"470 547 OFFCURVE",
"391 633 OFFCURVE",
"323 633 QCURVE SMOOTH",
"241 633 OFFCURVE",
"104 489 OFFCURVE",
"104 402 QCURVE SMOOTH",
"104 340 OFFCURVE",
"182 260 OFFCURVE",
"245 260 QCURVE SMOOTH"
);
}
);
width = 410;
}
);
note = nine;
unicode = 0039;
},
{
glyphname = colon;
layers = (
{
layerId = "02396921-8257-42A3-8ED5-3052446F9CE3";
paths = (
{
closed = 1;
nodes = (
"124 346 OFFCURVE",
"150 318 OFFCURVE",
"170 318 QCURVE SMOOTH",
"196 318 OFFCURVE",
"238 363 OFFCURVE",
"238 391 QCURVE SMOOTH",
"238 411 OFFCURVE",
"213 438 OFFCURVE",
"193 438 QCURVE SMOOTH",
"167 438 OFFCURVE",
"124 395 OFFCURVE",
"124 367 QCURVE SMOOTH"
);
},
{
closed = 1;
nodes = (
"60 13 OFFCURVE",
"85 -14 OFFCURVE",
"105 -14 QCURVE SMOOTH",
"131 -14 OFFCURVE",
"173 30 OFFCURVE",
"173 58 QCURVE SMOOTH",
"173 79 OFFCURVE",
"148 106 OFFCURVE",
"128 106 QCURVE SMOOTH",
"102 106 OFFCURVE",
"60 62 OFFCURVE",
"60 34 QCURVE SMOOTH"
);
}
);
width = 180;
}
);
note = colon;
unicode = 003A;
},
{
glyphname = semicolon;
layers = (
{
layerId = "02396921-8257-42A3-8ED5-3052446F9CE3";
paths = (
{
closed = 1;
nodes = (
"125 346 OFFCURVE",
"151 318 OFFCURVE",
"171 318 QCURVE SMOOTH",
"197 318 OFFCURVE",
"239 363 OFFCURVE",
"239 391 QCURVE SMOOTH",
"239 411 OFFCURVE",
"214 438 OFFCURVE",
"194 438 QCURVE SMOOTH",
"168 438 OFFCURVE",
"125 395 OFFCURVE",
"125 367 QCURVE SMOOTH"
);
},
{
closed = 1;
nodes = (
"79 -2 OFFCURVE",
"77 -14 QCURVE",
"70 -48 OFFCURVE",
"38 -98 OFFCURVE",
"8 -119 OFFCURVE",
"-15 -137 OFFCURVE",
"-15 -143 QCURVE SMOOTH",
"-15 -167 OFFCURVE",
"-1 -167 QCURVE SMOOTH",
"2 -167 OFFCURVE",
"6 -165 QCURVE",
"82 -108 OFFCURVE",
"147 -28 OFFCURVE",
"159 34 QCURVE SMOOTH",
"167 77 OFFCURVE",
"167 90 QCURVE SMOOTH",
"167 124 OFFCURVE",
"144 124 QCURVE SMOOTH",
"117 124 OFFCURVE",
"68 82 OFFCURVE",
"68 62 QCURVE SMOOTH",
"68 59 OFFCURVE",
"79 31 OFFCURVE",
"79 11 QCURVE SMOOTH"
);
}
);
width = 239;
}
);
note = semicolon;
unicode = 003B;
},
{
glyphname = less;
layers = (
{
layerId = "02396921-8257-42A3-8ED5-3052446F9CE3";
paths = (
{
closed = 1;
nodes = (
"409 374 LINE",
"414 376 OFFCURVE",
"414 394 QCURVE SMOOTH",
"414 429 OFFCURVE",
"407 429 QCURVE SMOOTH",
"405 429 OFFCURVE",
"403 428 QCURVE SMOOTH",
"22 241 LINE SMOOTH",
"-1 229 OFFCURVE",
"-1 203 QCURVE SMOOTH",
"-1 184 OFFCURVE",
"9 177 QCURVE",
"321 -13 LINE",
"323 -14 OFFCURVE",
"325 -14 QCURVE SMOOTH",
"329 -14 OFFCURVE",
"350 27 OFFCURVE",
"350 36 QCURVE SMOOTH",
"350 40 OFFCURVE",
"348 41 QCURVE",
"74 209 LINE"
);
}
);
width = 406;
}
);
note = less;
unicode = 003C;
},
{
glyphname = equal;
layers = (
{
layerId = "02396921-8257-42A3-8ED5-3052446F9CE3";
paths = (
{
closed = 1;
nodes = (
"435 117 LINE",
"442 123 LINE",
"460 166 OFFCURVE",
"460 168 QCURVE SMOOTH",
"460 173 OFFCURVE",
"454 173 QCURVE SMOOTH",
"38 173 LINE SMOOTH",
"32 173 OFFCURVE",
"15 128 OFFCURVE",
"15 123 QCURVE SMOOTH",
"15 117 OFFCURVE",
"20 117 QCURVE SMOOTH"
);
},
{
closed = 1;
nodes = (
"462 259 LINE",
"464 259 LINE SMOOTH",
"465 259 OFFCURVE",
"469 262 OFFCURVE",
"470 265 QCURVE",
"487 305 OFFCURVE",
"487 315 OFFCURVE",
"481 315 QCURVE SMOOTH",
"66 315 LINE SMOOTH",
"60 315 OFFCURVE",
"44 269 OFFCURVE",
"44 265 QCURVE SMOOTH",
"44 259 OFFCURVE",
"48 259 QCURVE SMOOTH"
);
}
);
width = 503;
}
);
note = equal;
unicode = 003D;
},
{
glyphname = greater;
layers = (
{
layerId = "02396921-8257-42A3-8ED5-3052446F9CE3";
paths = (
{
closed = 1;
nodes = (
"-4 41 LINE",
"-9 33 OFFCURVE",
"-9 33 QCURVE",
"-9 -15 OFFCURVE",
"-3 -15 QCURVE SMOOTH",
"-1 -15 OFFCURVE",
"3 -13 QCURVE SMOOTH",
"388 177 LINE SMOOTH",
"412 189 OFFCURVE",
"412 221 QCURVE SMOOTH",
"412 234 OFFCURVE",
"400 241 QCURVE SMOOTH",
"93 428 LINE",
"89 430 LINE",
"85 430 OFFCURVE",
"63 384 OFFCURVE",
"63 378 QCURVE SMOOTH",
"63 375 OFFCURVE",
"65 374 QCURVE",
"337 209 LINE"
);
}
);
width = 419;
}
);
note = greater;
unicode = 003E;
},
{
glyphname = question;
layers = (
{
layerId = "02396921-8257-42A3-8ED5-3052446F9CE3";
paths = (
{
closed = 1;
nodes = (
"64 12 OFFCURVE",
"87 -14 OFFCURVE",
"106 -14 QCURVE SMOOTH",
"131 -14 OFFCURVE",
"174 29 OFFCURVE",
"174 56 QCURVE SMOOTH",
"174 76 OFFCURVE",
"148 102 OFFCURVE",
"129 102 QCURVE SMOOTH",
"104 102 OFFCURVE",
"64 60 OFFCURVE",
"64 32 QCURVE SMOOTH"
);
},
{
closed = 1;
nodes = (
"186 206 OFFCURVE",
"160 242 OFFCURVE",
"160 261 QCURVE SMOOTH",
"160 299 OFFCURVE",
"193 321 QCURVE SMOOTH",
"215 336 OFFCURVE",
"275 375 OFFCURVE",
"300 391 OFFCURVE",
"332 419 OFFCURVE",
"343 443 OFFCURVE",
"352 478 OFFCURVE",
"352 502 QCURVE SMOOTH",
"352 551 OFFCURVE",
"267 631 OFFCURVE",
"207 631 QCURVE SMOOTH",
"182 631 OFFCURVE",
"138 596 OFFCURVE",
"133 582 QCURVE",
"133 530 OFFCURVE",
"167 530 QCURVE SMOOTH",
"185 530 OFFCURVE",
"222 577 OFFCURVE",
"245 577 QCURVE SMOOTH",
"270 577 OFFCURVE",
"299 546 OFFCURVE",
"299 517 QCURVE SMOOTH",
"299 479 OFFCURVE",
"252 446 QCURVE SMOOTH",
"133 362 LINE SMOOTH",
"91 333 OFFCURVE",
"91 279 QCURVE SMOOTH",
"91 242 OFFCURVE",
"165 181 OFFCURVE",
"189 181 QCURVE",
"199 187 OFFCURVE",
"199 197 QCURVE"
);
}
);
width = 294;
}
);
note = question;
unicode = 003F;
},
{
glyphname = at;
layers = (
{
layerId = "02396921-8257-42A3-8ED5-3052446F9CE3";
paths = (
{
closed = 1;
nodes = (
"361 -163 OFFCURVE",
"407 -136 OFFCURVE",
"409 -122 QCURVE",
"409 -113 LINE",
"374 -126 OFFCURVE",
"342 -126 QCURVE SMOOTH",
"274 -126 OFFCURVE",
"169 -91 OFFCURVE",
"105 -29 OFFCURVE",
"68 59 OFFCURVE",
"66 163 OFFCURVE",
"76 223 QCURVE SMOOTH",
"93 309 OFFCURVE",
"206 450 OFFCURVE",
"364 528 OFFCURVE",
"448 528 QCURVE SMOOTH",
"525 528 OFFCURVE",
"631 440 OFFCURVE",
"668 298 OFFCURVE",
"651 214 QCURVE SMOOTH",
"647 190 OFFCURVE",
"625 133 OFFCURVE",
"589 69 OFFCURVE",
"532 27 OFFCURVE",
"499 27 QCURVE SMOOTH",
"444 27 OFFCURVE",
"474 125 QCURVE SMOOTH",
"539 348 LINE",
"541 354 OFFCURVE",
"557 401 QCURVE",
"476 410 LINE",
"416 410 OFFCURVE",
"308 364 OFFCURVE",
"230 287 OFFCURVE",
"178 192 OFFCURVE",
"168 141 QCURVE",
"163 105 OFFCURVE",
"168 40 OFFCURVE",
"207 -7 OFFCURVE",
"240 -7 QCURVE SMOOTH",
"272 -7 OFFCURVE",
"374 63 OFFCURVE",
"394 90 QCURVE",
"395 91 OFFCURVE",
"399 93 OFFCURVE",
"399 92 QCURVE",
"392 57 OFFCURVE",
"438 -13 OFFCURVE",
"483 -13 QCURVE SMOOTH",
"513 -13 OFFCURVE",
"573 11 OFFCURVE",
"635 63 OFFCURVE",
"687 164 OFFCURVE",
"700 233 QCURVE SMOOTH",
"708 281 OFFCURVE",
"703 378 OFFCURVE",
"666 467 OFFCURVE",
"610 536 OFFCURVE",
"521 577 OFFCURVE",
"467 577 QCURVE SMOOTH",
"362 577 OFFCURVE",
"175 486 OFFCURVE",
"38 305 OFFCURVE",
"15 185 QCURVE",
"5 142 OFFCURVE",
"15 55 OFFCURVE",
"42 -25 OFFCURVE",
"97 -94 OFFCURVE",
"168 -144 OFFCURVE",
"267 -170 OFFCURVE",
"324 -168 QCURVE"
);
},
{
closed = 1;
nodes = (
"412 146 OFFCURVE",
"314 53 OFFCURVE",
"278 53 QCURVE SMOOTH",
"257 53 OFFCURVE",
"231 96 OFFCURVE",
"240 143 QCURVE SMOOTH",
"263 263 OFFCURVE",
"394 376 OFFCURVE",
"461 352 QCURVE SMOOTH",
"464 351 OFFCURVE",
"467 347 OFFCURVE",
"467 339 OFFCURVE",
"466 334 OFFCURVE",
"462 323 OFFCURVE",
"462 322 QCURVE",
"419 170 LINE SMOOTH"
);
}
);
width = 723;
}
);
note = at;
unicode = 0040;
},
{
glyphname = A;
layers = (
{
layerId = "02396921-8257-42A3-8ED5-3052446F9CE3";
paths = (
{
closed = 1;
nodes = (
"454 108 OFFCURVE",
"454 91 QCURVE SMOOTH",
"454 59 OFFCURVE",
"447 44 QCURVE",
"442 36 OFFCURVE",
"406 24 OFFCURVE",
"396 24 QCURVE SMOOTH",
"389 24 OFFCURVE",
"389 3 QCURVE SMOOTH",
"389 -2 OFFCURVE",
"390 -3 QCURVE",
"405 -2 OFFCURVE",
"445 0 OFFCURVE",
"478 2 OFFCURVE",
"497 2 QCURVE SMOOTH",
"508 2 OFFCURVE",
"601 -3 QCURVE",
"606 7 OFFCURVE",
"606 19 QCURVE SMOOTH",
"606 24 OFFCURVE",
"604 24 QCURVE SMOOTH",
"594 24 OFFCURVE",
"549 45 OFFCURVE",
"546 60 QCURVE SMOOTH",
"544 69 OFFCURVE",
"534 132 QCURVE SMOOTH",
"451 660 LINE",
"447 662 OFFCURVE",
"443 662 QCURVE SMOOTH",
"419 662 OFFCURVE",
"404 635 QCURVE SMOOTH",
"128 139 LINE SMOOTH",
"89 69 OFFCURVE",
"67 45 QCURVE SMOOTH",
"59 36 OFFCURVE",
"20 24 OFFCURVE",
"9 24 QCURVE SMOOTH",
"2 24 OFFCURVE",
"2 5 QCURVE SMOOTH",
"2 -1 OFFCURVE",
"4 -3 QCURVE",
"20 -2 OFFCURVE",
"54 0 OFFCURVE",
"83 2 OFFCURVE",
"102 2 QCURVE SMOOTH",
"104 2 OFFCURVE",
"197 -3 QCURVE",
"202 7 OFFCURVE",
"202 18 QCURVE SMOOTH",
"202 24 OFFCURVE",
"200 24 QCURVE SMOOTH",
"196 24 OFFCURVE",
"173 28 OFFCURVE",
"145 44 OFFCURVE",
"145 55 QCURVE SMOOTH",
"145 70 OFFCURVE",
"191 164 OFFCURVE",
"239 244 OFFCURVE",
"242 244 QCURVE",
"314 249 OFFCURVE",
"335 249 QCURVE SMOOTH",
"354 249 OFFCURVE",
"383 249 OFFCURVE",
"404 248 OFFCURVE",
"419 247 OFFCURVE",
"428 246 OFFCURVE",
"433 245 OFFCURVE",
"436 242 OFFCURVE",
"436 241 OFFCURVE",
"436 239 QCURVE"
);
},
{
closed = 1;
nodes = (
"295 298 OFFCURVE",
"272 299 QCURVE",
"271 299 OFFCURVE",
"271 303 OFFCURVE",
"394 526 QCURVE",
"397 505 OFFCURVE",
"414 393 OFFCURVE",
"427 309 OFFCURVE",
"427 304 QCURVE SMOOTH",
"427 300 OFFCURVE",
"423 300 QCURVE",
"394 298 OFFCURVE",
"348 298 QCURVE SMOOTH"
);
}
);
width = 606;
}
);
note = A;
unicode = 0041;
},
{
glyphname = B;
layers = (
{
layerId = "02396921-8257-42A3-8ED5-3052446F9CE3";
paths = (
{
closed = 1;
nodes = (
"448 157 OFFCURVE",
"390 73 OFFCURVE",
"349 54 QCURVE SMOOTH",
"322 41 OFFCURVE",
"252 41 QCURVE SMOOTH",
"220 41 OFFCURVE",
"192 50 OFFCURVE",
"192 86 OFFCURVE",
"197 116 QCURVE SMOOTH",
"235 316 LINE SMOOTH",
"238 331 OFFCURVE",
"309 331 QCURVE SMOOTH",
"382 331 OFFCURVE",
"448 264 OFFCURVE",
"448 211 QCURVE SMOOTH"
);
},
{
closed = 1;
nodes = (
"538 272 OFFCURVE",
"462 356 OFFCURVE",
"432 361 QCURVE",
"438 364 LINE",
"445 367 OFFCURVE",
"468 380 OFFCURVE",
"494 399 OFFCURVE",
"522 427 OFFCURVE",
"544 459 OFFCURVE",
"558 504 OFFCURVE",
"558 528 QCURVE SMOOTH",
"558 563 OFFCURVE",
"526 616 OFFCURVE",
"475 644 OFFCURVE",
"420 657 OFFCURVE",
"392 657 QCURVE SMOOTH",
"368 657 OFFCURVE",
"308 656 OFFCURVE",
"261 656 QCURVE SMOOTH",
"200 656 OFFCURVE",
"154 658 QCURVE",
"147 651 OFFCURVE",
"147 635 QCURVE SMOOTH",
"147 631 OFFCURVE",
"149 631 QCURVE SMOOTH",
"160 631 OFFCURVE",
"205 614 OFFCURVE",
"205 607 QCURVE SMOOTH",
"205 571 OFFCURVE",
"194 514 QCURVE SMOOTH",
"122 142 LINE SMOOTH",
"110 78 OFFCURVE",
"96 49 QCURVE SMOOTH",
"92 40 OFFCURVE",
"43 26 OFFCURVE",
"31 26 QCURVE SMOOTH",
"24 26 OFFCURVE",
"24 6 QCURVE SMOOTH",
"24 -2 OFFCURVE",
"25 -3 QCURVE",
"135 0 LINE",
"262 0 LINE SMOOTH",
"389 0 OFFCURVE",
"538 133 OFFCURVE",
"538 215 QCURVE SMOOTH"
);
},
{
closed = 1;
nodes = (
"473 469 OFFCURVE",
"443 407 OFFCURVE",
"387 381 OFFCURVE",
"341 373 OFFCURVE",
"309 373 QCURVE SMOOTH",
"296 373 OFFCURVE",
"276 374 OFFCURVE",
"258 377 OFFCURVE",
"249 382 OFFCURVE",
"250 386 QCURVE",
"295 603 LINE",
"297 616 OFFCURVE",
"370 616 QCURVE SMOOTH",
"473 616 OFFCURVE",
"473 516 QCURVE SMOOTH"
);
}
);
width = 528;
}
);
note = B;
unicode = 0042;
},
{
glyphname = C;
layers = (
{
layerId = "02396921-8257-42A3-8ED5-3052446F9CE3";
paths = (
{
closed = 1;
nodes = (
"360 667 OFFCURVE",
"217 592 OFFCURVE",
"119 475 OFFCURVE",
"60 333 OFFCURVE",
"60 267 QCURVE SMOOTH",
"60 157 OFFCURVE",
"202 -6 OFFCURVE",
"321 -6 QCURVE SMOOTH",
"385 -6 OFFCURVE",
"511 20 OFFCURVE",
"526 37 QCURVE",
"531 42 OFFCURVE",
"576 128 QCURVE",
"577 132 OFFCURVE",
"559 153 OFFCURVE",
"556 153 QCURVE SMOOTH",
"555 153 OFFCURVE",
"538 127 OFFCURVE",
"501 85 OFFCURVE",
"476 70 QCURVE SMOOTH",
"424 37 OFFCURVE",
"350 37 QCURVE SMOOTH",
"255 37 OFFCURVE",
"151 163 OFFCURVE",
"151 259 QCURVE SMOOTH",
"151 405 OFFCURVE",
"329 625 OFFCURVE",
"432 625 QCURVE SMOOTH",
"478 625 OFFCURVE",
"544 601 OFFCURVE",
"575 571 OFFCURVE",
"593 525 OFFCURVE",
"595 501 OFFCURVE",
"595 486 QCURVE",
"598 483 OFFCURVE",
"606 483 QCURVE SMOOTH",
"627 483 OFFCURVE",
"630 498 QCURVE SMOOTH",
"632 508 OFFCURVE",
"650 622 QCURVE",
"505 667 OFFCURVE",
"437 667 QCURVE SMOOTH"
);
}
);
width = 580;
}
);
note = C;
unicode = 0043;
},
{
glyphname = D;
layers = (
{
layerId = "02396921-8257-42A3-8ED5-3052446F9CE3";
paths = (
{
closed = 1;
nodes = (
"406 658 OFFCURVE",
"296 656 OFFCURVE",
"261 656 QCURVE SMOOTH",
"200 656 OFFCURVE",
"154 658 QCURVE",
"147 651 OFFCURVE",
"147 635 QCURVE SMOOTH",
"147 631 OFFCURVE",
"149 631 QCURVE SMOOTH",
"160 631 OFFCURVE",
"204 615 OFFCURVE",
"205 607 QCURVE SMOOTH",
"207 585 OFFCURVE",
"194 514 QCURVE SMOOTH",
"122 142 LINE SMOOTH",
"110 78 OFFCURVE",
"96 49 QCURVE SMOOTH",
"92 40 OFFCURVE",
"40 24 OFFCURVE",
"29 24 QCURVE SMOOTH",
"24 24 OFFCURVE",
"24 5 QCURVE SMOOTH",
"24 -2 OFFCURVE",
"25 -3 QCURVE",
"136 2 LINE",
"170 2 OFFCURVE",
"276 -3 OFFCURVE",
"294 -3 QCURVE SMOOTH",
"371 -3 OFFCURVE",
"503 50 OFFCURVE",
"593 136 OFFCURVE",
"658 244 OFFCURVE",
"688 354 OFFCURVE",
"688 405 QCURVE SMOOTH",
"688 514 OFFCURVE",
"554 658 OFFCURVE",
"424 658 QCURVE SMOOTH"
);
},
{
closed = 1;
nodes = (
"512 614 OFFCURVE",
"600 502 OFFCURVE",
"600 414 QCURVE SMOOTH",
"600 320 OFFCURVE",
"533 152 OFFCURVE",
"401 43 OFFCURVE",
"317 43 QCURVE SMOOTH",
"210 43 OFFCURVE",
"201 63 QCURVE",
"199 68 OFFCURVE",
"199 125 OFFCURVE",
"202 139 QCURVE SMOOTH",
"275 519 LINE SMOOTH",
"286 578 OFFCURVE",
"302 598 QCURVE SMOOTH",
"315 614 OFFCURVE",
"422 614 QCURVE SMOOTH"
);
}
);
width = 668;
}
);
note = D;
unicode = 0044;
},
{
glyphname = E;
layers = (
{
layerId = "02396921-8257-42A3-8ED5-3052446F9CE3";
paths = (
{
closed = 1;
nodes = (
"200 656 OFFCURVE",
"154 658 QCURVE",
"147 651 OFFCURVE",
"147 635 QCURVE SMOOTH",
"147 631 OFFCURVE",
"149 631 QCURVE SMOOTH",
"160 631 OFFCURVE",
"204 615 OFFCURVE",
"205 607 QCURVE SMOOTH",
"207 585 OFFCURVE",
"194 514 QCURVE SMOOTH",
"122 142 LINE SMOOTH",
"110 78 OFFCURVE",
"96 49 QCURVE SMOOTH",
"92 40 OFFCURVE",
"40 24 OFFCURVE",
"29 24 QCURVE SMOOTH",
"24 24 OFFCURVE",
"24 5 QCURVE SMOOTH",
"24 -2 OFFCURVE",
"25 -3 QCURVE",
"136 2 LINE",
"176 2 OFFCURVE",
"399 -4 OFFCURVE",
"452 -4 QCURVE",
"464 32 OFFCURVE",
"534 162 QCURVE",
"530 168 OFFCURVE",
"513 168 QCURVE SMOOTH",
"501 168 OFFCURVE",
"498 162 QCURVE SMOOTH",
"479 124 OFFCURVE",
"436 69 OFFCURVE",
"420 61 QCURVE SMOOTH",
"386 44 OFFCURVE",
"299 44 QCURVE SMOOTH",
"254 44 LINE SMOOTH",
"209 44 OFFCURVE",
"193 50 OFFCURVE",
"193 65 QCURVE SMOOTH",
"193 99 OFFCURVE",
"204 152 QCURVE SMOOTH",
"233 300 LINE SMOOTH",
"235 309 OFFCURVE",
"301 309 QCURVE SMOOTH",
"388 309 OFFCURVE",
"398 301 QCURVE SMOOTH",
"403 297 OFFCURVE",
"406 292 OFFCURVE",
"412 265 OFFCURVE",
"413 238 QCURVE",
"414 230 OFFCURVE",
"427 230 QCURVE SMOOTH",
"435 230 OFFCURVE",
"441 234 QCURVE",
"478 426 LINE",
"475 431 OFFCURVE",
"463 431 QCURVE SMOOTH",
"452 431 OFFCURVE",
"449 424 QCURVE SMOOTH",
"426 372 OFFCURVE",
"394 353 OFFCURVE",
"328 353 QCURVE SMOOTH",
"283 353 LINE SMOOTH",
"275 353 OFFCURVE",
"263 354 OFFCURVE",
"251 355 OFFCURVE",
"246 358 OFFCURVE",
"246 361 QCURVE",
"278 536 LINE SMOOTH",
"285 573 OFFCURVE",
"296 603 QCURVE SMOOTH",
"301 616 OFFCURVE",
"372 616 QCURVE SMOOTH",
"426 616 LINE SMOOTH",
"476 616 OFFCURVE",
"522 586 OFFCURVE",
"525 530 QCURVE",
"525 523 OFFCURVE",
"537 523 QCURVE SMOOTH",
"550 523 OFFCURVE",
"555 528 QCURVE",
"555 544 OFFCURVE",
"553 608 OFFCURVE",
"553 625 QCURVE SMOOTH",
"553 650 OFFCURVE",
"554 664 QCURVE",
"502 664 OFFCURVE",
"302 656 OFFCURVE",
"261 656 QCURVE SMOOTH"
);
}
);
width = 519;
}
);
note = E;
unicode = 0045;
},
{
glyphname = F;
layers = (
{
layerId = "02396921-8257-42A3-8ED5-3052446F9CE3";
paths = (
{
closed = 1;
nodes = (
"160 2 OFFCURVE",
"253 -3 QCURVE",
"259 3 OFFCURVE",
"259 16 QCURVE SMOOTH",
"259 24 OFFCURVE",
"257 24 QCURVE",
"240 26 LINE SMOOTH",
"223 28 OFFCURVE",
"189 41 OFFCURVE",
"189 49 QCURVE SMOOTH",
"189 88 OFFCURVE",
"197 128 QCURVE SMOOTH",
"231 300 LINE SMOOTH",
"233 309 OFFCURVE",
"299 309 QCURVE SMOOTH",
"386 309 OFFCURVE",
"396 301 QCURVE SMOOTH",
"401 297 OFFCURVE",
"404 292 OFFCURVE",
"410 265 OFFCURVE",
"411 238 QCURVE",
"412 230 OFFCURVE",
"425 230 QCURVE SMOOTH",
"433 230 OFFCURVE",
"439 234 QCURVE",
"476 426 LINE",
"473 431 OFFCURVE",
"461 431 QCURVE SMOOTH",
"450 431 OFFCURVE",
"447 424 QCURVE SMOOTH",
"424 372 OFFCURVE",
"392 353 OFFCURVE",
"326 353 QCURVE SMOOTH",
"281 353 LINE SMOOTH",
"273 353 OFFCURVE",
"261 354 OFFCURVE",
"249 355 OFFCURVE",
"244 358 OFFCURVE",
"244 361 QCURVE",
"276 536 LINE SMOOTH",
"283 573 OFFCURVE",
"294 603 QCURVE SMOOTH",
"299 616 OFFCURVE",
"370 616 QCURVE SMOOTH",
"424 616 LINE SMOOTH",
"474 616 OFFCURVE",
"520 586 OFFCURVE",
"523 530 QCURVE",
"523 523 OFFCURVE",
"535 523 QCURVE SMOOTH",
"548 523 OFFCURVE",
"553 528 QCURVE",
"553 544 OFFCURVE",
"551 608 OFFCURVE",
"551 625 QCURVE SMOOTH",
"551 650 OFFCURVE",
"552 664 QCURVE",
"499 664 OFFCURVE",
"301 656 OFFCURVE",
"261 656 QCURVE SMOOTH",
"200 656 OFFCURVE",
"154 658 QCURVE",
"147 651 OFFCURVE",
"147 635 QCURVE SMOOTH",
"147 631 OFFCURVE",
"149 631 QCURVE SMOOTH",
"160 631 OFFCURVE",
"204 615 OFFCURVE",
"205 607 QCURVE SMOOTH",
"207 585 OFFCURVE",
"194 514 QCURVE SMOOTH",
"122 142 LINE SMOOTH",
"110 78 OFFCURVE",
"96 49 QCURVE SMOOTH",
"92 40 OFFCURVE",
"40 24 OFFCURVE",
"29 24 QCURVE SMOOTH",
"24 24 OFFCURVE",
"24 5 QCURVE SMOOTH",
"24 -2 OFFCURVE",
"25 -3 QCURVE",
"136 2 OFFCURVE",
"136 2 QCURVE"
);
}
);
width = 503;
}
);
note = F;
unicode = 0046;
},
{
glyphname = G;
layers = (
{
layerId = "02396921-8257-42A3-8ED5-3052446F9CE3";
paths = (
{
closed = 1;
nodes = (
"340 667 OFFCURVE",
"162 542 OFFCURVE",
"60 351 OFFCURVE",
"60 254 QCURVE SMOOTH",
"60 143 OFFCURVE",
"193 -6 OFFCURVE",
"299 -6 QCURVE SMOOTH",
"323 -6 OFFCURVE",
"368 -3 OFFCURVE",
"400 0 OFFCURVE",
"438 8 OFFCURVE",
"458 12 OFFCURVE",
"493 23 OFFCURVE",
"503 27 OFFCURVE",
"538 40 OFFCURVE",
"540 41 QCURVE",
"550 45 OFFCURVE",
"561 53 OFFCURVE",
"563 58 OFFCURVE",
"563 63 QCURVE SMOOTH",
"563 66 OFFCURVE",
"561 83 OFFCURVE",
"561 90 QCURVE SMOOTH",
"561 91 OFFCURVE",
"562 96 OFFCURVE",
"562 97 QCURVE",
"586 236 LINE SMOOTH",
"589 255 OFFCURVE",
"643 274 OFFCURVE",
"660 274 QCURVE SMOOTH",
"666 274 OFFCURVE",
"666 301 QCURVE",
"571 296 OFFCURVE",
"557 296 QCURVE SMOOTH",
"556 296 OFFCURVE",
"448 301 QCURVE",
"440 293 OFFCURVE",
"440 279 QCURVE SMOOTH",
"440 274 OFFCURVE",
"442 274 QCURVE SMOOTH",
"455 274 OFFCURVE",
"511 257 OFFCURVE",
"511 248 QCURVE SMOOTH",
"511 242 OFFCURVE",
"509 227 OFFCURVE",
"508 222 QCURVE",
"507 218 LINE",
"479 76 LINE SMOOTH",
"476 63 OFFCURVE",
"468 59 QCURVE SMOOTH",
"425 37 OFFCURVE",
"343 37 QCURVE SMOOTH",
"255 37 OFFCURVE",
"155 177 OFFCURVE",
"155 273 QCURVE SMOOTH",
"155 353 OFFCURVE",
"230 516 OFFCURVE",
"361 625 OFFCURVE",
"434 625 QCURVE SMOOTH",
"480 625 OFFCURVE",
"546 601 OFFCURVE",
"577 571 OFFCURVE",
"595 526 OFFCURVE",
"597 503 OFFCURVE",
"597 488 QCURVE",
"599 483 OFFCURVE",
"608 483 QCURVE SMOOTH",
"630 483 OFFCURVE",
"631 492 QCURVE",
"637 523 OFFCURVE",
"652 622 QCURVE",
"507 667 OFFCURVE",
"439 667 QCURVE SMOOTH"
);
}
);
width = 616;
}
);
note = G;
unicode = 0047;
},
{
glyphname = H;
layers = (
{
layerId = "02396921-8257-42A3-8ED5-3052446F9CE3";
paths = (
{
closed = 1;
nodes = (
"300 365 OFFCURVE",
"247 368 OFFCURVE",
"247 373 QCURVE SMOOTH",
"247 374 LINE",
"272 515 LINE SMOOTH",
"282 571 OFFCURVE",
"298 608 QCURVE SMOOTH",
"301 615 OFFCURVE",
"352 631 OFFCURVE",
"360 631 QCURVE SMOOTH",
"367 631 OFFCURVE",
"367 655 QCURVE SMOOTH",
"367 658 LINE",
"360 658 OFFCURVE",
"285 652 OFFCURVE",
"261 652 QCURVE SMOOTH",
"236 652 OFFCURVE",
"165 657 OFFCURVE",
"153 658 QCURVE",
"145 650 OFFCURVE",
"145 636 QCURVE SMOOTH",
"145 631 OFFCURVE",
"147 631 QCURVE SMOOTH",
"160 631 OFFCURVE",
"203 615 OFFCURVE",
"203 604 QCURVE SMOOTH",
"203 567 OFFCURVE",
"192 512 QCURVE SMOOTH",
"121 142 LINE SMOOTH",
"110 80 OFFCURVE",
"95 46 QCURVE SMOOTH",
"91 37 OFFCURVE",
"43 24 OFFCURVE",
"31 24 QCURVE SMOOTH",
"24 24 OFFCURVE",
"24 5 QCURVE SMOOTH",
"24 -1 OFFCURVE",
"26 -3 QCURVE",
"134 2 OFFCURVE",
"136 2 QCURVE SMOOTH",
"148 2 OFFCURVE",
"240 -3 QCURVE",
"246 9 OFFCURVE",
"246 20 QCURVE SMOOTH",
"246 24 OFFCURVE",
"244 24 QCURVE",
"230 26 LINE SMOOTH",
"217 28 OFFCURVE",
"190 41 OFFCURVE",
"190 49 QCURVE SMOOTH",
"190 84 OFFCURVE",
"201 139 QCURVE SMOOTH",
"233 304 LINE SMOOTH",
"235 316 OFFCURVE",
"379 316 QCURVE SMOOTH",
"469 316 OFFCURVE",
"516 313 OFFCURVE",
"516 308 QCURVE SMOOTH",
"516 307 LINE",
"484 142 LINE SMOOTH",
"473 80 OFFCURVE",
"458 46 QCURVE SMOOTH",
"454 37 OFFCURVE",
"406 24 OFFCURVE",
"394 24 QCURVE SMOOTH",
"387 24 OFFCURVE",
"387 5 QCURVE SMOOTH",
"387 -1 OFFCURVE",
"389 -3 QCURVE",
"496 2 OFFCURVE",
"499 2 QCURVE SMOOTH",
"510 2 OFFCURVE",
"603 -3 QCURVE",
"609 9 OFFCURVE",
"609 20 QCURVE SMOOTH",
"609 24 OFFCURVE",
"607 24 QCURVE",
"594 26 LINE SMOOTH",
"580 28 OFFCURVE",
"553 41 OFFCURVE",
"553 49 QCURVE SMOOTH",
"553 84 OFFCURVE",
"564 139 QCURVE SMOOTH",
"637 515 LINE SMOOTH",
"648 575 OFFCURVE",
"663 608 QCURVE SMOOTH",
"666 615 OFFCURVE",
"716 631 OFFCURVE",
"724 631 QCURVE SMOOTH",
"731 631 OFFCURVE",
"731 655 QCURVE SMOOTH",
"731 658 LINE",
"725 658 OFFCURVE",
"648 652 OFFCURVE",
"624 652 QCURVE SMOOTH",
"599 652 OFFCURVE",
"528 657 OFFCURVE",
"516 658 QCURVE",
"508 650 OFFCURVE",
"508 636 QCURVE SMOOTH",
"508 631 OFFCURVE",
"510 631 QCURVE SMOOTH",
"523 631 OFFCURVE",
"566 615 OFFCURVE",
"566 604 QCURVE SMOOTH",
"566 567 OFFCURVE",
"555 512 QCURVE SMOOTH",
"528 373 LINE",
"527 365 OFFCURVE",
"397 365 QCURVE SMOOTH"
);
}
);
width = 627;
}
);
note = H;
unicode = 0048;
},
{
glyphname = I;
layers = (
{
layerId = "02396921-8257-42A3-8ED5-3052446F9CE3";
paths = (
{
closed = 1;
nodes = (
"285 580 OFFCURVE",
"298 608 QCURVE SMOOTH",
"301 615 OFFCURVE",
"352 631 OFFCURVE",
"360 631 QCURVE SMOOTH",
"367 631 OFFCURVE",
"367 655 QCURVE SMOOTH",
"367 658 LINE",
"360 658 OFFCURVE",
"285 652 OFFCURVE",
"261 652 QCURVE SMOOTH",
"236 652 OFFCURVE",
"165 657 OFFCURVE",
"153 658 QCURVE",
"145 650 OFFCURVE",
"145 636 QCURVE SMOOTH",
"145 631 OFFCURVE",
"147 631 QCURVE SMOOTH",
"160 631 OFFCURVE",
"203 615 OFFCURVE",
"203 604 QCURVE SMOOTH",
"203 567 OFFCURVE",
"192 512 QCURVE SMOOTH",
"121 142 LINE SMOOTH",
"110 80 OFFCURVE",
"95 46 QCURVE SMOOTH",
"91 37 OFFCURVE",
"43 24 OFFCURVE",
"31 24 QCURVE SMOOTH",
"24 24 OFFCURVE",
"24 5 QCURVE SMOOTH",
"24 -1 OFFCURVE",
"26 -3 QCURVE",
"134 2 OFFCURVE",
"136 2 QCURVE SMOOTH",
"148 2 OFFCURVE",
"240 -3 QCURVE",
"246 9 OFFCURVE",
"246 20 QCURVE SMOOTH",
"246 24 OFFCURVE",
"244 24 QCURVE",
"230 26 LINE SMOOTH",
"217 28 OFFCURVE",
"190 41 OFFCURVE",
"190 49 QCURVE SMOOTH",
"190 84 OFFCURVE",
"201 139 QCURVE SMOOTH",
"272 515 LINE SMOOTH"
);
}
);
width = 263;
}
);
note = I;
unicode = 0049;
},
{
glyphname = J;
layers = (
{
layerId = "02396921-8257-42A3-8ED5-3052446F9CE3";
paths = (
{
closed = 1;
nodes = (
"87 -39 OFFCURVE",
"3 -183 OFFCURVE",
"-79 -209 QCURVE",
"-80 -215 LINE",
"-80 -226 OFFCURVE",
"-74 -233 QCURVE",
"-48 -233 OFFCURVE",
"8 -212 OFFCURVE",
"73 -160 OFFCURVE",
"130 -83 OFFCURVE",
"181 40 OFFCURVE",
"195 116 QCURVE SMOOTH",
"270 515 LINE SMOOTH",
"280 571 OFFCURVE",
"296 608 QCURVE SMOOTH",
"299 615 OFFCURVE",
"343 631 OFFCURVE",
"351 631 QCURVE SMOOTH",
"358 631 OFFCURVE",
"358 655 QCURVE SMOOTH",
"358 658 LINE",
"351 658 OFFCURVE",
"276 652 OFFCURVE",
"252 652 QCURVE SMOOTH",
"227 652 OFFCURVE",
"156 657 OFFCURVE",
"144 658 QCURVE",
"136 650 OFFCURVE",
"136 636 QCURVE SMOOTH",
"136 631 OFFCURVE",
"138 631 QCURVE SMOOTH",
"151 631 OFFCURVE",
"201 615 OFFCURVE",
"201 604 QCURVE SMOOTH",
"201 576 OFFCURVE",
"190 512 QCURVE SMOOTH",
"115 109 LINE SMOOTH"
);
}
);
width = 254;
}
);
note = J;
unicode = 004A;
},
{
glyphname = K;
layers = (
{
layerId = "02396921-8257-42A3-8ED5-3052446F9CE3";
paths = (
{
closed = 1;
nodes = (
"285 580 OFFCURVE",
"298 608 QCURVE SMOOTH",
"301 615 OFFCURVE",
"352 631 OFFCURVE",
"360 631 QCURVE SMOOTH",
"367 631 OFFCURVE",
"367 655 QCURVE SMOOTH",
"367 658 LINE",
"360 658 OFFCURVE",
"285 652 OFFCURVE",
"261 652 QCURVE SMOOTH",
"236 652 OFFCURVE",
"165 657 OFFCURVE",
"153 658 QCURVE",
"145 650 OFFCURVE",
"145 636 QCURVE SMOOTH",
"145 631 OFFCURVE",
"147 631 QCURVE SMOOTH",
"160 631 OFFCURVE",
"203 615 OFFCURVE",
"203 604 QCURVE SMOOTH",
"203 567 OFFCURVE",
"192 512 QCURVE SMOOTH",
"121 142 LINE SMOOTH",
"110 80 OFFCURVE",
"95 46 QCURVE SMOOTH",
"91 37 OFFCURVE",
"43 24 OFFCURVE",
"31 24 QCURVE SMOOTH",
"24 24 OFFCURVE",
"24 5 QCURVE SMOOTH",
"24 -1 OFFCURVE",
"26 -3 QCURVE",
"134 2 OFFCURVE",
"136 2 QCURVE SMOOTH",
"148 2 OFFCURVE",
"240 -3 QCURVE",
"246 9 OFFCURVE",
"246 20 QCURVE SMOOTH",
"246 24 OFFCURVE",
"244 24 QCURVE",
"230 26 LINE SMOOTH",
"217 28 OFFCURVE",
"190 41 OFFCURVE",
"190 49 QCURVE SMOOTH",
"190 84 OFFCURVE",
"201 139 QCURVE SMOOTH",
"272 515 LINE SMOOTH"
);
},
{
closed = 1;
nodes = (
"258 297 OFFCURVE",
"457 44 QCURVE SMOOTH",
"463 36 OFFCURVE",
"486 18 OFFCURVE",
"541 -2 OFFCURVE",
"573 -2 QCURVE SMOOTH",
"597 -2 OFFCURVE",
"648 1 QCURVE",
"653 11 OFFCURVE",
"653 22 QCURVE SMOOTH",
"653 28 OFFCURVE",
"651 28 QCURVE SMOOTH",
"637 28 OFFCURVE",
"563 51 OFFCURVE",
"546 72 QCURVE SMOOTH",
"342 319 LINE",
"336 327 OFFCURVE",
"336 335 QCURVE SMOOTH",
"336 342 OFFCURVE",
"341 347 QCURVE SMOOTH",
"585 591 LINE SMOOTH",
"621 627 OFFCURVE",
"691 635 QCURVE",
"697 635 OFFCURVE",
"697 658 QCURVE",
"691 658 OFFCURVE",
"614 652 OFFCURVE",
"590 652 QCURVE SMOOTH",
"575 652 OFFCURVE",
"543 654 OFFCURVE",
"504 657 OFFCURVE",
"492 658 QCURVE",
"487 650 OFFCURVE",
"487 641 QCURVE SMOOTH",
"487 635 OFFCURVE",
"490 635 QCURVE SMOOTH",
"503 635 OFFCURVE",
"538 627 OFFCURVE",
"538 618 QCURVE SMOOTH",
"538 615 OFFCURVE",
"530 602 OFFCURVE",
"521 592 OFFCURVE",
"509 579 OFFCURVE",
"508 578 QCURVE",
"438 501 OFFCURVE",
"283 354 OFFCURVE",
"237 326 QCURVE"
);
}
);
width = 642;
}
);
note = K;
unicode = 004B;
},
{
glyphname = L;
layers = (
{
layerId = "02396921-8257-42A3-8ED5-3052446F9CE3";
paths = (
{
closed = 1;
nodes = (
"273 515 LINE SMOOTH",
"286 580 OFFCURVE",
"299 608 QCURVE SMOOTH",
"302 615 OFFCURVE",
"353 631 OFFCURVE",
"361 631 QCURVE SMOOTH",
"368 631 OFFCURVE",
"368 655 QCURVE SMOOTH",
"368 658 LINE",
"361 658 OFFCURVE",
"286 652 OFFCURVE",
"262 652 QCURVE SMOOTH",
"237 652 OFFCURVE",
"166 657 OFFCURVE",
"154 658 QCURVE",
"146 650 OFFCURVE",
"146 636 QCURVE SMOOTH",
"146 631 OFFCURVE",
"148 631 QCURVE SMOOTH",
"161 631 OFFCURVE",
"204 615 OFFCURVE",
"204 604 QCURVE SMOOTH",
"204 567 OFFCURVE",
"193 512 QCURVE SMOOTH",
"122 142 LINE SMOOTH",
"110 78 OFFCURVE",
"96 49 QCURVE SMOOTH",
"92 41 OFFCURVE",
"44 29 OFFCURVE",
"31 29 QCURVE SMOOTH",
"24 29 OFFCURVE",
"24 5 QCURVE SMOOTH",
"24 -2 OFFCURVE",
"25 -3 QCURVE",
"136 2 LINE",
"176 2 OFFCURVE",
"400 -4 OFFCURVE",
"452 -4 QCURVE",
"464 32 OFFCURVE",
"534 162 QCURVE",
"530 168 OFFCURVE",
"513 168 QCURVE SMOOTH",
"501 168 OFFCURVE",
"498 162 QCURVE SMOOTH",
"479 124 OFFCURVE",
"436 69 OFFCURVE",
"420 61 QCURVE SMOOTH",
"386 44 OFFCURVE",
"299 44 QCURVE SMOOTH",
"254 44 LINE SMOOTH",
"209 44 OFFCURVE",
"192 50 OFFCURVE",
"192 65 QCURVE SMOOTH",
"192 81 OFFCURVE",
"202 139 QCURVE SMOOTH"
);
}
);
width = 498;
}
);
note = L;
unicode = 004C;
},
{
glyphname = M;
layers = (
{
layerId = "02396921-8257-42A3-8ED5-3052446F9CE3";
paths = (
{
closed = 1;
nodes = (
"456 164 LINE",
"456 162 OFFCURVE",
"453 162 QCURVE SMOOTH",
"452 162 OFFCURVE",
"452 163 QCURVE",
"385 576 OFFCURVE",
"376 658 QCURVE",
"338 656 OFFCURVE",
"281 656 QCURVE SMOOTH",
"261 656 OFFCURVE",
"187 658 QCURVE",
"181 654 OFFCURVE",
"181 638 QCURVE SMOOTH",
"181 631 OFFCURVE",
"183 631 QCURVE SMOOTH",
"194 631 OFFCURVE",
"251 615 OFFCURVE",
"251 604 QCURVE SMOOTH",
"251 591 OFFCURVE",
"247 568 OFFCURVE",
"240 539 OFFCURVE",
"238 528 QCURVE",
"129 137 LINE SMOOTH",
"114 82 OFFCURVE",
"96 48 QCURVE SMOOTH",
"92 40 OFFCURVE",
"31 24 OFFCURVE",
"19 24 QCURVE SMOOTH",
"12 24 OFFCURVE",
"12 7 QCURVE SMOOTH",
"12 -1 OFFCURVE",
"14 -3 QCURVE",
"121 2 OFFCURVE",
"124 2 QCURVE SMOOTH",
"135 2 OFFCURVE",
"228 -3 QCURVE",
"233 7 OFFCURVE",
"233 18 QCURVE SMOOTH",
"233 24 OFFCURVE",
"231 24 QCURVE SMOOTH",
"229 24 OFFCURVE",
"197 31 OFFCURVE",
"163 46 OFFCURVE",
"163 53 QCURVE SMOOTH",
"163 68 OFFCURVE",
"182 136 QCURVE SMOOTH",
"299 567 LINE",
"299 569 OFFCURVE",
"302 569 QCURVE SMOOTH",
"303 569 OFFCURVE",
"304 567 QCURVE",
"389 0 LINE",
"393 -2 OFFCURVE",
"397 -2 QCURVE SMOOTH",
"409 -2 OFFCURVE",
"437 22 OFFCURVE",
"442 31 QCURVE",
"703 563 LINE SMOOTH",
"705 567 OFFCURVE",
"706 567 QCURVE SMOOTH",
"712 567 OFFCURVE",
"712 561 QCURVE SMOOTH",
"712 552 OFFCURVE",
"709 522 QCURVE SMOOTH",
"669 132 LINE",
"668 128 OFFCURVE",
"666 103 OFFCURVE",
"665 94 OFFCURVE",
"661 75 OFFCURVE",
"658 64 OFFCURVE",
"652 49 OFFCURVE",
"649 42 QCURVE",
"645 34 OFFCURVE",
"599 24 OFFCURVE",
"586 24 QCURVE SMOOTH",
"584 24 OFFCURVE",
"579 8 OFFCURVE",
"579 2 QCURVE SMOOTH",
"579 1 OFFCURVE",
"581 -3 QCURVE",
"683 2 OFFCURVE",
"686 2 QCURVE SMOOTH",
"702 2 OFFCURVE",
"795 -3 QCURVE",
"801 3 OFFCURVE",
"801 15 QCURVE SMOOTH",
"801 24 OFFCURVE",
"799 24 QCURVE SMOOTH",
"796 24 OFFCURVE",
"777 25 OFFCURVE",
"764 27 OFFCURVE",
"749 32 OFFCURVE",
"741 46 OFFCURVE",
"741 56 QCURVE SMOOTH",
"741 83 OFFCURVE",
"747 135 QCURVE SMOOTH",
"786 517 LINE SMOOTH",
"791 560 OFFCURVE",
"800 594 OFFCURVE",
"809 606 QCURVE SMOOTH",
"816 616 OFFCURVE",
"845 630 OFFCURVE",
"858 630 QCURVE SMOOTH",
"861 630 OFFCURVE",
"865 654 OFFCURVE",
"863 659 QCURVE",
"811 655 OFFCURVE",
"776 655 QCURVE SMOOTH",
"724 655 OFFCURVE",
"697 658 QCURVE",
"634 523 LINE"
);
}
);
width = 814;
}
);
note = M;
unicode = 004D;
},
{
glyphname = N;
layers = (
{
layerId = "02396921-8257-42A3-8ED5-3052446F9CE3";
paths = (
{
closed = 1;
nodes = (
"236 654 OFFCURVE",
"158 658 QCURVE",
"151 653 OFFCURVE",
"151 638 QCURVE SMOOTH",
"151 631 OFFCURVE",
"153 631 QCURVE SMOOTH",
"169 631 OFFCURVE",
"221 618 OFFCURVE",
"221 606 QCURVE SMOOTH",
"221 560 OFFCURVE",
"212 516 QCURVE SMOOTH",
"135 144 LINE SMOOTH",
"119 70 OFFCURVE",
"108 48 QCURVE SMOOTH",
"104 40 OFFCURVE",
"43 24 OFFCURVE",
"31 24 QCURVE SMOOTH",
"24 24 OFFCURVE",
"24 5 QCURVE SMOOTH",
"24 -1 OFFCURVE",
"26 -3 QCURVE",
"134 2 OFFCURVE",
"136 2 QCURVE SMOOTH",
"148 2 OFFCURVE",
"240 -3 QCURVE",
"245 7 OFFCURVE",
"245 19 QCURVE SMOOTH",
"245 24 OFFCURVE",
"243 24 QCURVE",
"226 27 LINE SMOOTH",
"210 30 OFFCURVE",
"178 44 OFFCURVE",
"178 52 QCURVE SMOOTH",
"178 92 OFFCURVE",
"188 141 QCURVE SMOOTH",
"277 581 LINE",
"522 17 OFFCURVE",
"523 15 QCURVE SMOOTH",
"535 -8 OFFCURVE",
"549 -8 QCURVE SMOOTH",
"555 -8 OFFCURVE",
"559 -4 QCURVE",
"561 7 OFFCURVE",
"577 105 OFFCURVE",
"583 136 QCURVE SMOOTH",
"658 516 LINE SMOOTH",
"670 577 OFFCURVE",
"683 609 QCURVE SMOOTH",
"686 616 OFFCURVE",
"751 631 OFFCURVE",
"761 631 QCURVE SMOOTH",
"767 631 OFFCURVE",
"767 658 QCURVE",
"672 653 OFFCURVE",
"658 653 QCURVE SMOOTH",
"656 653 OFFCURVE",
"553 658 QCURVE",
"546 653 OFFCURVE",
"546 638 QCURVE SMOOTH",
"546 631 OFFCURVE",
"548 631 QCURVE SMOOTH",
"563 631 OFFCURVE",
"618 617 OFFCURVE",
"618 605 QCURVE SMOOTH",
"618 578 OFFCURVE",
"605 513 QCURVE SMOOTH",
"554 244 LINE SMOOTH",
"550 223 OFFCURVE",
"543 203 QCURVE",
"482 324 OFFCURVE",
"366 599 OFFCURVE",
"351 658 QCURVE",
"275 654 OFFCURVE",
"257 654 QCURVE SMOOTH"
);
}
);
width = 663;
}
);
note = N;
unicode = 004E;
},
{
glyphname = O;
layers = (
{
layerId = "02396921-8257-42A3-8ED5-3052446F9CE3";
paths = (
{
closed = 1;
nodes = (
"490 625 OFFCURVE",
"578 495 OFFCURVE",
"578 395 QCURVE SMOOTH",
"578 260 OFFCURVE",
"426 33 OFFCURVE",
"322 33 QCURVE SMOOTH",
"240 33 OFFCURVE",
"151 165 OFFCURVE",
"151 267 QCURVE SMOOTH",
"151 402 OFFCURVE",
"301 625 OFFCURVE",
"409 625 QCURVE SMOOTH"
);
},
{
closed = 1;
nodes = (
"342 667 OFFCURVE",
"170 554 OFFCURVE",
"60 363 OFFCURVE",
"60 259 QCURVE SMOOTH",
"60 143 OFFCURVE",
"189 -10 OFFCURVE",
"296 -10 QCURVE SMOOTH",
"393 -10 OFFCURVE",
"567 107 OFFCURVE",
"670 301 OFFCURVE",
"670 409 QCURVE SMOOTH",
"670 516 OFFCURVE",
"533 667 OFFCURVE",
"432 667 QCURVE SMOOTH"
);
}
);
width = 624;
}
);
note = O;
unicode = 004F;
},
{
glyphname = P;
layers = (
{
layerId = "02396921-8257-42A3-8ED5-3052446F9CE3";
paths = (
{
closed = 1;
nodes = (
"368 658 OFFCURVE",
"292 655 OFFCURVE",
"264 655 QCURVE SMOOTH",
"203 655 OFFCURVE",
"160 658 QCURVE",
"153 653 OFFCURVE",
"153 638 QCURVE SMOOTH",
"153 631 OFFCURVE",
"155 631 QCURVE SMOOTH",
"169 631 OFFCURVE",
"208 618 OFFCURVE",
"208 606 QCURVE SMOOTH",
"208 579 OFFCURVE",
"203 554 QCURVE SMOOTH",
"121 142 LINE SMOOTH",
"105 66 OFFCURVE",
"95 46 QCURVE SMOOTH",
"91 38 OFFCURVE",
"42 24 OFFCURVE",
"31 24 QCURVE SMOOTH",
"24 24 OFFCURVE",
"24 5 QCURVE SMOOTH",
"24 -1 OFFCURVE",
"26 -3 QCURVE",
"146 2 OFFCURVE",
"149 2 QCURVE SMOOTH",
"158 2 OFFCURVE",
"251 -3 QCURVE",
"257 3 OFFCURVE",
"257 16 QCURVE SMOOTH",
"257 24 OFFCURVE",
"255 24 QCURVE",
"238 26 LINE SMOOTH",
"222 28 OFFCURVE",
"190 41 OFFCURVE",
"190 49 QCURVE SMOOTH",
"190 83 OFFCURVE",
"199 128 QCURVE SMOOTH",
"292 601 LINE SMOOTH",
"294 612 OFFCURVE",
"325 621 OFFCURVE",
"372 621 QCURVE SMOOTH",
"480 621 OFFCURVE",
"480 516 QCURVE SMOOTH",
"480 428 OFFCURVE",
"365 328 OFFCURVE",
"297 328 QCURVE SMOOTH",
"287 328 OFFCURVE",
"273 330 QCURVE",
"267 324 OFFCURVE",
"267 314 QCURVE SMOOTH",
"267 311 OFFCURVE",
"269 304 QCURVE",
"293 295 OFFCURVE",
"339 295 QCURVE SMOOTH",
"424 295 OFFCURVE",
"565 418 OFFCURVE",
"565 504 QCURVE SMOOTH",
"565 571 OFFCURVE",
"453 658 OFFCURVE",
"395 658 QCURVE SMOOTH"
);
}
);
width = 505;
}
);
note = P;
unicode = 0050;
},
{
glyphname = Q;
layers = (
{
layerId = "02396921-8257-42A3-8ED5-3052446F9CE3";
paths = (
{
closed = 1;
nodes = (
"490 625 OFFCURVE",
"578 495 OFFCURVE",
"578 395 QCURVE SMOOTH",
"578 260 OFFCURVE",
"426 33 OFFCURVE",
"322 33 QCURVE SMOOTH",
"240 33 OFFCURVE",
"151 165 OFFCURVE",
"151 267 QCURVE SMOOTH",
"151 402 OFFCURVE",
"301 625 OFFCURVE",
"409 625 QCURVE SMOOTH"
);
},
{
closed = 1;
nodes = (
"342 667 OFFCURVE",
"170 554 OFFCURVE",
"60 363 OFFCURVE",
"60 259 QCURVE SMOOTH",
"60 158 OFFCURVE",
"161 12 OFFCURVE",
"247 -5 QCURVE",
"156 -26 OFFCURVE",
"141 -27 QCURVE",
"136 -29 OFFCURVE",
"123 -48 OFFCURVE",
"123 -52 QCURVE",
"204 -73 OFFCURVE",
"370 -145 OFFCURVE",
"491 -186 OFFCURVE",
"621 -186 OFFCURVE",
"744 -119 OFFCURVE",
"762 -95 QCURVE",
"762 -82 OFFCURVE",
"739 -71 QCURVE",
"717 -90 OFFCURVE",
"630 -133 OFFCURVE",
"593 -133 QCURVE SMOOTH",
"526 -133 OFFCURVE",
"306 -39 OFFCURVE",
"276 -35 QCURVE",
"397 -12 OFFCURVE",
"490 56 QCURVE SMOOTH",
"571 115 OFFCURVE",
"670 305 OFFCURVE",
"670 409 QCURVE SMOOTH",
"670 516 OFFCURVE",
"533 667 OFFCURVE",
"432 667 QCURVE SMOOTH"
);
}
);
width = 624;
}
);
note = Q;
unicode = 0051;
},
{
glyphname = R;
layers = (
{
layerId = "02396921-8257-42A3-8ED5-3052446F9CE3";
paths = (
{
closed = 1;
nodes = (
"361 658 OFFCURVE",
"292 655 OFFCURVE",
"264 655 QCURVE SMOOTH",
"203 655 OFFCURVE",
"160 658 QCURVE",
"153 653 OFFCURVE",
"153 638 QCURVE SMOOTH",
"153 631 OFFCURVE",
"155 631 QCURVE SMOOTH",
"168 631 OFFCURVE",
"208 618 OFFCURVE",
"208 606 QCURVE SMOOTH",
"208 582 OFFCURVE",
"203 556 QCURVE SMOOTH",
"121 142 LINE SMOOTH",
"106 73 OFFCURVE",
"95 46 QCURVE SMOOTH",
"91 37 OFFCURVE",
"43 24 OFFCURVE",
"31 24 QCURVE SMOOTH",
"24 24 OFFCURVE",
"24 5 QCURVE SMOOTH",
"24 -1 OFFCURVE",
"26 -3 QCURVE",
"133 2 OFFCURVE",
"136 2 QCURVE SMOOTH",
"147 2 OFFCURVE",
"240 -3 QCURVE",
"246 9 OFFCURVE",
"246 20 QCURVE SMOOTH",
"246 24 OFFCURVE",
"244 24 QCURVE",
"230 26 LINE SMOOTH",
"217 28 OFFCURVE",
"190 41 OFFCURVE",
"190 49 QCURVE SMOOTH",
"190 84 OFFCURVE",
"201 139 QCURVE SMOOTH",
"230 294 LINE SMOOTH",
"232 306 OFFCURVE",
"250 311 OFFCURVE",
"282 311 QCURVE SMOOTH",
"321 311 OFFCURVE",
"326 297 QCURVE SMOOTH",
"381 126 OFFCURVE",
"467 -4 OFFCURVE",
"533 -4 QCURVE SMOOTH",
"566 -4 OFFCURVE",
"591 1 QCURVE",
"597 10 OFFCURVE",
"590 29 QCURVE",
"588 29 OFFCURVE",
"574 29 OFFCURVE",
"570 29 OFFCURVE",
"557 30 OFFCURVE",
"551 33 OFFCURVE",
"539 37 OFFCURVE",
"530 44 OFFCURVE",
"519 53 OFFCURVE",
"509 66 OFFCURVE",
"504 74 QCURVE SMOOTH",
"481 109 OFFCURVE",
"421 249 OFFCURVE",
"402 315 QCURVE",
"398 324 OFFCURVE",
"407 327 QCURVE",
"421 334 OFFCURVE",
"455 353 OFFCURVE",
"504 390 OFFCURVE",
"541 431 OFFCURVE",
"568 491 OFFCURVE",
"568 522 QCURVE SMOOTH",
"568 560 OFFCURVE",
"532 616 OFFCURVE",
"475 645 OFFCURVE",
"417 658 OFFCURVE",
"389 658 QCURVE SMOOTH"
);
},
{
closed = 1;
nodes = (
"483 621 OFFCURVE",
"483 527 QCURVE SMOOTH",
"483 470 OFFCURVE",
"422 387 OFFCURVE",
"338 352 OFFCURVE",
"292 352 QCURVE SMOOTH",
"245 352 OFFCURVE",
"245 367 QCURVE SMOOTH",
"245 369 LINE",
"293 602 LINE",
"295 615 OFFCURVE",
"322 621 OFFCURVE",
"373 621 QCURVE SMOOTH"
);
}
);
width = 593;
}
);
note = R;
unicode = 0052;
},
{
glyphname = S;
layers = (
{
layerId = "02396921-8257-42A3-8ED5-3052446F9CE3";
paths = (
{
closed = 1;
nodes = (
"355 108 OFFCURVE",
"270 35 OFFCURVE",
"217 35 QCURVE SMOOTH",
"178 35 OFFCURVE",
"123 64 OFFCURVE",
"98 112 OFFCURVE",
"89 154 OFFCURVE",
"89 175 QCURVE",
"79 183 OFFCURVE",
"70 183 QCURVE SMOOTH",
"51 183 OFFCURVE",
"51 176 QCURVE SMOOTH",
"51 174 OFFCURVE",
"53 116 OFFCURVE",
"53 82 OFFCURVE",
"49 18 QCURVE",
"154 -6 OFFCURVE",
"208 -6 QCURVE SMOOTH",
"263 -6 OFFCURVE",
"355 35 OFFCURVE",
"411 98 OFFCURVE",
"441 168 OFFCURVE",
"441 199 QCURVE SMOOTH",
"441 234 OFFCURVE",
"401 297 OFFCURVE",
"360 331 OFFCURVE",
"268 395 OFFCURVE",
"249 410 QCURVE SMOOTH",
"200 449 OFFCURVE",
"200 502 QCURVE SMOOTH",
"200 554 OFFCURVE",
"270 623 OFFCURVE",
"327 623 QCURVE SMOOTH",
"367 623 OFFCURVE",
"428 557 OFFCURVE",
"428 510 QCURVE SMOOTH",
"428 499 OFFCURVE",
"430 498 QCURVE",
"438 492 OFFCURVE",
"453 492 QCURVE SMOOTH",
"456 492 OFFCURVE",
"459 502 OFFCURVE",
"462 531 QCURVE SMOOTH",
"468 587 OFFCURVE",
"475 642 QCURVE",
"454 644 OFFCURVE",
"372 666 OFFCURVE",
"346 666 QCURVE SMOOTH",
"253 666 OFFCURVE",
"122 548 OFFCURVE",
"122 458 QCURVE SMOOTH",
"122 421 OFFCURVE",
"170 355 OFFCURVE",
"239 306 OFFCURVE",
"307 259 OFFCURVE",
"355 202 OFFCURVE",
"355 172 QCURVE SMOOTH"
);
}
);
width = 435;
}
);
note = S;
unicode = 0053;
},
{
glyphname = T;
layers = (
{
layerId = "02396921-8257-42A3-8ED5-3052446F9CE3";
paths = (
{
closed = 1;
nodes = (
"274 80 OFFCURVE",
"259 46 QCURVE SMOOTH",
"255 37 OFFCURVE",
"207 24 OFFCURVE",
"195 24 QCURVE SMOOTH",
"188 24 OFFCURVE",
"188 5 QCURVE SMOOTH",
"188 -1 OFFCURVE",
"190 -3 QCURVE",
"298 2 OFFCURVE",
"300 2 QCURVE SMOOTH",
"312 2 OFFCURVE",
"404 -3 QCURVE",
"410 9 OFFCURVE",
"410 20 QCURVE SMOOTH",
"410 24 OFFCURVE",
"408 24 QCURVE",
"394 26 LINE SMOOTH",
"381 28 OFFCURVE",
"354 41 OFFCURVE",
"354 49 QCURVE SMOOTH",
"354 84 OFFCURVE",
"365 139 QCURVE SMOOTH",
"435 500 LINE SMOOTH",
"449 570 OFFCURVE",
"463 600 QCURVE SMOOTH",
"470 615 OFFCURVE",
"569 615 QCURVE SMOOTH",
"616 615 OFFCURVE",
"655 580 OFFCURVE",
"655 526 QCURVE SMOOTH",
"655 521 OFFCURVE",
"664 521 QCURVE SMOOTH",
"678 521 OFFCURVE",
"687 528 QCURVE",
"697 671 LINE",
"653 660 OFFCURVE",
"631 660 QCURVE SMOOTH",
"592 660 OFFCURVE",
"464 654 OFFCURVE",
"386 654 OFFCURVE",
"262 660 OFFCURVE",
"223 660 QCURVE SMOOTH",
"198 660 OFFCURVE",
"160 671 QCURVE",
"116 528 LINE",
"123 521 OFFCURVE",
"136 521 QCURVE SMOOTH",
"144 521 OFFCURVE",
"146 526 QCURVE",
"171 582 OFFCURVE",
"215 615 OFFCURVE",
"268 615 QCURVE SMOOTH",
"316 615 OFFCURVE",
"362 608 OFFCURVE",
"367 601 OFFCURVE",
"367 594 QCURVE SMOOTH",
"367 566 OFFCURVE",
"354 497 QCURVE SMOOTH",
"285 142 LINE SMOOTH"
);
}
);
width = 601;
}
);
note = T;
unicode = 0054;
},
{
glyphname = U;
layers = (
{
layerId = "02396921-8257-42A3-8ED5-3052446F9CE3";
paths = (
{
closed = 1;
nodes = (
"134 312 LINE SMOOTH",
"120 243 OFFCURVE",
"120 206 QCURVE SMOOTH",
"120 106 OFFCURVE",
"217 0 OFFCURVE",
"304 0 QCURVE SMOOTH",
"426 0 OFFCURVE",
"556 117 OFFCURVE",
"587 276 QCURVE SMOOTH",
"632 510 LINE SMOOTH",
"651 598 OFFCURVE",
"659 608 QCURVE",
"664 615 OFFCURVE",
"726 631 OFFCURVE",
"734 631 QCURVE SMOOTH",
"741 631 OFFCURVE",
"741 658 QCURVE",
"728 657 OFFCURVE",
"688 654 OFFCURVE",
"653 652 OFFCURVE",
"634 652 QCURVE SMOOTH",
"610 652 OFFCURVE",
"538 657 OFFCURVE",
"526 658 QCURVE",
"519 653 OFFCURVE",
"519 637 QCURVE SMOOTH",
"519 631 OFFCURVE",
"521 631 QCURVE SMOOTH",
"538 631 OFFCURVE",
"596 614 OFFCURVE",
"596 602 QCURVE SMOOTH",
"596 582 OFFCURVE",
"584 512 QCURVE SMOOTH",
"540 274 LINE SMOOTH",
"498 49 OFFCURVE",
"335 49 QCURVE SMOOTH",
"270 49 OFFCURVE",
"204 136 OFFCURVE",
"204 213 QCURVE SMOOTH",
"204 254 OFFCURVE",
"212 298 QCURVE SMOOTH",
"253 515 LINE SMOOTH",
"266 580 OFFCURVE",
"279 608 QCURVE SMOOTH",
"282 615 OFFCURVE",
"333 631 OFFCURVE",
"341 631 QCURVE SMOOTH",
"348 631 OFFCURVE",
"348 655 QCURVE SMOOTH",
"348 658 LINE",
"341 658 OFFCURVE",
"266 652 OFFCURVE",
"242 652 QCURVE SMOOTH",
"217 652 OFFCURVE",
"146 657 OFFCURVE",
"134 658 QCURVE",
"126 650 OFFCURVE",
"126 636 QCURVE SMOOTH",
"126 631 OFFCURVE",
"128 631 QCURVE SMOOTH",
"141 631 OFFCURVE",
"184 615 OFFCURVE",
"184 604 QCURVE SMOOTH",
"184 569 OFFCURVE",
"173 512 QCURVE SMOOTH"
);
}
);
width = 631;
}
);
note = U;
unicode = 0055;
},
{
glyphname = V;
layers = (
{
layerId = "02396921-8257-42A3-8ED5-3052446F9CE3";
paths = (
{
closed = 1;
nodes = (
"209 654 OFFCURVE",
"127 658 QCURVE",
"120 653 OFFCURVE",
"120 636 QCURVE SMOOTH",
"120 631 OFFCURVE",
"122 631 QCURVE SMOOTH",
"133 631 OFFCURVE",
"168 617 OFFCURVE",
"173 606 QCURVE SMOOTH",
"182 585 OFFCURVE",
"188 551 QCURVE SMOOTH",
"287 -8 LINE",
"291 -14 OFFCURVE",
"296 -14 QCURVE SMOOTH",
"315 -14 OFFCURVE",
"334 19 QCURVE SMOOTH",
"660 579 LINE SMOOTH",
"675 605 OFFCURVE",
"723 631 OFFCURVE",
"742 631 QCURVE SMOOTH",
"748 631 OFFCURVE",
"750 652 QCURVE",
"750 658 LINE",
"674 654 OFFCURVE",
"651 654 QCURVE SMOOTH",
"630 654 OFFCURVE",
"558 658 QCURVE",
"551 653 OFFCURVE",
"551 636 QCURVE SMOOTH",
"551 631 OFFCURVE",
"553 631 QCURVE SMOOTH",
"573 631 OFFCURVE",
"607 615 OFFCURVE",
"607 602 QCURVE SMOOTH",
"607 575 OFFCURVE",
"595 554 QCURVE SMOOTH",
"355 143 LINE",
"278 562 LINE SMOOTH",
"274 581 OFFCURVE",
"274 594 QCURVE SMOOTH",
"274 614 OFFCURVE",
"299 631 OFFCURVE",
"334 631 QCURVE SMOOTH",
"341 631 OFFCURVE",
"341 655 QCURVE SMOOTH",
"341 658 OFFCURVE",
"341 658 QCURVE",
"265 654 OFFCURVE",
"232 654 QCURVE SMOOTH"
);
}
);
width = 640;
}
);
note = V;
unicode = 0056;
},
{
glyphname = W;
layers = (
{
layerId = "02396921-8257-42A3-8ED5-3052446F9CE3";
paths = (
{
closed = 1;
nodes = (
"194 652 OFFCURVE",
"135 657 OFFCURVE",
"120 658 QCURVE",
"113 653 OFFCURVE",
"113 636 QCURVE SMOOTH",
"113 631 OFFCURVE",
"115 631 QCURVE SMOOTH",
"125 631 OFFCURVE",
"158 616 OFFCURVE",
"163 606 QCURVE SMOOTH",
"181 570 OFFCURVE",
"198 510 QCURVE SMOOTH",
"340 -8 LINE",
"343 -13 OFFCURVE",
"348 -13 QCURVE SMOOTH",
"369 -13 OFFCURVE",
"390 19 QCURVE SMOOTH",
"536 245 LINE",
"606 -8 LINE",
"608 -13 OFFCURVE",
"614 -13 QCURVE SMOOTH",
"638 -13 OFFCURVE",
"657 19 QCURVE SMOOTH",
"938 498 LINE SMOOTH",
"975 560 OFFCURVE",
"1008 598 QCURVE SMOOTH",
"1016 607 OFFCURVE",
"1065 631 OFFCURVE",
"1081 631 QCURVE SMOOTH",
"1088 631 OFFCURVE",
"1088 658 QCURVE",
"1079 658 OFFCURVE",
"1016 652 OFFCURVE",
"988 652 QCURVE SMOOTH",
"980 652 OFFCURVE",
"893 658 QCURVE",
"886 653 OFFCURVE",
"886 636 QCURVE SMOOTH",
"886 631 OFFCURVE",
"888 631 QCURVE SMOOTH",
"899 631 OFFCURVE",
"934 612 OFFCURVE",
"934 593 QCURVE SMOOTH",
"934 578 OFFCURVE",
"909 534 QCURVE SMOOTH",
"666 106 LINE",
"598 344 LINE",
"698 498 LINE SMOOTH",
"749 577 OFFCURVE",
"768 598 QCURVE SMOOTH",
"776 607 OFFCURVE",
"825 631 OFFCURVE",
"841 631 QCURVE SMOOTH",
"848 631 OFFCURVE",
"848 658 QCURVE",
"839 658 OFFCURVE",
"776 652 OFFCURVE",
"748 652 QCURVE SMOOTH",
"740 652 OFFCURVE",
"653 658 QCURVE",
"646 653 OFFCURVE",
"646 636 QCURVE SMOOTH",
"646 631 OFFCURVE",
"648 631 QCURVE SMOOTH",
"659 631 OFFCURVE",
"694 612 OFFCURVE",
"694 593 QCURVE SMOOTH",
"694 575 OFFCURVE",
"669 534 QCURVE SMOOTH",
"584 396 LINE",
"539 557 LINE SMOOTH",
"533 581 OFFCURVE",
"533 594 QCURVE SMOOTH",
"533 609 OFFCURVE",
"560 631 OFFCURVE",
"584 631 QCURVE SMOOTH",
"587 631 OFFCURVE",
"592 648 OFFCURVE",
"592 655 QCURVE SMOOTH",
"592 658 LINE",
"582 657 OFFCURVE",
"516 652 OFFCURVE",
"492 652 QCURVE SMOOTH",
"467 652 OFFCURVE",
"399 657 OFFCURVE",
"386 658 QCURVE",
"378 652 OFFCURVE",
"378 636 QCURVE SMOOTH",
"378 631 OFFCURVE",
"380 631 QCURVE SMOOTH",
"390 631 OFFCURVE",
"423 616 OFFCURVE",
"429 606 QCURVE SMOOTH",
"440 588 OFFCURVE",
"448 560 QCURVE SMOOTH",
"522 295 LINE",
"401 112 LINE",
"274 557 LINE SMOOTH",
"267 585 OFFCURVE",
"267 594 QCURVE SMOOTH",
"267 609 OFFCURVE",
"295 631 OFFCURVE",
"319 631 QCURVE SMOOTH",
"326 631 OFFCURVE",
"326 655 QCURVE SMOOTH",
"326 658 LINE",
"313 657 OFFCURVE",
"272 654 OFFCURVE",
"236 652 OFFCURVE",
"218 652 QCURVE SMOOTH"
);
}
);
width = 973;
}
);
note = W;
unicode = 0057;
},
{
glyphname = X;
layers = (
{
layerId = "02396921-8257-42A3-8ED5-3052446F9CE3";
paths = (
{
closed = 1;
nodes = (
"262 652 OFFCURVE",
"184 657 OFFCURVE",
"172 658 QCURVE",
"165 653 OFFCURVE",
"165 636 QCURVE SMOOTH",
"165 631 OFFCURVE",
"167 631 QCURVE SMOOTH",
"176 631 OFFCURVE",
"214 617 OFFCURVE",
"223 609 QCURVE SMOOTH",
"242 593 OFFCURVE",
"260 563 OFFCURVE",
"278 520 QCURVE SMOOTH",
"356 336 LINE",
"356 333 OFFCURVE",
"105 54 QCURVE SMOOTH",
"94 42 OFFCURVE",
"50 27 OFFCURVE",
"23 24 OFFCURVE",
"15 24 QCURVE SMOOTH",
"10 24 OFFCURVE",
"10 1 QCURVE SMOOTH",
"10 -2 OFFCURVE",
"11 -3 QCURVE",
"30 -2 OFFCURVE",
"127 -2 QCURVE SMOOTH",
"213 -2 OFFCURVE",
"230 -3 QCURVE",
"235 2 OFFCURVE",
"235 15 QCURVE SMOOTH",
"235 24 OFFCURVE",
"231 24 QCURVE SMOOTH",
"176 24 OFFCURVE",
"176 54 QCURVE SMOOTH",
"176 62 OFFCURVE",
"275 180 OFFCURVE",
"373 291 OFFCURVE",
"375 291 OFFCURVE",
"466 74 QCURVE SMOOTH",
"468 69 OFFCURVE",
"468 56 QCURVE SMOOTH",
"468 42 OFFCURVE",
"425 24 OFFCURVE",
"413 24 QCURVE SMOOTH",
"406 24 OFFCURVE",
"406 5 QCURVE SMOOTH",
"406 -1 OFFCURVE",
"408 -3 QCURVE",
"540 2 OFFCURVE",
"542 2 QCURVE SMOOTH",
"560 2 OFFCURVE",
"653 -3 QCURVE",
"656 3 OFFCURVE",
"656 19 QCURVE SMOOTH",
"656 24 OFFCURVE",
"654 24 QCURVE SMOOTH",
"639 24 OFFCURVE",
"578 45 OFFCURVE",
"564 69 QCURVE SMOOTH",
"556 83 OFFCURVE",
"494 226 OFFCURVE",
"440 354 OFFCURVE",
"440 355 QCURVE SMOOTH",
"440 357 OFFCURVE",
"659 600 QCURVE SMOOTH",
"671 613 OFFCURVE",
"743 631 OFFCURVE",
"755 631 QCURVE SMOOTH",
"762 631 OFFCURVE",
"762 655 QCURVE SMOOTH",
"762 658 LINE",
"749 657 OFFCURVE",
"709 654 OFFCURVE",
"672 652 OFFCURVE",
"651 652 QCURVE SMOOTH",
"642 652 OFFCURVE",
"540 658 QCURVE",
"533 653 OFFCURVE",
"533 636 QCURVE SMOOTH",
"533 631 OFFCURVE",
"535 631 QCURVE SMOOTH",
"555 631 OFFCURVE",
"593 613 OFFCURVE",
"593 600 QCURVE SMOOTH",
"593 589 OFFCURVE",
"508 489 OFFCURVE",
"424 399 OFFCURVE",
"422 399 QCURVE SMOOTH",
"421 399 OFFCURVE",
"347 567 QCURVE",
"342 580 OFFCURVE",
"342 591 QCURVE SMOOTH",
"342 605 OFFCURVE",
"372 625 OFFCURVE",
"398 631 OFFCURVE",
"406 631 QCURVE SMOOTH",
"412 631 OFFCURVE",
"412 654 QCURVE SMOOTH",
"412 658 LINE",
"298 652 OFFCURVE",
"289 652 QCURVE SMOOTH"
);
}
);
width = 656;
}
);
note = X;
unicode = 0058;
},
{
glyphname = Y;
layers = (
{
layerId = "02396921-8257-42A3-8ED5-3052446F9CE3";
paths = (
{
closed = 1;
nodes = (
"217 652 OFFCURVE",
"139 657 OFFCURVE",
"127 658 QCURVE",
"120 653 OFFCURVE",
"120 636 QCURVE SMOOTH",
"120 631 OFFCURVE",
"122 631 QCURVE SMOOTH",
"130 631 OFFCURVE",
"168 616 OFFCURVE",
"178 609 QCURVE SMOOTH",
"202 591 OFFCURVE",
"217 545 QCURVE SMOOTH",
"238 480 LINE SMOOTH",
"260 415 OFFCURVE",
"302 282 OFFCURVE",
"301 278 QCURVE",
"275 136 LINE SMOOTH",
"262 67 OFFCURVE",
"250 46 QCURVE",
"245 38 OFFCURVE",
"197 24 OFFCURVE",
"186 24 QCURVE SMOOTH",
"179 24 OFFCURVE",
"179 4 QCURVE SMOOTH",
"179 -2 OFFCURVE",
"180 -3 QCURVE",
"288 2 OFFCURVE",
"291 2 QCURVE SMOOTH",
"302 2 OFFCURVE",
"395 -3 QCURVE",
"401 9 OFFCURVE",
"401 20 QCURVE SMOOTH",
"401 24 OFFCURVE",
"399 24 QCURVE",
"386 26 LINE SMOOTH",
"372 28 OFFCURVE",
"345 41 OFFCURVE",
"345 49 QCURVE SMOOTH",
"345 84 OFFCURVE",
"356 139 QCURVE SMOOTH",
"384 285 LINE SMOOTH",
"386 295 OFFCURVE",
"603 588 OFFCURVE",
"627 612 OFFCURVE",
"686 631 OFFCURVE",
"696 631 QCURVE SMOOTH",
"703 631 OFFCURVE",
"703 653 QCURVE SMOOTH",
"703 656 OFFCURVE",
"702 658 QCURVE",
"588 652 OFFCURVE",
"583 652 QCURVE SMOOTH",
"563 652 OFFCURVE",
"499 658 OFFCURVE",
"491 658 QCURVE",
"484 653 OFFCURVE",
"484 637 QCURVE SMOOTH",
"484 631 OFFCURVE",
"486 631 QCURVE SMOOTH",
"506 631 OFFCURVE",
"547 613 OFFCURVE",
"548 600 QCURVE",
"548 595 OFFCURVE",
"528 563 OFFCURVE",
"484 503 OFFCURVE",
"449 456 OFFCURVE",
"384 372 OFFCURVE",
"371 355 QCURVE",
"302 567 LINE SMOOTH",
"298 579 OFFCURVE",
"298 589 QCURVE SMOOTH",
"298 610 OFFCURVE",
"346 631 OFFCURVE",
"361 631 QCURVE SMOOTH",
"368 631 OFFCURVE",
"368 653 QCURVE SMOOTH",
"368 658 LINE",
"254 652 OFFCURVE",
"244 652 QCURVE SMOOTH"
);
}
);
width = 593;
}
);
note = Y;
unicode = 0059;
},
{
glyphname = Z;
layers = (
{
layerId = "02396921-8257-42A3-8ED5-3052446F9CE3";
paths = (
{
closed = 1;
nodes = (
"307 656 OFFCURVE",
"185 662 OFFCURVE",
"176 665 QCURVE",
"133 524 OFFCURVE",
"120 489 QCURVE",
"129 480 OFFCURVE",
"147 480 QCURVE SMOOTH",
"154 480 OFFCURVE",
"157 484 QCURVE",
"189 554 OFFCURVE",
"245 606 OFFCURVE",
"309 607 QCURVE SMOOTH",
"310 607 OFFCURVE",
"332 607 OFFCURVE",
"368 608 OFFCURVE",
"408 608 OFFCURVE",
"451 608 OFFCURVE",
"467 608 QCURVE SMOOTH",
"510 608 LINE",
"44 43 LINE SMOOTH",
"36 33 OFFCURVE",
"36 17 QCURVE SMOOTH",
"36 7 OFFCURVE",
"40 0 QCURVE",
"501 0 LINE",
"523 68 OFFCURVE",
"558 154 QCURVE",
"554 160 OFFCURVE",
"544 160 QCURVE SMOOTH",
"520 160 OFFCURVE",
"517 152 QCURVE",
"517 151 OFFCURVE",
"507 130 OFFCURVE",
"504 123 OFFCURVE",
"492 102 OFFCURVE",
"482 92 OFFCURVE",
"466 74 OFFCURVE",
"448 66 OFFCURVE",
"426 55 OFFCURVE",
"397 51 OFFCURVE",
"381 51 QCURVE SMOOTH",
"171 51 LINE SMOOTH",
"161 51 OFFCURVE",
"161 67 OFFCURVE",
"169 76 QCURVE",
"282 214 LINE SMOOTH",
"396 351 OFFCURVE",
"624 629 OFFCURVE",
"625 633 QCURVE",
"626 636 OFFCURVE",
"624 665 OFFCURVE",
"622 666 QCURVE",
"596 664 OFFCURVE",
"539 659 OFFCURVE",
"513 657 OFFCURVE",
"465 655 OFFCURVE",
"431 655 QCURVE SMOOTH",
"369 655 OFFCURVE",
"323 656 QCURVE SMOOTH"
);
}
);
width = 546;
}
);
note = Z;
unicode = 005A;
},
{
glyphname = bracketleft;
layers = (
{
layerId = "02396921-8257-42A3-8ED5-3052446F9CE3";
paths = (
{
closed = 1;
nodes = (
"160 740 OFFCURVE",
"149 728 OFFCURVE",
"145 719 OFFCURVE",
"145 717 QCURVE",
"-9 -79 LINE",
"-9 -85 LINE SMOOTH",
"-9 -102 OFFCURVE",
"4 -102 QCURVE SMOOTH",
"80 -102 OFFCURVE",
"146 -114 QCURVE",
"148 -114 LINE",
"149 -113 OFFCURVE",
"153 -107 OFFCURVE",
"154 -102 QCURVE",
"155 -94 OFFCURVE",
"155 -85 OFFCURVE",
"152 -79 OFFCURVE",
"150 -76 OFFCURVE",
"148 -75 QCURVE SMOOTH",
"146 -74 LINE",
"134 -70 LINE SMOOTH",
"123 -66 OFFCURVE",
"78 -57 OFFCURVE",
"56 -57 QCURVE SMOOTH",
"50 -57 OFFCURVE",
"51 -49 QCURVE",
"195 687 LINE",
"196 689 LINE",
"196 691 OFFCURVE",
"200 695 OFFCURVE",
"203 695 QCURVE SMOOTH",
"253 695 OFFCURVE",
"299 706 QCURVE",
"301 708 LINE",
"303 709 OFFCURVE",
"308 713 OFFCURVE",
"315 720 OFFCURVE",
"320 728 OFFCURVE",
"323 738 OFFCURVE",
"323 743 QCURVE SMOOTH",
"323 749 OFFCURVE",
"318 749 QCURVE",
"266 744 LINE SMOOTH",
"213 740 OFFCURVE",
"168 740 QCURVE SMOOTH"
);
}
);
width = 307;
}
);
note = bracketleft;
unicode = 005B;
},
{
glyphname = backslash;
layers = (
{
layerId = "02396921-8257-42A3-8ED5-3052446F9CE3";
paths = (
{
closed = 1;
nodes = (
"18 761 OFFCURVE",
"6 755 QCURVE",
"142 -37 LINE",
"165 -39 LINE",
"177 -38 OFFCURVE",
"194 -11 OFFCURVE",
"194 5 QCURVE SMOOTH",
"194 10 OFFCURVE",
"193 13 QCURVE",
"67 739 LINE",
"65 761 OFFCURVE",
"26 761 QCURVE SMOOTH"
);
}
);
width = 212;
}
);
note = backslash;
unicode = 005C;
},
{
glyphname = bracketright;
layers = (
{
layerId = "02396921-8257-42A3-8ED5-3052446F9CE3";
paths = (
{
closed = 1;
nodes = (
"142 749 OFFCURVE",
"142 728 QCURVE SMOOTH",
"142 718 OFFCURVE",
"154 706 QCURVE",
"166 703 LINE SMOOTH",
"178 700 OFFCURVE",
"224 695 OFFCURVE",
"246 695 QCURVE SMOOTH",
"252 695 OFFCURVE",
"251 687 QCURVE",
"108 -49 LINE",
"107 -51 LINE SMOOTH",
"106 -53 OFFCURVE",
"102 -57 OFFCURVE",
"99 -57 QCURVE SMOOTH",
"52 -57 OFFCURVE",
"3 -74 QCURVE",
"-17 -94 OFFCURVE",
"-17 -105 QCURVE SMOOTH",
"-17 -111 OFFCURVE",
"-13 -114 QCURVE",
"7 -111 LINE SMOOTH",
"27 -108 OFFCURVE",
"100 -102 OFFCURVE",
"134 -102 QCURVE SMOOTH",
"142 -102 OFFCURVE",
"153 -90 OFFCURVE",
"156 -81 OFFCURVE",
"156 -79 QCURVE",
"310 717 LINE",
"311 720 OFFCURVE",
"311 725 QCURVE SMOOTH",
"311 740 OFFCURVE",
"298 740 QCURVE SMOOTH",
"276 740 OFFCURVE",
"231 742 OFFCURVE",
"195 744 OFFCURVE",
"167 747 OFFCURVE",
"158 748 QCURVE SMOOTH",
"150 749 OFFCURVE",
"150 749 QCURVE SMOOTH"
);
}
);
width = 299;
}
);
note = bracketright;
unicode = 005D;
},
{
glyphname = asciicircum;
layers = (
{
layerId = "02396921-8257-42A3-8ED5-3052446F9CE3";
paths = (
{
closed = 1;
nodes = (
"13 475 OFFCURVE",
"21 475 QCURVE SMOOTH",
"31 475 OFFCURVE",
"139 558 OFFCURVE",
"172 597 QCURVE",
"188 568 OFFCURVE",
"265 475 OFFCURVE",
"279 475 QCURVE SMOOTH",
"284 475 OFFCURVE",
"294 492 OFFCURVE",
"296 500 QCURVE",
"296 502 OFFCURVE",
"273 533 OFFCURVE",
"243 575 OFFCURVE",
"237 588 QCURVE SMOOTH",
"221 621 OFFCURVE",
"202 677 OFFCURVE",
"196 690 OFFCURVE",
"186 690 QCURVE SMOOTH",
"184 690 OFFCURVE",
"181 689 OFFCURVE",
"179 687 OFFCURVE",
"178 685 OFFCURVE",
"175 679 OFFCURVE",
"174 677 QCURVE",
"143 628 OFFCURVE",
"67 546 OFFCURVE",
"15 503 OFFCURVE",
"13 499 QCURVE"
);
}
);
width = 303;
}
);
note = asciicircum;
unicode = 005E;
},
{
glyphname = underscore;
layers = (
{
layerId = "02396921-8257-42A3-8ED5-3052446F9CE3";
paths = (
{
closed = 1;
nodes = (
"9 -43 OFFCURVE",
"14 -43 QCURVE SMOOTH",
"429 -43 LINE",
"435 -37 OFFCURVE",
"435 -37 QCURVE",
"453 3 OFFCURVE",
"453 9 QCURVE SMOOTH",
"453 13 OFFCURVE",
"447 13 QCURVE SMOOTH",
"33 13 LINE SMOOTH",
"28 13 OFFCURVE",
"9 -32 OFFCURVE",
"9 -37 QCURVE SMOOTH"
);
}
);
width = 485;
}
);
note = underscore;
unicode = 005F;
},
{
glyphname = grave;
layers = (
{
layerId = "02396921-8257-42A3-8ED5-3052446F9CE3";
paths = (
{
closed = 1;
nodes = (
"20 632 OFFCURVE",
"127 527 OFFCURVE",
"138 527 QCURVE SMOOTH",
"143 527 OFFCURVE",
"152 537 OFFCURVE",
"152 542 QCURVE",
"143 566 LINE SMOOTH",
"134 591 OFFCURVE",
"104 659 OFFCURVE",
"92 678 QCURVE",
"87 687 OFFCURVE",
"62 687 QCURVE SMOOTH",
"46 687 OFFCURVE",
"25 675 OFFCURVE",
"20 664 OFFCURVE",
"20 659 QCURVE SMOOTH"
);
}
);
width = 162;
}
);
note = grave;
unicode = 0060;
},
{
glyphname = a;
layers = (
{
layerId = "02396921-8257-42A3-8ED5-3052446F9CE3";
paths = (
{
closed = 1;
nodes = (
"285 435 OFFCURVE",
"151 344 OFFCURVE",
"66 201 OFFCURVE",
"66 130 QCURVE SMOOTH",
"66 74 OFFCURVE",
"117 -5 OFFCURVE",
"161 -5 QCURVE SMOOTH",
"181 -5 OFFCURVE",
"226 24 OFFCURVE",
"266 70 OFFCURVE",
"292 107 OFFCURVE",
"302 125 QCURVE",
"302 123 OFFCURVE",
"299 110 OFFCURVE",
"297 99 QCURVE SMOOTH",
"290 63 OFFCURVE",
"290 46 QCURVE SMOOTH",
"290 23 OFFCURVE",
"308 -6 OFFCURVE",
"324 -6 QCURVE SMOOTH",
"355 -6 OFFCURVE",
"437 66 OFFCURVE",
"450 88 QCURVE",
"450 92 OFFCURVE",
"439 111 OFFCURVE",
"437 111 QCURVE",
"431 104 LINE",
"425 98 OFFCURVE",
"411 83 OFFCURVE",
"394 67 OFFCURVE",
"377 56 OFFCURVE",
"371 56 QCURVE SMOOTH",
"361 56 OFFCURVE",
"361 81 QCURVE SMOOTH",
"361 94 OFFCURVE",
"364 106 QCURVE",
"425 422 LINE",
"390 435 OFFCURVE",
"352 435 QCURVE SMOOTH"
);
},
{
closed = 1;
nodes = (
"339 389 OFFCURVE",
"351 376 QCURVE",
"331 274 LINE SMOOTH",
"316 199 OFFCURVE",
"227 53 OFFCURVE",
"191 53 QCURVE SMOOTH",
"140 53 OFFCURVE",
"140 151 QCURVE SMOOTH",
"140 236 OFFCURVE",
"251 389 OFFCURVE",
"310 389 QCURVE SMOOTH"
);
}
);
width = 440;
}
);
note = a;
unicode = 0061;
},
{
glyphname = b;
layers = (
{
layerId = "02396921-8257-42A3-8ED5-3052446F9CE3";
paths = (
{
closed = 1;
nodes = (
"316 435 OFFCURVE",
"278 420 OFFCURVE",
"208 356 OFFCURVE",
"176 303 QCURVE",
"235 591 LINE SMOOTH",
"248 654 OFFCURVE",
"248 666 QCURVE SMOOTH",
"248 682 OFFCURVE",
"242 685 QCURVE",
"181 663 OFFCURVE",
"116 657 QCURVE",
"108 649 OFFCURVE",
"108 637 QCURVE SMOOTH",
"108 631 OFFCURVE",
"111 631 QCURVE SMOOTH",
"172 631 OFFCURVE",
"172 612 QCURVE SMOOTH",
"172 600 OFFCURVE",
"163 559 QCURVE SMOOTH",
"80 137 LINE SMOOTH",
"77 119 OFFCURVE",
"77 104 QCURVE SMOOTH",
"77 51 OFFCURVE",
"138 -6 OFFCURVE",
"176 -6 QCURVE SMOOTH",
"262 -6 OFFCURVE",
"418 176 OFFCURVE",
"418 304 QCURVE SMOOTH",
"418 357 OFFCURVE",
"373 435 OFFCURVE",
"329 435 QCURVE SMOOTH"
);
},
{
closed = 1;
nodes = (
"315 380 OFFCURVE",
"335 361 OFFCURVE",
"342 325 OFFCURVE",
"344 299 OFFCURVE",
"344 280 QCURVE SMOOTH",
"344 225 OFFCURVE",
"307 112 OFFCURVE",
"240 35 OFFCURVE",
"202 35 QCURVE SMOOTH",
"167 35 OFFCURVE",
"139 101 OFFCURVE",
"150 156 QCURVE SMOOTH",
"158 199 OFFCURVE",
"214 305 OFFCURVE",
"279 380 OFFCURVE",
"300 380 QCURVE SMOOTH"
);
}
);
width = 394;
}
);
note = b;
unicode = 0062;
},
{
glyphname = c;
layers = (
{
layerId = "02396921-8257-42A3-8ED5-3052446F9CE3";
paths = (
{
closed = 1;
nodes = (
"214 435 OFFCURVE",
"68 242 OFFCURVE",
"68 146 QCURVE SMOOTH",
"68 75 OFFCURVE",
"123 -6 OFFCURVE",
"175 -6 QCURVE SMOOTH",
"216 -6 OFFCURVE",
"300 64 OFFCURVE",
"314 88 QCURVE",
"314 92 OFFCURVE",
"303 111 OFFCURVE",
"301 111 QCURVE",
"298 108 LINE SMOOTH",
"296 106 OFFCURVE",
"291 100 OFFCURVE",
"282 91 OFFCURVE",
"271 83 OFFCURVE",
"259 73 OFFCURVE",
"245 66 OFFCURVE",
"231 60 OFFCURVE",
"216 56 OFFCURVE",
"208 56 QCURVE SMOOTH",
"142 56 OFFCURVE",
"142 162 QCURVE SMOOTH",
"142 255 OFFCURVE",
"235 394 OFFCURVE",
"278 394 QCURVE SMOOTH",
"295 394 OFFCURVE",
"329 338 OFFCURVE",
"361 338 OFFCURVE",
"380 362 OFFCURVE",
"380 381 QCURVE SMOOTH",
"380 389 OFFCURVE",
"377 401 QCURVE",
"337 435 OFFCURVE",
"290 435 QCURVE SMOOTH"
);
}
);
width = 326;
}
);
note = c;
unicode = 0063;
},
{
glyphname = d;
layers = (
{
layerId = "02396921-8257-42A3-8ED5-3052446F9CE3";
paths = (
{
closed = 1;
nodes = (
"257 435 OFFCURVE",
"73 238 OFFCURVE",
"73 130 QCURVE SMOOTH",
"73 74 OFFCURVE",
"123 -5 OFFCURVE",
"169 -5 QCURVE SMOOTH",
"196 -5 OFFCURVE",
"262 53 OFFCURVE",
"297 103 OFFCURVE",
"310 126 QCURVE",
"310 123 OFFCURVE",
"308 118 OFFCURVE",
"306 107 OFFCURVE",
"304 99 QCURVE",
"297 62 OFFCURVE",
"297 46 QCURVE SMOOTH",
"297 23 OFFCURVE",
"315 -6 OFFCURVE",
"331 -6 QCURVE SMOOTH",
"362 -6 OFFCURVE",
"444 66 OFFCURVE",
"457 88 QCURVE",
"457 92 OFFCURVE",
"446 111 OFFCURVE",
"444 111 QCURVE",
"438 104 LINE",
"432 98 OFFCURVE",
"418 83 OFFCURVE",
"401 67 OFFCURVE",
"384 56 OFFCURVE",
"378 56 QCURVE SMOOTH",
"368 56 OFFCURVE",
"368 81 QCURVE SMOOTH",
"368 94 OFFCURVE",
"371 106 QCURVE",
"465 591 LINE",
"480 666 LINE",
"480 681 OFFCURVE",
"474 685 QCURVE",
"414 663 OFFCURVE",
"345 657 QCURVE",
"337 649 OFFCURVE",
"337 637 QCURVE SMOOTH",
"337 631 OFFCURVE",
"340 631 QCURVE SMOOTH",
"401 631 OFFCURVE",
"401 612 QCURVE SMOOTH",
"401 598 OFFCURVE",
"398 584 QCURVE SMOOTH",
"370 435 LINE",
"362 435 LINE",
"382 435 OFFCURVE",
"357 435 QCURVE SMOOTH"
);
},
{
closed = 1;
nodes = (
"338 276 LINE SMOOTH",
"323 200 OFFCURVE",
"235 53 OFFCURVE",
"198 53 QCURVE SMOOTH",
"147 53 OFFCURVE",
"147 150 QCURVE SMOOTH",
"147 236 OFFCURVE",
"258 389 OFFCURVE",
"319 389 QCURVE SMOOTH",
"338 389 OFFCURVE",
"354 360 OFFCURVE",
"350 341 QCURVE SMOOTH"
);
}
);
width = 463;
}
);
note = d;
unicode = 0064;
},
{
glyphname = e;
layers = (
{
layerId = "02396921-8257-42A3-8ED5-3052446F9CE3";
paths = (
{
closed = 1;
nodes = (
"216 435 OFFCURVE",
"70 242 OFFCURVE",
"70 146 QCURVE SMOOTH",
"70 75 OFFCURVE",
"125 -6 OFFCURVE",
"177 -6 QCURVE SMOOTH",
"218 -6 OFFCURVE",
"302 64 OFFCURVE",
"316 88 QCURVE",
"316 92 OFFCURVE",
"305 111 OFFCURVE",
"303 111 QCURVE",
"300 108 LINE SMOOTH",
"298 106 OFFCURVE",
"293 100 OFFCURVE",
"284 91 OFFCURVE",
"273 83 OFFCURVE",
"261 73 OFFCURVE",
"247 66 OFFCURVE",
"233 60 OFFCURVE",
"218 56 OFFCURVE",
"210 56 QCURVE SMOOTH",
"180 56 OFFCURVE",
"145 103 OFFCURVE",
"145 148 QCURVE SMOOTH",
"145 183 OFFCURVE",
"149 183 QCURVE SMOOTH",
"182 183 OFFCURVE",
"289 230 OFFCURVE",
"379 316 OFFCURVE",
"379 360 QCURVE SMOOTH",
"379 388 OFFCURVE",
"338 435 OFFCURVE",
"292 435 QCURVE SMOOTH"
);
},
{
closed = 1;
nodes = (
"307 394 OFFCURVE",
"307 364 QCURVE SMOOTH",
"307 314 OFFCURVE",
"192 218 OFFCURVE",
"156 218 QCURVE SMOOTH",
"152 218 OFFCURVE",
"152 222 QCURVE SMOOTH",
"152 259 OFFCURVE",
"235 394 OFFCURVE",
"282 394 QCURVE SMOOTH"
);
}
);
width = 359;
}
);
note = e;
unicode = 0065;
},
{
glyphname = f;
layers = (
{
layerId = "02396921-8257-42A3-8ED5-3052446F9CE3";
paths = (
{
closed = 1;
nodes = (
"328 699 OFFCURVE",
"196 539 OFFCURVE",
"176 416 QCURVE",
"174 407 OFFCURVE",
"170 407 QCURVE SMOOTH",
"141 407 LINE SMOOTH",
"125 407 OFFCURVE",
"93 373 OFFCURVE",
"93 364 QCURVE SMOOTH",
"93 361 OFFCURVE",
"95 361 QCURVE SMOOTH",
"160 361 LINE SMOOTH",
"163 361 OFFCURVE",
"163 356 QCURVE SMOOTH",
"163 354 LINE",
"103 15 LINE SMOOTH",
"99 -10 OFFCURVE",
"80 -74 OFFCURVE",
"53 -145 OFFCURVE",
"15 -192 OFFCURVE",
"-4 -192 QCURVE SMOOTH",
"-18 -192 OFFCURVE",
"-41 -173 OFFCURVE",
"-53 -150 OFFCURVE",
"-69 -131 OFFCURVE",
"-78 -131 QCURVE SMOOTH",
"-96 -131 OFFCURVE",
"-120 -167 OFFCURVE",
"-119 -190 QCURVE",
"-113 -206 OFFCURVE",
"-73 -231 OFFCURVE",
"-38 -231 QCURVE SMOOTH",
"33 -231 OFFCURVE",
"154 -85 OFFCURVE",
"178 54 QCURVE SMOOTH",
"233 353 LINE",
"234 361 OFFCURVE",
"239 361 QCURVE SMOOTH",
"356 361 LINE",
"367 379 OFFCURVE",
"367 395 QCURVE SMOOTH",
"367 407 OFFCURVE",
"362 407 QCURVE SMOOTH",
"247 407 LINE SMOOTH",
"244 407 OFFCURVE",
"244 411 QCURVE SMOOTH",
"244 413 LINE",
"264 530 OFFCURVE",
"336 661 OFFCURVE",
"368 661 QCURVE SMOOTH",
"384 661 OFFCURVE",
"411 630 OFFCURVE",
"436 600 OFFCURVE",
"450 600 QCURVE SMOOTH",
"486 600 OFFCURVE",
"486 665 QCURVE",
"468 699 OFFCURVE",
"404 699 QCURVE SMOOTH"
);
}
);
width = 304;
}
);
note = f;
unicode = 0066;
},
{
glyphname = g;
layers = (
{
layerId = "02396921-8257-42A3-8ED5-3052446F9CE3";
paths = (
{
closed = 1;
nodes = (
"342 -149 OFFCURVE",
"270 -190 OFFCURVE",
"221 -190 QCURVE SMOOTH",
"90 -190 OFFCURVE",
"90 -110 QCURVE SMOOTH",
"90 -94 OFFCURVE",
"107 -64 OFFCURVE",
"126 -46 OFFCURVE",
"166 -24 OFFCURVE",
"183 -16 OFFCURVE",
"202 -8 QCURVE",
"230 -17 OFFCURVE",
"269 -32 OFFCURVE",
"317 -59 OFFCURVE",
"342 -96 OFFCURVE",
"342 -118 QCURVE SMOOTH"
);
},
{
closed = 1;
nodes = (
"305 398 OFFCURVE",
"337 334 OFFCURVE",
"337 294 QCURVE SMOOTH",
"337 244 OFFCURVE",
"282 156 OFFCURVE",
"240 156 QCURVE SMOOTH",
"211 156 OFFCURVE",
"179 208 OFFCURVE",
"179 247 QCURVE SMOOTH",
"179 303 OFFCURVE",
"234 398 OFFCURVE",
"277 398 QCURVE SMOOTH"
);
},
{
closed = 1;
nodes = (
"221 436 OFFCURVE",
"104 315 OFFCURVE",
"104 231 QCURVE SMOOTH",
"104 195 OFFCURVE",
"149 142 OFFCURVE",
"198 122 OFFCURVE",
"217 122 QCURVE",
"188 115 OFFCURVE",
"117 71 OFFCURVE",
"117 54 QCURVE SMOOTH",
"117 35 OFFCURVE",
"142 18 QCURVE SMOOTH",
"160 6 LINE",
"133 -6 OFFCURVE",
"91 -30 OFFCURVE",
"42 -66 OFFCURVE",
"16 -111 OFFCURVE",
"16 -135 QCURVE SMOOTH",
"16 -181 OFFCURVE",
"103 -233 OFFCURVE",
"172 -233 QCURVE SMOOTH",
"279 -233 OFFCURVE",
"406 -149 OFFCURVE",
"406 -78 QCURVE SMOOTH",
"406 -46 OFFCURVE",
"367 4 OFFCURVE",
"311 32 OFFCURVE",
"254 51 OFFCURVE",
"215 68 OFFCURVE",
"215 77 QCURVE SMOOTH",
"215 87 OFFCURVE",
"249 110 OFFCURVE",
"310 139 OFFCURVE",
"320 145 QCURVE SMOOTH",
"332 152 OFFCURVE",
"355 172 OFFCURVE",
"390 212 OFFCURVE",
"411 275 OFFCURVE",
"411 312 QCURVE SMOOTH",
"411 328 OFFCURVE",
"405 364 QCURVE",
"405 370 OFFCURVE",
"411 370 QCURVE SMOOTH",
"467 370 LINE",
"471 374 OFFCURVE",
"478 394 OFFCURVE",
"478 401 QCURVE SMOOTH",
"478 409 OFFCURVE",
"472 409 QCURVE SMOOTH",
"429 409 LINE SMOOTH",
"395 409 OFFCURVE",
"323 436 OFFCURVE",
"293 436 QCURVE SMOOTH"
);
}
);
width = 438;
}
);
note = g;
unicode = 0067;
},
{
glyphname = h;
layers = (
{
layerId = "02396921-8257-42A3-8ED5-3052446F9CE3";
paths = (
{
closed = 1;
nodes = (
"351 435 OFFCURVE",
"254 344 OFFCURVE",
"187 256 OFFCURVE",
"177 238 QCURVE",
"195 330 LINE",
"246 591 LINE SMOOTH",
"259 658 OFFCURVE",
"259 666 QCURVE SMOOTH",
"259 682 OFFCURVE",
"253 685 QCURVE",
"193 663 OFFCURVE",
"127 657 QCURVE",
"119 649 OFFCURVE",
"119 637 QCURVE SMOOTH",
"119 631 OFFCURVE",
"122 631 QCURVE SMOOTH",
"183 631 OFFCURVE",
"183 612 QCURVE SMOOTH",
"183 603 OFFCURVE",
"174 559 QCURVE SMOOTH",
"66 0 LINE",
"82 -4 OFFCURVE",
"118 -4 OFFCURVE",
"131 0 QCURVE",
"148 78 LINE SMOOTH",
"168 180 OFFCURVE",
"307 361 OFFCURVE",
"340 361 QCURVE SMOOTH",
"359 361 OFFCURVE",
"359 318 QCURVE SMOOTH",
"359 297 OFFCURVE",
"352 264 QCURVE SMOOTH",
"317 99 LINE SMOOTH",
"310 62 OFFCURVE",
"310 46 QCURVE SMOOTH",
"310 23 OFFCURVE",
"328 -6 OFFCURVE",
"344 -6 QCURVE SMOOTH",
"375 -6 OFFCURVE",
"457 66 OFFCURVE",
"470 88 QCURVE",
"470 92 OFFCURVE",
"459 111 OFFCURVE",
"457 111 QCURVE",
"451 104 LINE",
"445 98 OFFCURVE",
"431 83 OFFCURVE",
"414 67 OFFCURVE",
"397 56 OFFCURVE",
"391 56 QCURVE SMOOTH",
"381 56 OFFCURVE",
"381 81 QCURVE SMOOTH",
"381 94 OFFCURVE",
"384 106 QCURVE SMOOTH",
"417 260 LINE SMOOTH",
"431 324 OFFCURVE",
"431 369 QCURVE SMOOTH",
"431 435 OFFCURVE",
"381 435 QCURVE SMOOTH"
);
}
);
width = 461;
}
);
note = h;
unicode = 0068;
},
{
glyphname = i;
layers = (
{
layerId = "02396921-8257-42A3-8ED5-3052446F9CE3";
paths = (
{
closed = 1;
nodes = (
"182 435 OFFCURVE",
"105 369 OFFCURVE",
"93 349 QCURVE",
"93 345 OFFCURVE",
"104 326 OFFCURVE",
"106 326 QCURVE",
"111 332 LINE SMOOTH",
"116 338 OFFCURVE",
"128 350 OFFCURVE",
"143 364 OFFCURVE",
"157 373 OFFCURVE",
"161 373 QCURVE SMOOTH",
"171 373 OFFCURVE",
"171 348 QCURVE SMOOTH",
"171 339 OFFCURVE",
"166 308 QCURVE SMOOTH",
"125 99 LINE SMOOTH",
"118 62 OFFCURVE",
"118 46 QCURVE SMOOTH",
"118 23 OFFCURVE",
"136 -6 OFFCURVE",
"152 -6 QCURVE SMOOTH",
"183 -6 OFFCURVE",
"265 66 OFFCURVE",
"278 88 QCURVE",
"278 92 OFFCURVE",
"267 111 OFFCURVE",
"265 111 QCURVE",
"259 104 LINE",
"253 98 OFFCURVE",
"239 83 OFFCURVE",
"222 67 OFFCURVE",
"205 56 OFFCURVE",
"199 56 QCURVE SMOOTH",
"189 56 OFFCURVE",
"189 81 QCURVE SMOOTH",
"189 94 OFFCURVE",
"192 106 QCURVE",
"236 330 LINE SMOOTH",
"242 362 OFFCURVE",
"242 383 QCURVE SMOOTH",
"242 406 OFFCURVE",
"224 435 OFFCURVE",
"208 435 QCURVE SMOOTH"
);
},
{
closed = 1;
nodes = (
"215 646 OFFCURVE",
"185 612 OFFCURVE",
"185 589 QCURVE SMOOTH",
"185 571 OFFCURVE",
"203 546 OFFCURVE",
"219 546 QCURVE SMOOTH",
"242 546 OFFCURVE",
"273 582 OFFCURVE",
"273 606 QCURVE SMOOTH",
"273 622 OFFCURVE",
"252 646 OFFCURVE",
"237 646 QCURVE SMOOTH"
);
}
);
width = 274;
}
);
note = i;
unicode = 0069;
},
{
glyphname = j;
layers = (
{
layerId = "02396921-8257-42A3-8ED5-3052446F9CE3";
paths = (
{
closed = 1;
nodes = (
"203 435 OFFCURVE",
"126 369 OFFCURVE",
"114 349 QCURVE",
"114 345 OFFCURVE",
"125 326 OFFCURVE",
"127 326 QCURVE",
"127 326 OFFCURVE",
"137 338 OFFCURVE",
"149 350 OFFCURVE",
"164 364 OFFCURVE",
"178 373 OFFCURVE",
"182 373 QCURVE SMOOTH",
"192 373 OFFCURVE",
"192 348 QCURVE SMOOTH",
"192 344 OFFCURVE",
"187 308 QCURVE",
"130 22 LINE SMOOTH",
"114 -61 OFFCURVE",
"38 -186 OFFCURVE",
"-12 -215 QCURVE",
"-12 -228 OFFCURVE",
"-3 -235 QCURVE",
"28 -223 OFFCURVE",
"108 -162 OFFCURVE",
"136 -124 QCURVE SMOOTH",
"181 -63 OFFCURVE",
"202 45 QCURVE SMOOTH",
"257 330 LINE SMOOTH",
"263 363 OFFCURVE",
"263 383 QCURVE SMOOTH",
"263 406 OFFCURVE",
"245 435 OFFCURVE",
"229 435 QCURVE SMOOTH"
);
},
{
closed = 1;
nodes = (
"236 646 OFFCURVE",
"206 612 OFFCURVE",
"206 589 QCURVE SMOOTH",
"206 571 OFFCURVE",
"224 546 OFFCURVE",
"240 546 QCURVE SMOOTH",
"263 546 OFFCURVE",
"294 582 OFFCURVE",
"294 606 QCURVE SMOOTH",
"294 622 OFFCURVE",
"273 646 OFFCURVE",
"258 646 QCURVE SMOOTH"
);
}
);
width = 290;
}
);
note = j;
unicode = 006A;
},
{
glyphname = k;
layers = (
{
layerId = "02396921-8257-42A3-8ED5-3052446F9CE3";
paths = (
{
closed = 1;
nodes = (
"360 435 OFFCURVE",
"309 413 OFFCURVE",
"268 379 OFFCURVE",
"237 348 OFFCURVE",
"226 335 QCURVE SMOOTH",
"215 322 LINE",
"267 591 LINE SMOOTH",
"280 654 OFFCURVE",
"280 666 QCURVE SMOOTH",
"280 682 OFFCURVE",
"274 685 QCURVE",
"213 663 OFFCURVE",
"148 657 QCURVE",
"140 649 OFFCURVE",
"140 637 QCURVE SMOOTH",
"140 631 OFFCURVE",
"143 631 QCURVE SMOOTH",
"204 631 OFFCURVE",
"204 612 QCURVE SMOOTH",
"204 600 OFFCURVE",
"195 559 QCURVE SMOOTH",
"86 0 LINE",
"106 -5 OFFCURVE",
"119 -5 QCURVE SMOOTH",
"134 -5 OFFCURVE",
"152 0 QCURVE",
"189 191 LINE",
"192 187 OFFCURVE",
"216 145 OFFCURVE",
"226 129 OFFCURVE",
"251 89 OFFCURVE",
"267 70 OFFCURVE",
"292 38 OFFCURVE",
"313 22 OFFCURVE",
"338 4 OFFCURVE",
"363 -4 OFFCURVE",
"376 -4 QCURVE SMOOTH",
"405 -4 OFFCURVE",
"469 62 OFFCURVE",
"474 79 QCURVE",
"474 83 OFFCURVE",
"461 99 OFFCURVE",
"458 99 QCURVE",
"450 85 OFFCURVE",
"417 55 OFFCURVE",
"399 55 QCURVE SMOOTH",
"377 55 OFFCURVE",
"314 113 OFFCURVE",
"254 203 QCURVE",
"344 218 OFFCURVE",
"459 302 OFFCURVE",
"459 367 QCURVE SMOOTH",
"459 396 OFFCURVE",
"414 435 OFFCURVE",
"384 435 QCURVE SMOOTH"
);
},
{
closed = 1;
nodes = (
"388 388 OFFCURVE",
"388 345 QCURVE SMOOTH",
"388 325 OFFCURVE",
"367 291 OFFCURVE",
"337 268 OFFCURVE",
"296 249 OFFCURVE",
"261 239 OFFCURVE",
"224 232 OFFCURVE",
"211 230 OFFCURVE",
"207 230 QCURVE SMOOTH",
"205 230 OFFCURVE",
"205 232 QCURVE SMOOTH",
"205 254 OFFCURVE",
"316 388 OFFCURVE",
"348 388 QCURVE SMOOTH"
);
}
);
width = 485;
}
);
note = k;
unicode = 006B;
},
{
glyphname = l;
layers = (
{
layerId = "02396921-8257-42A3-8ED5-3052446F9CE3";
paths = (
{
closed = 1;
nodes = (
"86 63 OFFCURVE",
"86 46 QCURVE SMOOTH",
"86 23 OFFCURVE",
"105 -6 OFFCURVE",
"120 -6 QCURVE SMOOTH",
"151 -6 OFFCURVE",
"233 66 OFFCURVE",
"246 88 QCURVE",
"246 92 OFFCURVE",
"236 111 OFFCURVE",
"233 111 QCURVE SMOOTH",
"233 111 OFFCURVE",
"222 98 OFFCURVE",
"208 83 OFFCURVE",
"190 67 OFFCURVE",
"173 56 OFFCURVE",
"167 56 QCURVE SMOOTH",
"157 56 OFFCURVE",
"157 81 QCURVE SMOOTH",
"157 94 OFFCURVE",
"160 106 QCURVE",
"255 591 LINE SMOOTH",
"268 654 OFFCURVE",
"268 666 QCURVE SMOOTH",
"268 682 OFFCURVE",
"262 685 QCURVE",
"202 663 OFFCURVE",
"134 657 QCURVE",
"126 649 OFFCURVE",
"126 637 QCURVE SMOOTH",
"126 631 OFFCURVE",
"129 631 QCURVE SMOOTH",
"190 631 OFFCURVE",
"190 612 QCURVE SMOOTH",
"190 599 OFFCURVE",
"187 584 QCURVE SMOOTH",
"93 99 LINE SMOOTH"
);
}
);
width = 248;
}
);
note = l;
unicode = 006C;
},
{
glyphname = m;
layers = (
{
layerId = "02396921-8257-42A3-8ED5-3052446F9CE3";
paths = (
{
closed = 1;
nodes = (
"360 435 OFFCURVE",
"249 301 OFFCURVE",
"212 237 QCURVE",
"230 330 LINE SMOOTH",
"236 361 OFFCURVE",
"236 383 QCURVE SMOOTH",
"236 406 OFFCURVE",
"218 435 OFFCURVE",
"202 435 QCURVE SMOOTH",
"176 435 OFFCURVE",
"99 369 OFFCURVE",
"87 349 QCURVE",
"87 345 OFFCURVE",
"98 326 OFFCURVE",
"100 326 QCURVE",
"100 326 OFFCURVE",
"110 338 OFFCURVE",
"122 350 OFFCURVE",
"137 364 OFFCURVE",
"151 373 OFFCURVE",
"155 373 QCURVE SMOOTH",
"165 373 OFFCURVE",
"165 348 QCURVE SMOOTH",
"165 344 OFFCURVE",
"160 308 QCURVE",
"100 0 LINE",
"126 -4 OFFCURVE",
"133 -4 QCURVE SMOOTH",
"141 -4 OFFCURVE",
"167 0 QCURVE",
"185 88 LINE SMOOTH",
"202 171 OFFCURVE",
"332 361 OFFCURVE",
"367 361 QCURVE SMOOTH",
"387 361 OFFCURVE",
"387 322 QCURVE SMOOTH",
"387 305 OFFCURVE",
"383 284 QCURVE SMOOTH",
"327 0 LINE",
"330 0 OFFCURVE",
"351 -3 OFFCURVE",
"367 -3 OFFCURVE",
"390 0 OFFCURVE",
"394 0 QCURVE",
"412 95 LINE SMOOTH",
"429 187 OFFCURVE",
"562 361 OFFCURVE",
"596 361 QCURVE SMOOTH",
"605 361 OFFCURVE",
"613 349 OFFCURVE",
"615 333 OFFCURVE",
"615 318 QCURVE SMOOTH",
"615 297 OFFCURVE",
"608 264 QCURVE SMOOTH",
"573 99 LINE SMOOTH",
"566 62 OFFCURVE",
"566 46 QCURVE SMOOTH",
"566 23 OFFCURVE",
"584 -6 OFFCURVE",
"600 -6 QCURVE SMOOTH",
"631 -6 OFFCURVE",
"713 66 OFFCURVE",
"726 88 QCURVE",
"726 92 OFFCURVE",
"715 111 OFFCURVE",
"713 111 QCURVE",
"707 104 LINE",
"701 98 OFFCURVE",
"687 83 OFFCURVE",
"670 67 OFFCURVE",
"653 56 OFFCURVE",
"647 56 QCURVE SMOOTH",
"637 56 OFFCURVE",
"637 81 QCURVE SMOOTH",
"637 94 OFFCURVE",
"640 106 QCURVE SMOOTH",
"673 260 LINE SMOOTH",
"687 324 OFFCURVE",
"687 369 QCURVE SMOOTH",
"687 402 OFFCURVE",
"663 435 OFFCURVE",
"630 435 QCURVE SMOOTH",
"595 435 OFFCURVE",
"476 308 OFFCURVE",
"443 251 QCURVE",
"457 323 OFFCURVE",
"457 340 QCURVE SMOOTH",
"457 368 OFFCURVE",
"451 403 OFFCURVE",
"422 435 OFFCURVE",
"395 435 QCURVE SMOOTH"
);
}
);
width = 716;
}
);
note = m;
unicode = 006D;
},
{
glyphname = n;
layers = (
{
layerId = "02396921-8257-42A3-8ED5-3052446F9CE3";
paths = (
{
closed = 1;
nodes = (
"174 435 OFFCURVE",
"97 369 OFFCURVE",
"85 349 QCURVE",
"85 345 OFFCURVE",
"96 326 OFFCURVE",
"98 326 QCURVE",
"98 326 OFFCURVE",
"108 338 OFFCURVE",
"120 350 OFFCURVE",
"135 364 OFFCURVE",
"149 373 OFFCURVE",
"153 373 QCURVE SMOOTH",
"163 373 OFFCURVE",
"163 348 QCURVE SMOOTH",
"163 344 OFFCURVE",
"158 308 QCURVE",
"99 0 LINE",
"115 -4 OFFCURVE",
"151 -4 OFFCURVE",
"164 0 QCURVE",
"181 78 LINE SMOOTH",
"201 180 OFFCURVE",
"340 361 OFFCURVE",
"373 361 QCURVE SMOOTH",
"392 361 OFFCURVE",
"392 318 QCURVE SMOOTH",
"392 297 OFFCURVE",
"385 264 QCURVE SMOOTH",
"350 99 LINE SMOOTH",
"343 62 OFFCURVE",
"343 46 QCURVE SMOOTH",
"343 23 OFFCURVE",
"361 -6 OFFCURVE",
"377 -6 QCURVE SMOOTH",
"408 -6 OFFCURVE",
"490 66 OFFCURVE",
"503 88 QCURVE",
"503 92 OFFCURVE",
"492 111 OFFCURVE",
"490 111 QCURVE",
"484 104 LINE",
"478 98 OFFCURVE",
"464 83 OFFCURVE",
"447 67 OFFCURVE",
"430 56 OFFCURVE",
"424 56 QCURVE SMOOTH",
"414 56 OFFCURVE",
"414 81 QCURVE SMOOTH",
"414 94 OFFCURVE",
"417 106 QCURVE SMOOTH",
"450 260 LINE SMOOTH",
"464 324 OFFCURVE",
"464 369 QCURVE SMOOTH",
"464 435 OFFCURVE",
"414 435 QCURVE SMOOTH",
"384 435 OFFCURVE",
"287 344 OFFCURVE",
"220 256 OFFCURVE",
"210 238 QCURVE",
"228 330 LINE SMOOTH",
"234 361 OFFCURVE",
"234 383 QCURVE SMOOTH",
"234 406 OFFCURVE",
"216 435 OFFCURVE",
"200 435 QCURVE SMOOTH"
);
}
);
width = 492;
}
);
note = n;
unicode = 006E;
},
{
glyphname = o;
layers = (
{
layerId = "02396921-8257-42A3-8ED5-3052446F9CE3";
paths = (
{
closed = 1;
nodes = (
"304 394 OFFCURVE",
"336 332 OFFCURVE",
"336 273 QCURVE SMOOTH",
"336 193 OFFCURVE",
"259 36 OFFCURVE",
"209 36 QCURVE SMOOTH",
"181 36 OFFCURVE",
"144 100 OFFCURVE",
"144 158 QCURVE SMOOTH",
"144 237 OFFCURVE",
"226 394 OFFCURVE",
"276 394 QCURVE SMOOTH"
);
},
{
closed = 1;
nodes = (
"212 435 OFFCURVE",
"68 249 OFFCURVE",
"68 145 QCURVE SMOOTH",
"68 73 OFFCURVE",
"131 -5 OFFCURVE",
"191 -5 QCURVE SMOOTH",
"267 -5 OFFCURVE",
"412 178 OFFCURVE",
"412 281 QCURVE SMOOTH",
"412 353 OFFCURVE",
"347 435 OFFCURVE",
"288 435 QCURVE SMOOTH"
);
}
);
width = 412;
}
);
note = o;
unicode = 006F;
},
{
glyphname = p;
layers = (
{
layerId = "02396921-8257-42A3-8ED5-3052446F9CE3";
paths = (
{
closed = 1;
nodes = (
"375 377 OFFCURVE",
"375 280 QCURVE SMOOTH",
"375 194 OFFCURVE",
"271 42 OFFCURVE",
"213 42 QCURVE SMOOTH",
"186 42 OFFCURVE",
"170 80 OFFCURVE",
"174 103 QCURVE SMOOTH",
"217 324 LINE",
"254 377 OFFCURVE",
"313 377 QCURVE SMOOTH"
);
},
{
closed = 1;
nodes = (
"325 435 OFFCURVE",
"272 412 OFFCURVE",
"247 392 OFFCURVE",
"227 374 QCURVE",
"229 388 OFFCURVE",
"238 430 QCURVE",
"224 437 OFFCURVE",
"188 437 OFFCURVE",
"173 433 QCURVE",
"147 303 LINE",
"88 240 LINE SMOOTH",
"85 237 OFFCURVE",
"85 233 QCURVE SMOOTH",
"85 220 OFFCURVE",
"91 213 QCURVE",
"139 261 LINE",
"60 -147 LINE SMOOTH",
"55 -176 OFFCURVE",
"44 -190 QCURVE SMOOTH",
"31 -206 OFFCURVE",
"4 -206 QCURVE",
"0 -212 OFFCURVE",
"0 -227 QCURVE SMOOTH",
"0 -234 OFFCURVE",
"3 -235 QCURVE",
"78 -226 OFFCURVE",
"146 -226 QCURVE SMOOTH",
"151 -226 OFFCURVE",
"174 -227 OFFCURVE",
"181 -227 QCURVE",
"186 -220 OFFCURVE",
"186 -205 QCURVE SMOOTH",
"186 -199 OFFCURVE",
"184 -199 QCURVE SMOOTH",
"150 -199 OFFCURVE",
"137 -196 QCURVE",
"123 -192 OFFCURVE",
"123 -173 QCURVE SMOOTH",
"123 -158 OFFCURVE",
"126 -145 QCURVE",
"154 4 LINE",
"169 -4 OFFCURVE",
"194 -4 QCURVE SMOOTH",
"241 -4 OFFCURVE",
"361 86 OFFCURVE",
"449 231 OFFCURVE",
"449 300 QCURVE SMOOTH",
"449 356 OFFCURVE",
"399 435 OFFCURVE",
"353 435 QCURVE SMOOTH"
);
}
);
width = 440;
}
);
note = p;
unicode = 0070;
},
{
glyphname = q;
layers = (
{
layerId = "02396921-8257-42A3-8ED5-3052446F9CE3";
paths = (
{
closed = 1;
nodes = (
"360 389 OFFCURVE",
"372 376 QCURVE",
"352 274 LINE SMOOTH",
"337 200 OFFCURVE",
"242 53 OFFCURVE",
"205 53 QCURVE SMOOTH",
"153 53 OFFCURVE",
"153 159 QCURVE SMOOTH",
"153 240 OFFCURVE",
"258 389 OFFCURVE",
"323 389 QCURVE SMOOTH"
);
},
{
closed = 1;
nodes = (
"299 435 OFFCURVE",
"165 344 OFFCURVE",
"79 201 OFFCURVE",
"79 130 QCURVE SMOOTH",
"79 74 OFFCURVE",
"131 -5 OFFCURVE",
"175 -5 QCURVE SMOOTH",
"201 -5 OFFCURVE",
"267 48 OFFCURVE",
"309 101 OFFCURVE",
"323 125 QCURVE",
"272 -147 LINE SMOOTH",
"267 -173 OFFCURVE",
"230 -202 OFFCURVE",
"209 -205 OFFCURVE",
"200 -205 QCURVE SMOOTH",
"195 -205 OFFCURVE",
"195 -223 QCURVE SMOOTH",
"195 -225 OFFCURVE",
"196 -234 OFFCURVE",
"196 -235 QCURVE",
"270 -227 OFFCURVE",
"341 -227 QCURVE SMOOTH",
"347 -227 OFFCURVE",
"374 -228 OFFCURVE",
"381 -228 QCURVE",
"386 -220 OFFCURVE",
"386 -204 QCURVE SMOOTH",
"386 -198 OFFCURVE",
"384 -198 QCURVE SMOOTH",
"364 -198 OFFCURVE",
"342 -188 OFFCURVE",
"338 -177 OFFCURVE",
"338 -168 QCURVE SMOOTH",
"338 -163 OFFCURVE",
"340 -147 QCURVE",
"385 106 LINE",
"446 422 LINE",
"411 435 OFFCURVE",
"366 435 QCURVE SMOOTH"
);
}
);
width = 415;
}
);
note = q;
unicode = 0071;
},
{
glyphname = r;
layers = (
{
layerId = "02396921-8257-42A3-8ED5-3052446F9CE3";
paths = (
{
closed = 1;
nodes = (
"181 435 OFFCURVE",
"104 369 OFFCURVE",
"92 349 QCURVE",
"92 345 OFFCURVE",
"103 326 OFFCURVE",
"105 326 QCURVE",
"105 326 OFFCURVE",
"115 338 OFFCURVE",
"127 350 OFFCURVE",
"142 364 OFFCURVE",
"156 373 OFFCURVE",
"160 373 QCURVE SMOOTH",
"170 373 OFFCURVE",
"170 348 QCURVE SMOOTH",
"170 344 OFFCURVE",
"165 308 QCURVE",
"105 0 LINE",
"123 -3 OFFCURVE",
"142 -3 QCURVE SMOOTH",
"158 -3 OFFCURVE",
"175 0 QCURVE",
"194 105 LINE SMOOTH",
"209 187 OFFCURVE",
"324 361 OFFCURVE",
"353 361 QCURVE SMOOTH",
"365 361 OFFCURVE",
"387 336 OFFCURVE",
"395 336 QCURVE SMOOTH",
"432 336 OFFCURVE",
"432 403 QCURVE",
"411 435 OFFCURVE",
"343 435 OFFCURVE",
"244 305 OFFCURVE",
"219 246 QCURVE",
"235 330 LINE SMOOTH",
"241 361 OFFCURVE",
"241 383 QCURVE SMOOTH",
"241 406 OFFCURVE",
"223 435 OFFCURVE",
"207 435 QCURVE SMOOTH"
);
}
);
width = 372;
}
);
note = r;
unicode = 0072;
},
{
glyphname = s;
layers = (
{
layerId = "02396921-8257-42A3-8ED5-3052446F9CE3";
paths = (
{
closed = 1;
nodes = (
"202 438 OFFCURVE",
"122 357 OFFCURVE",
"122 315 QCURVE SMOOTH",
"122 281 OFFCURVE",
"161 215 OFFCURVE",
"207 169 OFFCURVE",
"246 110 OFFCURVE",
"246 84 QCURVE SMOOTH",
"246 67 OFFCURVE",
"219 38 OFFCURVE",
"197 38 QCURVE SMOOTH",
"170 38 OFFCURVE",
"137 68 OFFCURVE",
"115 97 OFFCURVE",
"101 97 QCURVE SMOOTH",
"86 97 OFFCURVE",
"67 69 OFFCURVE",
"67 51 QCURVE SMOOTH",
"67 40 OFFCURVE",
"72 32 QCURVE",
"105 -6 OFFCURVE",
"162 -6 QCURVE SMOOTH",
"225 -6 OFFCURVE",
"305 62 OFFCURVE",
"305 117 QCURVE SMOOTH",
"305 151 OFFCURVE",
"266 217 OFFCURVE",
"220 263 OFFCURVE",
"181 322 OFFCURVE",
"181 348 QCURVE SMOOTH",
"181 366 OFFCURVE",
"205 394 OFFCURVE",
"226 394 QCURVE SMOOTH",
"253 394 OFFCURVE",
"286 364 OFFCURVE",
"308 335 OFFCURVE",
"322 335 QCURVE SMOOTH",
"337 335 OFFCURVE",
"356 361 OFFCURVE",
"356 379 QCURVE SMOOTH",
"356 388 OFFCURVE",
"351 400 QCURVE",
"318 438 OFFCURVE",
"261 438 QCURVE SMOOTH"
);
}
);
width = 320;
}
);
note = s;
unicode = 0073;
},
{
glyphname = t;
layers = (
{
layerId = "02396921-8257-42A3-8ED5-3052446F9CE3";
paths = (
{
closed = 1;
nodes = (
"173 420 LINE",
"103 420 LINE",
"91 402 OFFCURVE",
"91 389 QCURVE SMOOTH",
"91 378 OFFCURVE",
"94 378 QCURVE SMOOTH",
"165 378 LINE",
"111 99 LINE SMOOTH",
"104 62 OFFCURVE",
"104 46 QCURVE SMOOTH",
"104 23 OFFCURVE",
"122 -6 OFFCURVE",
"138 -6 QCURVE SMOOTH",
"169 -6 OFFCURVE",
"251 66 OFFCURVE",
"264 88 QCURVE",
"264 92 OFFCURVE",
"253 111 OFFCURVE",
"251 111 QCURVE",
"245 104 LINE",
"239 98 OFFCURVE",
"225 83 OFFCURVE",
"208 67 OFFCURVE",
"191 56 OFFCURVE",
"185 56 QCURVE SMOOTH",
"175 56 OFFCURVE",
"175 81 QCURVE SMOOTH",
"175 94 OFFCURVE",
"178 106 QCURVE",
"231 378 LINE",
"326 378 LINE",
"335 395 OFFCURVE",
"335 407 QCURVE SMOOTH",
"335 420 OFFCURVE",
"330 420 QCURVE SMOOTH",
"239 420 LINE",
"264 551 LINE",
"258 552 OFFCURVE",
"246 552 QCURVE SMOOTH",
"200 552 OFFCURVE",
"197 542 QCURVE"
);
}
);
width = 262;
}
);
note = t;
unicode = 0074;
},
{
glyphname = u;
layers = (
{
layerId = "02396921-8257-42A3-8ED5-3052446F9CE3";
paths = (
{
closed = 1;
nodes = (
"164 435 OFFCURVE",
"87 369 OFFCURVE",
"75 349 QCURVE",
"75 345 OFFCURVE",
"86 326 OFFCURVE",
"88 326 QCURVE",
"88 326 OFFCURVE",
"98 338 OFFCURVE",
"110 350 OFFCURVE",
"125 364 OFFCURVE",
"139 373 OFFCURVE",
"143 373 QCURVE SMOOTH",
"153 373 OFFCURVE",
"153 348 QCURVE SMOOTH",
"153 344 OFFCURVE",
"148 308 QCURVE",
"118 169 LINE SMOOTH",
"104 106 OFFCURVE",
"104 60 QCURVE SMOOTH",
"104 -6 OFFCURVE",
"154 -6 QCURVE SMOOTH",
"184 -6 OFFCURVE",
"278 86 OFFCURVE",
"340 172 OFFCURVE",
"350 191 QCURVE",
"332 99 LINE SMOOTH",
"325 62 OFFCURVE",
"325 46 QCURVE SMOOTH",
"325 23 OFFCURVE",
"343 -6 OFFCURVE",
"359 -6 QCURVE SMOOTH",
"390 -6 OFFCURVE",
"472 66 OFFCURVE",
"485 88 QCURVE",
"485 92 OFFCURVE",
"474 111 OFFCURVE",
"472 111 QCURVE",
"466 104 LINE",
"460 98 OFFCURVE",
"446 83 OFFCURVE",
"429 67 OFFCURVE",
"412 56 OFFCURVE",
"406 56 QCURVE SMOOTH",
"396 56 OFFCURVE",
"396 81 QCURVE SMOOTH",
"396 94 OFFCURVE",
"399 106 QCURVE",
"461 429 LINE",
"445 433 OFFCURVE",
"427 433 QCURVE SMOOTH",
"409 433 OFFCURVE",
"396 429 QCURVE",
"379 351 LINE SMOOTH",
"369 298 OFFCURVE",
"318 190 OFFCURVE",
"261 115 OFFCURVE",
"209 68 OFFCURVE",
"195 68 QCURVE SMOOTH",
"176 68 OFFCURVE",
"176 111 QCURVE SMOOTH",
"176 136 OFFCURVE",
"183 165 QCURVE SMOOTH",
"218 330 LINE SMOOTH",
"224 356 OFFCURVE",
"224 383 QCURVE SMOOTH",
"224 406 OFFCURVE",
"206 435 OFFCURVE",
"190 435 QCURVE SMOOTH"
);
}
);
width = 472;
}
);
note = u;
unicode = 0075;
},
{
glyphname = v;
layers = (
{
layerId = "02396921-8257-42A3-8ED5-3052446F9CE3";
paths = (
{
closed = 1;
nodes = (
"168 435 OFFCURVE",
"91 369 OFFCURVE",
"79 349 QCURVE",
"79 345 OFFCURVE",
"90 326 OFFCURVE",
"92 326 QCURVE",
"97 332 LINE SMOOTH",
"102 338 OFFCURVE",
"114 350 OFFCURVE",
"129 364 OFFCURVE",
"143 373 OFFCURVE",
"147 373 QCURVE SMOOTH",
"157 373 OFFCURVE",
"157 348 QCURVE SMOOTH",
"157 329 OFFCURVE",
"151 308 QCURVE",
"117 132 LINE",
"113 116 OFFCURVE",
"113 88 QCURVE SMOOTH",
"113 49 OFFCURVE",
"153 0 OFFCURVE",
"187 0 QCURVE SMOOTH",
"231 0 OFFCURVE",
"355 108 OFFCURVE",
"452 286 OFFCURVE",
"452 369 QCURVE SMOOTH",
"452 401 OFFCURVE",
"438 427 QCURVE",
"425 435 OFFCURVE",
"406 435 QCURVE SMOOTH",
"389 435 OFFCURVE",
"365 408 OFFCURVE",
"365 390 QCURVE SMOOTH",
"365 378 OFFCURVE",
"394 330 OFFCURVE",
"394 309 QCURVE SMOOTH",
"394 245 OFFCURVE",
"271 62 OFFCURVE",
"225 62 QCURVE SMOOTH",
"202 62 OFFCURVE",
"184 86 OFFCURVE",
"184 114 QCURVE SMOOTH",
"184 129 OFFCURVE",
"192 177 QCURVE SMOOTH",
"222 330 LINE SMOOTH",
"228 362 OFFCURVE",
"228 383 QCURVE SMOOTH",
"228 406 OFFCURVE",
"210 435 OFFCURVE",
"194 435 QCURVE SMOOTH"
);
}
);
width = 416;
}
);
note = v;
unicode = 0076;
},
{
glyphname = w;
layers = (
{
layerId = "02396921-8257-42A3-8ED5-3052446F9CE3";
paths = (
{
closed = 1;
nodes = (
"168 435 OFFCURVE",
"91 369 OFFCURVE",
"79 349 QCURVE",
"79 345 OFFCURVE",
"90 326 OFFCURVE",
"92 326 QCURVE",
"97 332 LINE SMOOTH",
"102 338 OFFCURVE",
"114 350 OFFCURVE",
"129 364 OFFCURVE",
"143 373 OFFCURVE",
"147 373 QCURVE SMOOTH",
"157 373 OFFCURVE",
"157 348 QCURVE SMOOTH",
"157 329 OFFCURVE",
"151 308 QCURVE",
"117 132 LINE",
"113 116 OFFCURVE",
"113 88 QCURVE SMOOTH",
"113 49 OFFCURVE",
"153 0 OFFCURVE",
"187 0 QCURVE SMOOTH",
"246 0 OFFCURVE",
"325 91 QCURVE",
"325 49 OFFCURVE",
"364 0 OFFCURVE",
"399 0 QCURVE SMOOTH",
"431 0 OFFCURVE",
"519 67 OFFCURVE",
"597 169 OFFCURVE",
"651 306 OFFCURVE",
"651 369 QCURVE SMOOTH",
"651 401 OFFCURVE",
"637 427 QCURVE",
"624 435 OFFCURVE",
"605 435 QCURVE SMOOTH",
"588 435 OFFCURVE",
"564 408 OFFCURVE",
"564 390 QCURVE SMOOTH",
"564 378 OFFCURVE",
"593 330 OFFCURVE",
"593 309 QCURVE SMOOTH",
"593 268 OFFCURVE",
"542 151 OFFCURVE",
"467 62 OFFCURVE",
"437 62 QCURVE SMOOTH",
"413 62 OFFCURVE",
"396 99 OFFCURVE",
"396 147 QCURVE SMOOTH",
"396 161 OFFCURVE",
"403 211 QCURVE",
"444 323 OFFCURVE",
"444 388 QCURVE SMOOTH",
"444 435 OFFCURVE",
"406 435 QCURVE SMOOTH",
"379 435 OFFCURVE",
"366 385 QCURVE SMOOTH",
"357 351 OFFCURVE",
"333 154 QCURVE",
"306 114 OFFCURVE",
"247 62 OFFCURVE",
"225 62 QCURVE SMOOTH",
"202 62 OFFCURVE",
"184 86 OFFCURVE",
"184 114 QCURVE SMOOTH",
"184 129 OFFCURVE",
"192 177 QCURVE SMOOTH",
"222 330 LINE SMOOTH",
"228 362 OFFCURVE",
"228 383 QCURVE SMOOTH",
"228 406 OFFCURVE",
"210 435 OFFCURVE",
"194 435 QCURVE SMOOTH"
);
}
);
width = 632;
}
);
note = w;
unicode = 0077;
},
{
glyphname = x;
layers = (
{
layerId = "02396921-8257-42A3-8ED5-3052446F9CE3";
paths = (
{
closed = 1;
nodes = (
"177 435 OFFCURVE",
"109 368 OFFCURVE",
"106 351 QCURVE",
"106 347 OFFCURVE",
"118 331 OFFCURVE",
"122 331 QCURVE",
"129 344 OFFCURVE",
"163 375 OFFCURVE",
"178 375 QCURVE SMOOTH",
"195 375 OFFCURVE",
"205 341 QCURVE SMOOTH",
"246 207 LINE",
"167 71 LINE SMOOTH",
"152 45 OFFCURVE",
"140 45 QCURVE SMOOTH",
"126 45 OFFCURVE",
"93 76 OFFCURVE",
"80 76 QCURVE SMOOTH",
"69 76 OFFCURVE",
"48 55 OFFCURVE",
"48 40 QCURVE SMOOTH",
"48 28 OFFCURVE",
"56 14 QCURVE",
"80 -6 OFFCURVE",
"114 -6 QCURVE SMOOTH",
"165 -6 OFFCURVE",
"198 51 QCURVE SMOOTH",
"261 160 LINE",
"284 82 LINE SMOOTH",
"310 -5 OFFCURVE",
"352 -5 QCURVE SMOOTH",
"383 -5 OFFCURVE",
"451 62 OFFCURVE",
"454 79 QCURVE",
"454 83 OFFCURVE",
"442 99 OFFCURVE",
"438 99 QCURVE",
"431 86 OFFCURVE",
"397 55 OFFCURVE",
"382 55 QCURVE SMOOTH",
"365 55 OFFCURVE",
"355 89 QCURVE SMOOTH",
"312 230 LINE",
"387 358 LINE SMOOTH",
"402 384 OFFCURVE",
"414 384 QCURVE SMOOTH",
"428 384 OFFCURVE",
"461 353 OFFCURVE",
"474 353 QCURVE SMOOTH",
"485 353 OFFCURVE",
"506 374 OFFCURVE",
"506 389 QCURVE SMOOTH",
"506 399 OFFCURVE",
"498 415 QCURVE",
"474 435 OFFCURVE",
"440 435 QCURVE SMOOTH",
"389 435 OFFCURVE",
"356 378 QCURVE SMOOTH",
"297 277 LINE",
"276 348 LINE SMOOTH",
"250 435 OFFCURVE",
"208 435 QCURVE SMOOTH"
);
}
);
width = 476;
}
);
note = x;
unicode = 0078;
},
{
glyphname = y;
layers = (
{
layerId = "02396921-8257-42A3-8ED5-3052446F9CE3";
paths = (
{
closed = 1;
nodes = (
"191 435 OFFCURVE",
"108 364 OFFCURVE",
"102 349 QCURVE",
"102 345 OFFCURVE",
"113 326 OFFCURVE",
"115 326 QCURVE",
"125 339 OFFCURVE",
"161 373 OFFCURVE",
"170 373 QCURVE SMOOTH",
"187 373 OFFCURVE",
"212 310 OFFCURVE",
"225 208 OFFCURVE",
"230 111 OFFCURVE",
"230 62 QCURVE SMOOTH",
"230 -38 OFFCURVE",
"207 -72 QCURVE SMOOTH",
"146 -161 OFFCURVE",
"63 -161 QCURVE SMOOTH",
"18 -161 OFFCURVE",
"-4 -148 QCURVE",
"-27 -160 OFFCURVE",
"-27 -192 QCURVE SMOOTH",
"-27 -209 OFFCURVE",
"7 -233 OFFCURVE",
"33 -233 QCURVE SMOOTH",
"100 -233 OFFCURVE",
"317 -39 OFFCURVE",
"489 246 OFFCURVE",
"489 356 QCURVE SMOOTH",
"489 435 OFFCURVE",
"445 435 QCURVE SMOOTH",
"408 435 OFFCURVE",
"395 392 QCURVE",
"420 344 OFFCURVE",
"420 285 QCURVE SMOOTH",
"420 225 OFFCURVE",
"342 76 OFFCURVE",
"303 28 QCURVE",
"303 75 OFFCURVE",
"299 168 OFFCURVE",
"285 333 OFFCURVE",
"246 435 OFFCURVE",
"216 435 QCURVE SMOOTH"
);
}
);
width = 479;
}
);
note = y;
unicode = 0079;
},
{
glyphname = z;
layers = (
{
layerId = "02396921-8257-42A3-8ED5-3052446F9CE3";
paths = (
{
closed = 1;
nodes = (
"175 435 OFFCURVE",
"114 352 OFFCURVE",
"106 326 QCURVE",
"107 317 OFFCURVE",
"115 301 OFFCURVE",
"120 306 QCURVE SMOOTH",
"121 307 OFFCURVE",
"131 325 OFFCURVE",
"142 343 OFFCURVE",
"157 362 OFFCURVE",
"174 374 OFFCURVE",
"182 374 QCURVE SMOOTH",
"196 374 OFFCURVE",
"280 338 OFFCURVE",
"308 338 QCURVE SMOOTH",
"315 338 OFFCURVE",
"335 348 OFFCURVE",
"342 352 QCURVE",
"348 357 LINE",
"274 277 LINE SMOOTH",
"199 197 OFFCURVE",
"50 33 OFFCURVE",
"50 26 QCURVE SMOOTH",
"50 0 OFFCURVE",
"62 0 QCURVE SMOOTH",
"76 0 OFFCURVE",
"114 26 OFFCURVE",
"128 26 QCURVE SMOOTH",
"161 26 OFFCURVE",
"269 0 OFFCURVE",
"279 0 QCURVE SMOOTH",
"309 0 OFFCURVE",
"371 84 OFFCURVE",
"379 110 QCURVE",
"378 118 OFFCURVE",
"369 134 OFFCURVE",
"365 129 QCURVE",
"364 128 OFFCURVE",
"354 109 OFFCURVE",
"342 92 OFFCURVE",
"327 73 OFFCURVE",
"310 61 OFFCURVE",
"302 61 QCURVE SMOOTH",
"288 61 OFFCURVE",
"204 97 OFFCURVE",
"176 97 QCURVE SMOOTH",
"169 97 OFFCURVE",
"149 87 OFFCURVE",
"135 78 OFFCURVE",
"135 79 QCURVE",
"210 159 LINE SMOOTH",
"284 239 OFFCURVE",
"434 404 OFFCURVE",
"434 410 QCURVE SMOOTH",
"434 435 OFFCURVE",
"422 435 QCURVE SMOOTH",
"408 435 OFFCURVE",
"370 410 OFFCURVE",
"356 410 QCURVE SMOOTH",
"323 410 OFFCURVE",
"215 435 OFFCURVE",
"205 435 QCURVE SMOOTH"
);
}
);
width = 404;
}
);
note = z;
unicode = 007A;
},
{
glyphname = braceleft;
layers = (
{
layerId = "02396921-8257-42A3-8ED5-3052446F9CE3";
paths = (
{
closed = 1;
nodes = (
"3 -49 OFFCURVE",
"67 -125 OFFCURVE",
"118 -125 QCURVE SMOOTH",
"124 -125 OFFCURVE",
"124 -112 QCURVE SMOOTH",
"124 -98 OFFCURVE",
"117 -96 QCURVE",
"94 -94 OFFCURVE",
"44 -38 OFFCURVE",
"44 0 QCURVE SMOOTH",
"44 34 OFFCURVE",
"87 105 OFFCURVE",
"130 181 OFFCURVE",
"130 222 QCURVE SMOOTH",
"130 259 OFFCURVE",
"94 307 OFFCURVE",
"71 308 QCURVE",
"104 309 OFFCURVE",
"170 394 OFFCURVE",
"170 464 QCURVE SMOOTH",
"170 486 OFFCURVE",
"159 558 OFFCURVE",
"159 577 QCURVE SMOOTH",
"159 616 OFFCURVE",
"191 677 OFFCURVE",
"235 706 OFFCURVE",
"268 720 OFFCURVE",
"276 721 QCURVE",
"281 722 OFFCURVE",
"291 740 OFFCURVE",
"291 746 QCURVE SMOOTH",
"291 750 OFFCURVE",
"288 750 QCURVE SMOOTH",
"206 750 OFFCURVE",
"104 615 OFFCURVE",
"104 549 QCURVE SMOOTH",
"104 527 OFFCURVE",
"121 444 OFFCURVE",
"121 425 QCURVE SMOOTH",
"121 401 OFFCURVE",
"106 367 OFFCURVE",
"73 346 OFFCURVE",
"46 336 OFFCURVE",
"21 329 QCURVE",
"13 317 OFFCURVE",
"13 298 QCURVE SMOOTH",
"13 292 LINE",
"17 291 OFFCURVE",
"42 282 OFFCURVE",
"52 278 OFFCURVE",
"70 268 OFFCURVE",
"78 258 OFFCURVE",
"85 243 OFFCURVE",
"85 233 QCURVE SMOOTH",
"85 206 OFFCURVE",
"44 140 OFFCURVE",
"3 58 OFFCURVE",
"3 12 QCURVE SMOOTH"
);
}
);
width = 275;
}
);
note = braceleft;
unicode = 007B;
},
{
glyphname = bar;
layers = (
{
layerId = "02396921-8257-42A3-8ED5-3052446F9CE3";
paths = (
{
closed = 1;
nodes = (
"-10 -115 LINE",
"-11 -118 OFFCURVE",
"-1 -123 OFFCURVE",
"4 -123 QCURVE SMOOTH",
"18 -123 OFFCURVE",
"44 -112 OFFCURVE",
"50 -106 QCURVE",
"218 766 LINE",
"219 769 OFFCURVE",
"209 773 OFFCURVE",
"203 773 QCURVE SMOOTH",
"175 773 OFFCURVE",
"159 757 QCURVE"
);
}
);
width = 203;
}
);
note = bar;
unicode = 007C;
},
{
glyphname = braceright;
layers = (
{
layerId = "02396921-8257-42A3-8ED5-3052446F9CE3";
paths = (
{
closed = 1;
nodes = (
"275 683 OFFCURVE",
"208 750 OFFCURVE",
"156 750 QCURVE SMOOTH",
"150 750 OFFCURVE",
"150 737 QCURVE SMOOTH",
"150 723 OFFCURVE",
"157 721 QCURVE",
"180 719 OFFCURVE",
"230 668 OFFCURVE",
"230 631 QCURVE SMOOTH",
"230 595 OFFCURVE",
"146 441 OFFCURVE",
"146 391 QCURVE SMOOTH",
"146 355 OFFCURVE",
"178 309 OFFCURVE",
"200 308 QCURVE",
"166 307 OFFCURVE",
"96 223 OFFCURVE",
"96 161 QCURVE SMOOTH",
"96 137 OFFCURVE",
"116 67 OFFCURVE",
"116 47 QCURVE SMOOTH",
"116 -14 OFFCURVE",
"28 -94 OFFCURVE",
"-1 -96 QCURVE",
"-6 -97 OFFCURVE",
"-17 -115 OFFCURVE",
"-17 -121 QCURVE SMOOTH",
"-17 -125 OFFCURVE",
"-14 -125 QCURVE SMOOTH",
"59 -125 OFFCURVE",
"169 11 OFFCURVE",
"169 79 QCURVE SMOOTH",
"169 100 OFFCURVE",
"152 180 OFFCURVE",
"152 199 QCURVE SMOOTH",
"152 214 OFFCURVE",
"158 239 OFFCURVE",
"173 256 OFFCURVE",
"185 268 OFFCURVE",
"209 279 OFFCURVE",
"222 283 OFFCURVE",
"249 291 OFFCURVE",
"253 292 QCURVE",
"260 306 OFFCURVE",
"260 321 QCURVE SMOOTH",
"260 327 OFFCURVE",
"259 329 QCURVE",
"236 336 OFFCURVE",
"212 346 OFFCURVE",
"188 371 OFFCURVE",
"188 390 QCURVE SMOOTH",
"188 413 OFFCURVE",
"215 468 OFFCURVE",
"248 513 OFFCURVE",
"275 585 OFFCURVE",
"275 623 QCURVE SMOOTH"
);
}
);
width = 268;
}
);
note = braceright;
unicode = 007D;
},
{
glyphname = asciitilde;
layers = (
{
layerId = "02396921-8257-42A3-8ED5-3052446F9CE3";
paths = (
{
closed = 1;
nodes = (
"114 354 OFFCURVE",
"19 297 OFFCURVE",
"19 269 QCURVE SMOOTH",
"19 265 OFFCURVE",
"25 259 QCURVE",
"48 276 OFFCURVE",
"65 288 OFFCURVE",
"101 303 OFFCURVE",
"118 303 QCURVE SMOOTH",
"162 303 OFFCURVE",
"285 250 OFFCURVE",
"329 250 QCURVE SMOOTH",
"379 250 OFFCURVE",
"464 310 OFFCURVE",
"464 335 QCURVE SMOOTH",
"464 339 OFFCURVE",
"458 345 QCURVE",
"435 328 OFFCURVE",
"418 316 OFFCURVE",
"382 301 OFFCURVE",
"365 301 QCURVE SMOOTH",
"321 301 OFFCURVE",
"201 354 OFFCURVE",
"157 354 QCURVE SMOOTH"
);
}
);
width = 473;
}
);
note = asciitilde;
unicode = 007E;
},
{
glyphname = exclamdown;
layers = (
{
layerId = "02396921-8257-42A3-8ED5-3052446F9CE3";
paths = (
{
closed = 1;
nodes = (
"41 -269 OFFCURVE",
"70 -232 OFFCURVE",
"75 -206 QCURVE",
"76 -199 OFFCURVE",
"136 257 QCURVE",
"136 269 OFFCURVE",
"119 278 QCURVE SMOOTH",
"115 280 OFFCURVE",
"105 266 OFFCURVE",
"103 256 QCURVE",
"61 92 OFFCURVE",
"17 -80 QCURVE SMOOTH",
"-16 -207 OFFCURVE",
"-16 -223 QCURVE SMOOTH",
"-16 -243 OFFCURVE",
"3 -269 OFFCURVE",
"21 -269 QCURVE SMOOTH"
);
},
{
closed = 1;
nodes = (
"92 349 OFFCURVE",
"116 324 OFFCURVE",
"135 324 QCURVE SMOOTH",
"160 324 OFFCURVE",
"200 365 OFFCURVE",
"200 393 QCURVE SMOOTH",
"200 413 OFFCURVE",
"176 440 OFFCURVE",
"157 440 QCURVE SMOOTH",
"132 440 OFFCURVE",
"92 397 OFFCURVE",
"92 369 QCURVE SMOOTH"
);
}
);
width = 197;
}
);
note = exclamdown;
unicode = 00A1;
},
{
glyphname = cent;
layers = (
{
layerId = "02396921-8257-42A3-8ED5-3052446F9CE3";
paths = (
{
closed = 1;
nodes = (
"208 435 OFFCURVE",
"57 256 OFFCURVE",
"57 152 QCURVE SMOOTH",
"57 116 OFFCURVE",
"75 51 OFFCURVE",
"133 -4 OFFCURVE",
"178 -4 QCURVE SMOOTH",
"221 -4 OFFCURVE",
"306 83 OFFCURVE",
"306 105 QCURVE",
"305 111 OFFCURVE",
"298 127 OFFCURVE",
"296 127 QCURVE",
"292 119 OFFCURVE",
"270 92 OFFCURVE",
"223 57 OFFCURVE",
"202 57 QCURVE SMOOTH",
"173 57 OFFCURVE",
"139 98 OFFCURVE",
"131 139 OFFCURVE",
"131 162 QCURVE SMOOTH",
"131 255 OFFCURVE",
"219 396 OFFCURVE",
"260 396 QCURVE SMOOTH",
"274 396 OFFCURVE",
"312 338 OFFCURVE",
"328 338 QCURVE SMOOTH",
"345 338 OFFCURVE",
"368 361 OFFCURVE",
"368 379 QCURVE SMOOTH",
"368 393 OFFCURVE",
"366 401 QCURVE",
"354 415 OFFCURVE",
"307 435 OFFCURVE",
"285 435 QCURVE SMOOTH"
);
},
{
closed = 1;
nodes = (
"117 -36 LINE",
"116 -45 OFFCURVE",
"148 -45 QCURVE",
"324 466 LINE",
"325 474 OFFCURVE",
"293 474 QCURVE"
);
}
);
width = 319;
}
);
note = cent;
unicode = 00A2;
},
{
glyphname = sterling;
layers = (
{
layerId = "02396921-8257-42A3-8ED5-3052446F9CE3";
paths = (
{
closed = 1;
nodes = (
"101 308 OFFCURVE",
"98 292 QCURVE",
"95 279 OFFCURVE",
"100 279 QCURVE SMOOTH",
"340 279 OFFCURVE",
"340 279 QCURVE",
"357 289 OFFCURVE",
"360 309 QCURVE",
"362 319 OFFCURVE",
"357 319 QCURVE SMOOTH",
"109 319 OFFCURVE",
"109 319 QCURVE"
);
},
{
closed = 1;
nodes = (
"216 263 OFFCURVE",
"240 425 OFFCURVE",
"244 444 QCURVE SMOOTH",
"250 475 OFFCURVE",
"262 519 OFFCURVE",
"284 568 OFFCURVE",
"318 593 OFFCURVE",
"340 593 QCURVE SMOOTH",
"359 593 OFFCURVE",
"391 539 OFFCURVE",
"410 539 QCURVE SMOOTH",
"426 539 OFFCURVE",
"446 578 OFFCURVE",
"449 598 QCURVE",
"434 635 OFFCURVE",
"385 635 QCURVE SMOOTH",
"310 635 OFFCURVE",
"192 517 OFFCURVE",
"174 423 QCURVE SMOOTH",
"171 406 OFFCURVE",
"151 258 OFFCURVE",
"149 249 QCURVE",
"125 118 OFFCURVE",
"102 82 QCURVE",
"95 73 OFFCURVE",
"56 27 OFFCURVE",
"44 10 QCURVE",
"43 4 OFFCURVE",
"50 -9 OFFCURVE",
"58 -9 QCURVE",
"103 29 OFFCURVE",
"135 29 QCURVE SMOOTH",
"156 29 OFFCURVE",
"273 -8 OFFCURVE",
"305 -8 QCURVE SMOOTH",
"374 -8 OFFCURVE",
"437 108 QCURVE SMOOTH",
"439 112 OFFCURVE",
"439 117 QCURVE SMOOTH",
"439 134 OFFCURVE",
"430 134 QCURVE",
"429 132 OFFCURVE",
"404 96 OFFCURVE",
"390 80 OFFCURVE",
"362 61 OFFCURVE",
"348 61 QCURVE SMOOTH",
"332 61 OFFCURVE",
"235 93 OFFCURVE",
"208 93 QCURVE SMOOTH",
"162 93 OFFCURVE",
"139 84 QCURVE",
"195 159 OFFCURVE",
"215 258 QCURVE SMOOTH"
);
}
);
width = 438;
}
);
note = sterling;
unicode = 00A3;
},
{
glyphname = currency;
layers = (
{
layerId = "02396921-8257-42A3-8ED5-3052446F9CE3";
paths = (
{
closed = 1;
nodes = (
"283 463 OFFCURVE",
"329 394 OFFCURVE",
"329 341 QCURVE SMOOTH",
"329 270 OFFCURVE",
"253 152 OFFCURVE",
"203 152 QCURVE SMOOTH",
"166 152 OFFCURVE",
"120 220 OFFCURVE",
"120 273 QCURVE SMOOTH",
"120 344 OFFCURVE",
"197 463 OFFCURVE",
"247 463 QCURVE SMOOTH"
);
},
{
closed = 1;
nodes = (
"209 496 OFFCURVE",
"161 465 QCURVE",
"124 520 LINE",
"108 516 OFFCURVE",
"74 489 OFFCURVE",
"74 481 QCURVE SMOOTH",
"74 480 OFFCURVE",
"75 480 OFFCURVE",
"75 479 QCURVE",
"112 423 LINE",
"50 355 OFFCURVE",
"50 268 QCURVE SMOOTH",
"50 234 OFFCURVE",
"62 205 QCURVE",
"2 154 LINE",
"3 138 OFFCURVE",
"20 109 OFFCURVE",
"28 109 QCURVE SMOOTH",
"31 109 OFFCURVE",
"32 110 QCURVE",
"91 160 LINE",
"129 120 OFFCURVE",
"189 120 QCURVE SMOOTH",
"244 120 OFFCURVE",
"295 155 QCURVE",
"332 100 LINE",
"348 104 OFFCURVE",
"382 131 OFFCURVE",
"382 139 QCURVE SMOOTH",
"382 140 OFFCURVE",
"381 140 OFFCURVE",
"381 141 QCURVE",
"342 199 LINE",
"398 267 OFFCURVE",
"398 347 QCURVE SMOOTH",
"398 380 OFFCURVE",
"387 410 QCURVE",
"454 466 LINE",
"453 482 OFFCURVE",
"436 511 OFFCURVE",
"428 511 QCURVE SMOOTH",
"425 511 OFFCURVE",
"424 510 QCURVE",
"358 455 LINE",
"320 496 OFFCURVE",
"262 496 QCURVE SMOOTH"
);
}
);
width = 447;
}
);
note = currency;
unicode = 00A4;
},
{
glyphname = yen;
layers = (
{
layerId = "02396921-8257-42A3-8ED5-3052446F9CE3";
paths = (
{
closed = 1;
nodes = (
"389 282 LINE",
"392 295 OFFCURVE",
"562 521 OFFCURVE",
"613 586 QCURVE",
"625 598 OFFCURVE",
"693 615 OFFCURVE",
"705 615 QCURVE SMOOTH",
"709 615 OFFCURVE",
"711 627 QCURVE SMOOTH",
"712 632 OFFCURVE",
"712 642 QCURVE",
"601 636 OFFCURVE",
"583 636 QCURVE SMOOTH",
"564 636 OFFCURVE",
"507 641 OFFCURVE",
"498 642 QCURVE",
"495 640 OFFCURVE",
"491 626 OFFCURVE",
"491 616 OFFCURVE",
"493 615 QCURVE",
"520 615 OFFCURVE",
"551 595 OFFCURVE",
"549 584 QCURVE SMOOTH",
"542 548 OFFCURVE",
"381 350 QCURVE",
"376 342 OFFCURVE",
"371 348 QCURVE",
"310 554 LINE SMOOTH",
"304 576 OFFCURVE",
"306 583 QCURVE",
"309 599 OFFCURVE",
"350 615 OFFCURVE",
"366 615 QCURVE SMOOTH",
"369 615 OFFCURVE",
"375 637 OFFCURVE",
"374 642 QCURVE",
"263 636 OFFCURVE",
"256 636 QCURVE SMOOTH",
"230 636 OFFCURVE",
"163 641 OFFCURVE",
"149 642 QCURVE",
"145 638 OFFCURVE",
"143 626 QCURVE SMOOTH",
"141 615 OFFCURVE",
"144 615 QCURVE SMOOTH",
"156 615 OFFCURVE",
"194 603 OFFCURVE",
"200 594 QCURVE SMOOTH",
"217 567 OFFCURVE",
"228 532 QCURVE SMOOTH",
"308 286 OFFCURVE",
"308 270 QCURVE",
"310 266 OFFCURVE",
"306 254 QCURVE",
"221 254 OFFCURVE",
"221 254 QCURVE",
"214 244 OFFCURVE",
"211 229 QCURVE SMOOTH",
"208 216 OFFCURVE",
"213 216 QCURVE SMOOTH",
"298 216 OFFCURVE",
"298 216 QCURVE",
"290 176 LINE",
"206 176 LINE",
"197 165 OFFCURVE",
"195 151 QCURVE",
"192 138 OFFCURVE",
"197 138 QCURVE SMOOTH",
"283 138 LINE",
"271 76 OFFCURVE",
"258 46 QCURVE",
"253 38 OFFCURVE",
"207 24 OFFCURVE",
"196 24 QCURVE SMOOTH",
"191 24 OFFCURVE",
"189 10 QCURVE SMOOTH",
"188 4 OFFCURVE",
"191 -3 QCURVE",
"294 2 OFFCURVE",
"298 2 QCURVE SMOOTH",
"307 2 OFFCURVE",
"397 -3 QCURVE",
"400 2 OFFCURVE",
"402 12 QCURVE SMOOTH",
"404 24 OFFCURVE",
"400 24 QCURVE SMOOTH",
"392 24 OFFCURVE",
"351 39 OFFCURVE",
"350 46 QCURVE",
"349 75 OFFCURVE",
"361 138 QCURVE",
"446 138 OFFCURVE",
"446 138 QCURVE",
"453 148 OFFCURVE",
"456 163 QCURVE SMOOTH",
"459 176 OFFCURVE",
"454 176 QCURVE SMOOTH",
"369 176 OFFCURVE",
"369 176 QCURVE",
"376 216 LINE",
"461 216 OFFCURVE",
"461 216 QCURVE",
"468 226 OFFCURVE",
"471 241 QCURVE SMOOTH",
"474 254 OFFCURVE",
"469 254 QCURVE SMOOTH",
"384 254 OFFCURVE",
"384 254 QCURVE"
);
}
);
width = 611;
}
);
note = yen;
unicode = 00A5;
},
{
glyphname = brokenbar;
layers = (
{
layerId = "02396921-8257-42A3-8ED5-3052446F9CE3";
paths = (
{
closed = 1;
nodes = (
"88 391 LINE",
"87 388 OFFCURVE",
"98 383 OFFCURVE",
"103 383 QCURVE SMOOTH",
"133 383 OFFCURVE",
"148 400 QCURVE",
"217 763 LINE",
"218 766 OFFCURVE",
"208 770 OFFCURVE",
"202 770 QCURVE SMOOTH",
"174 770 OFFCURVE",
"158 754 QCURVE"
);
},
{
closed = 1;
nodes = (
"-10 -115 LINE",
"-11 -118 OFFCURVE",
"-1 -123 OFFCURVE",
"4 -123 QCURVE SMOOTH",
"18 -123 OFFCURVE",
"44 -112 OFFCURVE",
"50 -106 QCURVE",
"119 257 LINE",
"120 260 OFFCURVE",
"110 264 OFFCURVE",
"104 264 QCURVE SMOOTH",
"76 264 OFFCURVE",
"60 248 QCURVE"
);
}
);
width = 203;
}
);
note = brokenbar;
unicode = 00A6;
},
{
glyphname = section;
layers = (
{
layerId = "02396921-8257-42A3-8ED5-3052446F9CE3";
paths = (
{
closed = 1;
nodes = (
"193 652 OFFCURVE",
"107 547 OFFCURVE",
"107 478 QCURVE SMOOTH",
"107 476 OFFCURVE",
"108 466 OFFCURVE",
"108 464 QCURVE",
"24 398 OFFCURVE",
"24 298 QCURVE SMOOTH",
"24 264 OFFCURVE",
"59 210 OFFCURVE",
"109 175 OFFCURVE",
"159 141 OFFCURVE",
"194 94 OFFCURVE",
"194 65 QCURVE SMOOTH",
"194 28 OFFCURVE",
"149 -27 OFFCURVE",
"119 -27 QCURVE SMOOTH",
"100 -27 OFFCURVE",
"79 3 OFFCURVE",
"63 34 OFFCURVE",
"51 34 QCURVE SMOOTH",
"33 34 OFFCURVE",
"11 0 OFFCURVE",
"9 -27 QCURVE",
"23 -63 OFFCURVE",
"82 -63 QCURVE SMOOTH",
"166 -63 OFFCURVE",
"246 46 OFFCURVE",
"246 111 QCURVE SMOOTH",
"246 114 OFFCURVE",
"245 123 OFFCURVE",
"245 125 QCURVE",
"328 188 OFFCURVE",
"328 290 QCURVE SMOOTH",
"328 324 OFFCURVE",
"293 378 OFFCURVE",
"243 413 OFFCURVE",
"193 447 OFFCURVE",
"158 494 OFFCURVE",
"158 523 QCURVE SMOOTH",
"158 561 OFFCURVE",
"203 614 OFFCURVE",
"233 614 QCURVE SMOOTH",
"252 614 OFFCURVE",
"274 584 OFFCURVE",
"290 555 OFFCURVE",
"302 555 QCURVE SMOOTH",
"339 555 OFFCURVE",
"344 615 QCURVE",
"329 652 OFFCURVE",
"272 652 QCURVE SMOOTH"
);
},
{
closed = 1;
nodes = (
"76 373 OFFCURVE",
"81 389 QCURVE",
"89 409 OFFCURVE",
"115 429 QCURVE",
"126 399 OFFCURVE",
"182 348 OFFCURVE",
"234 318 OFFCURVE",
"276 267 OFFCURVE",
"276 235 QCURVE SMOOTH",
"276 186 OFFCURVE",
"238 159 QCURVE",
"227 189 OFFCURVE",
"171 240 OFFCURVE",
"118 270 OFFCURVE",
"76 322 OFFCURVE",
"76 354 QCURVE SMOOTH"
);
}
);
width = 348;
}
);
note = section;
unicode = 00A7;
},
{
glyphname = dieresis;
layers = (
{
layerId = "02396921-8257-42A3-8ED5-3052446F9CE3";
paths = (
{
closed = 1;
nodes = (
"217 577 OFFCURVE",
"188 544 OFFCURVE",
"188 521 QCURVE SMOOTH",
"188 503 OFFCURVE",
"206 477 OFFCURVE",
"222 477 QCURVE SMOOTH",
"245 477 OFFCURVE",
"276 513 OFFCURVE",
"276 537 QCURVE SMOOTH",
"276 553 OFFCURVE",
"254 577 OFFCURVE",
"239 577 QCURVE SMOOTH"
);
},
{
closed = 1;
nodes = (
"48 577 OFFCURVE",
"19 544 OFFCURVE",
"19 521 QCURVE SMOOTH",
"19 503 OFFCURVE",
"37 477 OFFCURVE",
"53 477 QCURVE SMOOTH",
"76 477 OFFCURVE",
"107 513 OFFCURVE",
"107 537 QCURVE SMOOTH",
"107 553 OFFCURVE",
"85 577 OFFCURVE",
"70 577 QCURVE SMOOTH"
);
}
);
width = 285;
}
);
note = dieresis;
unicode = 00A8;
},
{
glyphname = copyright;
layers = (
{
layerId = "02396921-8257-42A3-8ED5-3052446F9CE3";
paths = (
{
closed = 1;
nodes = (
"244 483 OFFCURVE",
"146 374 OFFCURVE",
"146 307 QCURVE SMOOTH",
"146 258 OFFCURVE",
"207 195 OFFCURVE",
"255 195 QCURVE SMOOTH",
"310 195 OFFCURVE",
"357 214 QCURVE",
"361 216 OFFCURVE",
"385 268 OFFCURVE",
"388 276 QCURVE",
"374 280 LINE",
"372 280 OFFCURVE",
"370 279 QCURVE",
"369 278 OFFCURVE",
"361 261 OFFCURVE",
"351 250 OFFCURVE",
"333 235 OFFCURVE",
"300 227 OFFCURVE",
"279 227 QCURVE SMOOTH",
"248 227 OFFCURVE",
"201 273 OFFCURVE",
"201 315 QCURVE SMOOTH",
"201 370 OFFCURVE",
"271 449 OFFCURVE",
"314 449 QCURVE SMOOTH",
"337 449 OFFCURVE",
"370 437 OFFCURVE",
"384 418 OFFCURVE",
"390 402 OFFCURVE",
"390 396 QCURVE",
"392 394 OFFCURVE",
"396 394 QCURVE SMOOTH",
"412 394 OFFCURVE",
"412 406 QCURVE SMOOTH",
"412 442 OFFCURVE",
"411 456 QCURVE",
"411 460 OFFCURVE",
"409 464 QCURVE",
"367 483 OFFCURVE",
"309 483 QCURVE SMOOTH"
);
},
{
closed = 1;
nodes = (
"216 615 OFFCURVE",
"24 415 OFFCURVE",
"24 286 QCURVE SMOOTH",
"24 192 OFFCURVE",
"138 69 OFFCURVE",
"229 69 QCURVE SMOOTH",
"349 69 OFFCURVE",
"542 269 OFFCURVE",
"542 398 QCURVE SMOOTH",
"542 492 OFFCURVE",
"427 615 OFFCURVE",
"336 615 QCURVE SMOOTH"
);
},
{
closed = 1;
nodes = (
"410 584 OFFCURVE",
"513 474 OFFCURVE",
"513 391 QCURVE SMOOTH",
"513 277 OFFCURVE",
"341 100 OFFCURVE",
"236 100 QCURVE SMOOTH",
"156 100 OFFCURVE",
"54 209 OFFCURVE",
"54 292 QCURVE SMOOTH",
"54 406 OFFCURVE",
"225 584 OFFCURVE",
"330 584 QCURVE SMOOTH"
);
}
);
width = 547;
}
);
note = copyright;
unicode = 00A9;
},
{
glyphname = ordfeminine;
layers = (
{
layerId = "02396921-8257-42A3-8ED5-3052446F9CE3";
paths = (
{
closed = 1;
nodes = (
"170 556 OFFCURVE",
"27 402 OFFCURVE",
"27 322 QCURVE SMOOTH",
"27 249 OFFCURVE",
"87 249 QCURVE SMOOTH",
"117 249 OFFCURVE",
"192 321 OFFCURVE",
"204 347 QCURVE",
"204 348 OFFCURVE",
"204 349 OFFCURVE",
"205 349 QCURVE",
"206 347 LINE",
"204 330 LINE",
"201 312 OFFCURVE",
"201 301 QCURVE SMOOTH",
"201 250 OFFCURVE",
"240 250 QCURVE SMOOTH",
"263 250 OFFCURVE",
"308 307 OFFCURVE",
"315 326 QCURVE",
"312 341 OFFCURVE",
"308 341 QCURVE",
"290 316 LINE SMOOTH",
"272 290 OFFCURVE",
"264 290 QCURVE SMOOTH",
"249 290 OFFCURVE",
"249 316 QCURVE SMOOTH",
"249 329 OFFCURVE",
"252 345 QCURVE SMOOTH",
"290 546 LINE",
"280 556 OFFCURVE",
"233 556 QCURVE SMOOTH"
);
},
{
closed = 1;
nodes = (
"233 530 OFFCURVE",
"233 521 QCURVE SMOOTH",
"233 520 OFFCURVE",
"232 514 OFFCURVE",
"232 513 QCURVE",
"219 442 LINE SMOOTH",
"210 393 OFFCURVE",
"138 290 OFFCURVE",
"116 290 QCURVE SMOOTH",
"86 290 OFFCURVE",
"86 338 QCURVE SMOOTH",
"86 394 OFFCURVE",
"183 530 OFFCURVE",
"228 530 QCURVE SMOOTH"
);
}
);
width = 319;
}
);
note = ordfeminine;
unicode = 00AA;
},
{
glyphname = guillemotleft;
layers = (
{
layerId = "02396921-8257-42A3-8ED5-3052446F9CE3";
paths = (
{
closed = 1;
nodes = (
"394 413 OFFCURVE",
"345 374 OFFCURVE",
"236 298 OFFCURVE",
"183 268 QCURVE",
"171 256 OFFCURVE",
"171 237 QCURVE SMOOTH",
"171 230 OFFCURVE",
"175 227 QCURVE SMOOTH",
"229 186 OFFCURVE",
"325 90 OFFCURVE",
"336 73 QCURVE",
"337 73 OFFCURVE",
"347 77 OFFCURVE",
"355 80 OFFCURVE",
"362 87 OFFCURVE",
"362 95 OFFCURVE",
"355 108 OFFCURVE",
"345 121 OFFCURVE",
"325 146 OFFCURVE",
"317 157 QCURVE SMOOTH",
"254 247 LINE",
"264 255 OFFCURVE",
"339 326 OFFCURVE",
"353 338 QCURVE SMOOTH",
"389 368 OFFCURVE",
"420 397 OFFCURVE",
"423 402 OFFCURVE",
"423 407 QCURVE SMOOTH",
"423 417 OFFCURVE",
"405 423 QCURVE"
);
},
{
closed = 1;
nodes = (
"97 255 OFFCURVE",
"172 326 OFFCURVE",
"186 338 QCURVE SMOOTH",
"222 368 OFFCURVE",
"253 397 OFFCURVE",
"256 402 OFFCURVE",
"256 407 QCURVE SMOOTH",
"256 418 OFFCURVE",
"239 423 QCURVE",
"234 418 OFFCURVE",
"182 377 OFFCURVE",
"71 299 OFFCURVE",
"16 268 QCURVE",
"4 256 OFFCURVE",
"4 237 QCURVE SMOOTH",
"4 230 OFFCURVE",
"8 227 QCURVE SMOOTH",
"62 186 OFFCURVE",
"158 90 OFFCURVE",
"169 73 QCURVE",
"174 74 LINE",
"178 76 OFFCURVE",
"188 80 OFFCURVE",
"196 88 OFFCURVE",
"196 92 QCURVE SMOOTH",
"196 97 OFFCURVE",
"191 106 OFFCURVE",
"175 126 OFFCURVE",
"153 152 OFFCURVE",
"111 211 OFFCURVE",
"87 247 QCURVE"
);
}
);
width = 416;
}
);
note = guillemotleft;
unicode = 00AB;
},
{
glyphname = logicalnot;
layers = (
{
layerId = "02396921-8257-42A3-8ED5-3052446F9CE3";
paths = (
{
closed = 1;
nodes = (
"33 420 OFFCURVE",
"19 395 OFFCURVE",
"19 382 QCURVE SMOOTH",
"19 376 OFFCURVE",
"22 364 QCURVE",
"387 364 LINE SMOOTH",
"397 364 OFFCURVE",
"397 355 QCURVE SMOOTH",
"397 354 LINE",
"360 168 LINE",
"359 164 OFFCURVE",
"368 160 OFFCURVE",
"374 160 QCURVE SMOOTH",
"407 160 OFFCURVE",
"416 169 QCURVE",
"463 409 LINE SMOOTH",
"465 420 OFFCURVE",
"454 420 QCURVE SMOOTH",
"40 420 LINE SMOOTH"
);
}
);
width = 474;
}
);
note = logicalnot;
unicode = 00AC;
},
{
glyphname = registered;
layers = (
{
layerId = "02396921-8257-42A3-8ED5-3052446F9CE3";
paths = (
{
closed = 1;
nodes = (
"342 529 OFFCURVE",
"342 491 QCURVE SMOOTH",
"342 466 OFFCURVE",
"315 428 OFFCURVE",
"292 428 QCURVE SMOOTH",
"254 428 OFFCURVE",
"254 440 QCURVE",
"254 440 OFFCURVE",
"256 443 OFFCURVE",
"256 444 QCURVE",
"270 519 LINE SMOOTH",
"272 529 OFFCURVE",
"304 529 QCURVE SMOOTH"
);
},
{
closed = 1;
nodes = (
"301 554 OFFCURVE",
"258 550 OFFCURVE",
"244 550 QCURVE SMOOTH",
"235 550 OFFCURVE",
"207 553 OFFCURVE",
"201 553 QCURVE",
"201 552 OFFCURVE",
"198 545 OFFCURVE",
"198 543 QCURVE SMOOTH",
"198 541 OFFCURVE",
"200 541 QCURVE SMOOTH",
"207 541 OFFCURVE",
"222 534 OFFCURVE",
"222 528 QCURVE SMOOTH",
"222 521 OFFCURVE",
"218 499 QCURVE SMOOTH",
"185 330 LINE",
"184 323 OFFCURVE",
"180 302 OFFCURVE",
"179 298 OFFCURVE",
"172 289 OFFCURVE",
"160 287 OFFCURVE",
"148 285 QCURVE",
"148 284 OFFCURVE",
"145 281 OFFCURVE",
"145 280 QCURVE SMOOTH",
"145 278 OFFCURVE",
"146 274 OFFCURVE",
"146 272 QCURVE",
"188 274 OFFCURVE",
"201 274 QCURVE SMOOTH",
"213 274 OFFCURVE",
"251 272 QCURVE",
"253 280 OFFCURVE",
"253 282 QCURVE SMOOTH",
"253 285 OFFCURVE",
"252 285 QCURVE SMOOTH",
"245 285 OFFCURVE",
"233 291 QCURVE",
"230 292 OFFCURVE",
"230 299 QCURVE SMOOTH",
"230 310 LINE",
"247 399 LINE",
"249 407 OFFCURVE",
"260 407 QCURVE SMOOTH",
"274 407 OFFCURVE",
"277 398 QCURVE",
"309 316 OFFCURVE",
"346 272 OFFCURVE",
"388 272 QCURVE SMOOTH",
"400 272 OFFCURVE",
"406 275 QCURVE",
"408 279 OFFCURVE",
"408 286 QCURVE",
"398 286 OFFCURVE",
"380 299 OFFCURVE",
"370 316 OFFCURVE",
"361 333 QCURVE SMOOTH",
"333 388 OFFCURVE",
"329 410 QCURVE",
"329 411 LINE SMOOTH",
"329 413 OFFCURVE",
"330 414 QCURVE",
"388 443 OFFCURVE",
"388 493 QCURVE SMOOTH",
"388 522 OFFCURVE",
"345 554 OFFCURVE",
"314 554 QCURVE SMOOTH"
);
},
{
closed = 1;
nodes = (
"13 294 OFFCURVE",
"130 133 OFFCURVE",
"341 133 OFFCURVE",
"522 294 OFFCURVE",
"565 520 OFFCURVE",
"447 680 OFFCURVE",
"236 680 OFFCURVE",
"56 520 OFFCURVE"
);
},
{
closed = 1;
nodes = (
"495 307 OFFCURVE",
"335 165 OFFCURVE",
"150 165 OFFCURVE",
"46 307 OFFCURVE",
"85 507 OFFCURVE",
"244 648 OFFCURVE",
"429 648 OFFCURVE",
"534 507 OFFCURVE"
);
}
);
width = 547;
}
);
note = registered;
unicode = 00AE;
},
{
glyphname = macron;
layers = (
{
layerId = "02396921-8257-42A3-8ED5-3052446F9CE3";
paths = (
{
closed = 1;
nodes = (
"37 591 OFFCURVE",
"25 566 OFFCURVE",
"25 558 QCURVE SMOOTH",
"25 539 OFFCURVE",
"30 539 QCURVE SMOOTH",
"231 539 LINE",
"236 542 OFFCURVE",
"249 569 OFFCURVE",
"249 578 QCURVE SMOOTH",
"249 596 OFFCURVE",
"241 596 QCURVE SMOOTH",
"43 596 LINE"
);
}
);
width = 261;
}
);
note = macron;
unicode = 00AF;
},
{
glyphname = degree;
layers = (
{
layerId = "02396921-8257-42A3-8ED5-3052446F9CE3";
paths = (
{
closed = 1;
nodes = (
"140 597 OFFCURVE",
"165 569 OFFCURVE",
"165 548 QCURVE SMOOTH",
"165 519 OFFCURVE",
"122 474 OFFCURVE",
"96 474 QCURVE SMOOTH",
"75 474 OFFCURVE",
"50 503 OFFCURVE",
"50 524 QCURVE SMOOTH",
"50 554 OFFCURVE",
"92 597 OFFCURVE",
"119 597 QCURVE SMOOTH"
);
},
{
closed = 1;
nodes = (
"85 634 OFFCURVE",
"14 564 OFFCURVE",
"14 517 QCURVE SMOOTH",
"14 483 OFFCURVE",
"56 437 OFFCURVE",
"89 437 QCURVE SMOOTH",
"131 437 OFFCURVE",
"201 509 OFFCURVE",
"201 555 QCURVE SMOOTH",
"201 589 OFFCURVE",
"159 634 OFFCURVE",
"126 634 QCURVE SMOOTH"
);
}
);
width = 201;
}
);
note = degree;
unicode = 00B0;
},
{
glyphname = plusminus;
layers = (
{
layerId = "02396921-8257-42A3-8ED5-3052446F9CE3";
paths = (
{
closed = 1;
nodes = (
"-8 64 OFFCURVE",
"-8 45 QCURVE SMOOTH",
"-8 36 OFFCURVE",
"-3 36 QCURVE SMOOTH",
"427 36 LINE",
"448 59 OFFCURVE",
"448 83 QCURVE SMOOTH",
"448 92 OFFCURVE",
"444 92 QCURVE SMOOTH",
"14 92 LINE"
);
},
{
closed = 1;
nodes = (
"50 361 OFFCURVE",
"50 342 QCURVE SMOOTH",
"50 333 OFFCURVE",
"55 333 QCURVE SMOOTH",
"234 333 LINE SMOOTH",
"238 333 OFFCURVE",
"238 328 QCURVE",
"227 272 OFFCURVE",
"202 132 QCURVE",
"201 129 OFFCURVE",
"209 123 OFFCURVE",
"217 123 QCURVE SMOOTH",
"232 123 OFFCURVE",
"266 133 OFFCURVE",
"267 141 QCURVE",
"302 329 LINE",
"302 333 OFFCURVE",
"306 333 QCURVE SMOOTH",
"485 333 LINE",
"506 356 OFFCURVE",
"506 380 QCURVE SMOOTH",
"506 389 OFFCURVE",
"502 389 QCURVE SMOOTH",
"321 389 LINE SMOOTH",
"316 389 OFFCURVE",
"318 394 QCURVE",
"330 456 OFFCURVE",
"353 590 QCURVE",
"354 594 OFFCURVE",
"349 599 OFFCURVE",
"343 599 QCURVE SMOOTH",
"333 599 OFFCURVE",
"289 590 OFFCURVE",
"287 581 QCURVE SMOOTH",
"280 545 OFFCURVE",
"260 422 OFFCURVE",
"254 393 QCURVE",
"254 389 OFFCURVE",
"250 389 QCURVE SMOOTH",
"72 389 LINE"
);
}
);
width = 497;
}
);
note = plusminus;
unicode = 00B1;
},
{
glyphname = uni00B2;
layers = (
{
layerId = "02396921-8257-42A3-8ED5-3052446F9CE3";
paths = (
{
closed = 1;
nodes = (
"303 599 OFFCURVE",
"257 647 OFFCURVE",
"220 647 QCURVE SMOOTH",
"184 647 OFFCURVE",
"107 601 OFFCURVE",
"95 584 QCURVE",
"92 578 OFFCURVE",
"92 572 QCURVE SMOOTH",
"92 567 OFFCURVE",
"98 551 OFFCURVE",
"100 551 QCURVE SMOOTH",
"101 551 OFFCURVE",
"170 594 OFFCURVE",
"183 594 QCURVE SMOOTH",
"206 594 OFFCURVE",
"229 564 OFFCURVE",
"229 544 QCURVE SMOOTH",
"229 531 OFFCURVE",
"218 503 OFFCURVE",
"192 467 OFFCURVE",
"168 438 OFFCURVE",
"121 390 OFFCURVE",
"90 361 OFFCURVE",
"29 302 OFFCURVE",
"13 287 QCURVE",
"9 280 OFFCURVE",
"9 273 QCURVE SMOOTH",
"9 256 OFFCURVE",
"14 254 QCURVE",
"136 255 LINE",
"248 254 LINE",
"252 264 OFFCURVE",
"266 302 OFFCURVE",
"278 330 OFFCURVE",
"285 343 QCURVE",
"279 347 OFFCURVE",
"270 347 QCURVE SMOOTH",
"268 347 OFFCURVE",
"256 328 OFFCURVE",
"235 310 OFFCURVE",
"221 310 QCURVE SMOOTH",
"94 310 LINE SMOOTH",
"93 310 OFFCURVE",
"93 311 QCURVE SMOOTH",
"93 316 OFFCURVE",
"159 366 OFFCURVE",
"237 428 OFFCURVE",
"303 520 OFFCURVE",
"303 563 QCURVE SMOOTH"
);
}
);
width = 302;
}
);
note = uni00B2;
unicode = 00B2;
},
{
glyphname = uni00B3;
layers = (
{
layerId = "02396921-8257-42A3-8ED5-3052446F9CE3";
paths = (
{
closed = 1;
nodes = (
"88 283 OFFCURVE",
"56 317 OFFCURVE",
"30 317 OFFCURVE",
"8 290 OFFCURVE",
"7 273 QCURVE",
"10 264 OFFCURVE",
"52 247 OFFCURVE",
"79 247 QCURVE SMOOTH",
"160 247 OFFCURVE",
"274 345 OFFCURVE",
"274 402 QCURVE SMOOTH",
"274 438 OFFCURVE",
"223 484 OFFCURVE",
"201 484 QCURVE",
"203 485 OFFCURVE",
"206 487 QCURVE",
"228 500 OFFCURVE",
"252 517 OFFCURVE",
"281 559 OFFCURVE",
"281 583 QCURVE SMOOTH",
"281 612 OFFCURVE",
"239 647 OFFCURVE",
"217 647 QCURVE SMOOTH",
"145 647 OFFCURVE",
"94 593 QCURVE",
"94 584 LINE",
"93 576 OFFCURVE",
"95 559 OFFCURVE",
"99 559 QCURVE SMOOTH",
"101 559 OFFCURVE",
"152 596 OFFCURVE",
"176 596 QCURVE SMOOTH",
"192 596 OFFCURVE",
"216 577 OFFCURVE",
"216 562 QCURVE SMOOTH",
"216 539 OFFCURVE",
"170 480 OFFCURVE",
"113 468 QCURVE",
"102 465 OFFCURVE",
"102 452 QCURVE SMOOTH",
"102 446 OFFCURVE",
"107 438 QCURVE",
"152 444 OFFCURVE",
"156 444 QCURVE SMOOTH",
"178 444 OFFCURVE",
"206 416 OFFCURVE",
"206 391 QCURVE SMOOTH",
"206 346 OFFCURVE",
"144 283 OFFCURVE",
"104 283 QCURVE SMOOTH"
);
}
);
width = 279;
}
);
note = uni00B3;
unicode = 00B3;
},
{
glyphname = acute;
layers = (
{
layerId = "02396921-8257-42A3-8ED5-3052446F9CE3";
paths = (
{
closed = 1;
nodes = (
"139 687 OFFCURVE",
"122 670 QCURVE SMOOTH",
"107 655 OFFCURVE",
"22 550 OFFCURVE",
"22 543 QCURVE SMOOTH",
"22 539 OFFCURVE",
"29 527 OFFCURVE",
"32 527 QCURVE SMOOTH",
"44 527 OFFCURVE",
"203 642 OFFCURVE",
"203 666 QCURVE SMOOTH",
"203 687 OFFCURVE",
"170 687 QCURVE SMOOTH"
);
}
);
width = 207;
}
);
note = acute;
unicode = 00B4;
},
{
glyphname = paragraph;
layers = (
{
layerId = "02396921-8257-42A3-8ED5-3052446F9CE3";
paths = (
{
closed = 1;
nodes = (
"211 292 OFFCURVE",
"217 293 QCURVE",
"228 294 OFFCURVE",
"246 297 OFFCURVE",
"254 299 OFFCURVE",
"255 299 QCURVE SMOOTH",
"257 299 OFFCURVE",
"257 295 QCURVE",
"220 100 OFFCURVE",
"207 50 QCURVE",
"206 45 OFFCURVE",
"193 36 OFFCURVE",
"186 36 QCURVE SMOOTH",
"166 36 OFFCURVE",
"166 47 QCURVE SMOOTH",
"166 49 LINE",
"210 286 LINE SMOOTH"
);
},
{
closed = 1;
nodes = (
"147 652 OFFCURVE",
"21 518 OFFCURVE",
"21 438 QCURVE SMOOTH",
"21 380 OFFCURVE",
"86 291 OFFCURVE",
"149 291 QCURVE SMOOTH",
"167 291 OFFCURVE",
"167 286 QCURVE SMOOTH",
"167 283 OFFCURVE",
"148 179 OFFCURVE",
"123 60 OFFCURVE",
"116 45 QCURVE SMOOTH",
"113 38 OFFCURVE",
"63 23 OFFCURVE",
"55 23 QCURVE SMOOTH",
"52 23 OFFCURVE",
"47 5 OFFCURVE",
"47 -2 QCURVE SMOOTH",
"47 -4 LINE",
"60 -3 OFFCURVE",
"103 0 OFFCURVE",
"140 2 OFFCURVE",
"159 2 QCURVE SMOOTH",
"193 2 OFFCURVE",
"293 -3 OFFCURVE",
"309 -4 QCURVE",
"316 1 OFFCURVE",
"316 18 QCURVE SMOOTH",
"316 23 OFFCURVE",
"314 23 QCURVE SMOOTH",
"304 23 OFFCURVE",
"257 37 OFFCURVE",
"257 47 QCURVE SMOOTH",
"257 58 OFFCURVE",
"270 138 OFFCURVE",
"284 215 OFFCURVE",
"300 300 OFFCURVE",
"301 304 QCURVE",
"301 306 OFFCURVE",
"308 309 QCURVE",
"333 316 LINE SMOOTH",
"356 323 OFFCURVE",
"356 346 QCURVE SMOOTH",
"356 351 OFFCURVE",
"355 354 QCURVE",
"314 346 LINE",
"312 346 LINE SMOOTH",
"310 346 OFFCURVE",
"310 349 QCURVE SMOOTH",
"310 350 OFFCURVE",
"332 469 OFFCURVE",
"357 597 OFFCURVE",
"361 604 QCURVE",
"366 612 OFFCURVE",
"410 624 OFFCURVE",
"421 624 QCURVE SMOOTH",
"428 624 OFFCURVE",
"428 646 QCURVE SMOOTH",
"428 652 OFFCURVE",
"427 653 QCURVE",
"322 648 LINE",
"294 648 OFFCURVE",
"246 652 OFFCURVE",
"218 652 QCURVE SMOOTH"
);
},
{
closed = 1;
nodes = (
"275 611 OFFCURVE",
"296 611 QCURVE SMOOTH",
"303 611 OFFCURVE",
"315 604 OFFCURVE",
"315 601 QCURVE SMOOTH",
"315 597 OFFCURVE",
"293 478 OFFCURVE",
"269 348 OFFCURVE",
"268 344 QCURVE",
"266 338 OFFCURVE",
"262 338 QCURVE",
"226 332 LINE",
"219 332 OFFCURVE",
"219 337 QCURVE SMOOTH",
"219 340 OFFCURVE",
"235 421 OFFCURVE",
"255 514 OFFCURVE",
"273 597 OFFCURVE",
"273 599 QCURVE"
);
}
);
width = 414;
}
);
note = paragraph;
unicode = 00B6;
},
{
glyphname = periodcentered;
layers = (
{
layerId = "02396921-8257-42A3-8ED5-3052446F9CE3";
paths = (
{
closed = 1;
nodes = (
"10 232 OFFCURVE",
"35 205 OFFCURVE",
"54 205 QCURVE SMOOTH",
"79 205 OFFCURVE",
"120 248 OFFCURVE",
"120 276 QCURVE SMOOTH",
"120 296 OFFCURVE",
"96 322 OFFCURVE",
"77 322 QCURVE SMOOTH",
"52 322 OFFCURVE",
"10 279 OFFCURVE",
"10 252 QCURVE SMOOTH"
);
}
);
width = 131;
}
);
note = periodcentered;
unicode = 00B7;
},
{
glyphname = cedilla;
layers = (
{
layerId = "02396921-8257-42A3-8ED5-3052446F9CE3";
paths = (
{
closed = 1;
nodes = (
"77 -18 OFFCURVE",
"56 -44 OFFCURVE",
"47 -55 OFFCURVE",
"47 -57 QCURVE SMOOTH",
"47 -60 OFFCURVE",
"52 -68 OFFCURVE",
"54 -68 QCURVE",
"72 -61 OFFCURVE",
"79 -61 QCURVE SMOOTH",
"89 -61 OFFCURVE",
"103 -74 OFFCURVE",
"103 -87 QCURVE SMOOTH",
"103 -105 OFFCURVE",
"75 -128 OFFCURVE",
"55 -128 QCURVE SMOOTH",
"47 -128 OFFCURVE",
"28 -115 OFFCURVE",
"23 -115 QCURVE SMOOTH",
"19 -115 OFFCURVE",
"8 -124 OFFCURVE",
"8 -134 QCURVE SMOOTH",
"8 -143 LINE",
"19 -152 OFFCURVE",
"37 -152 QCURVE SMOOTH",
"84 -152 OFFCURVE",
"141 -96 OFFCURVE",
"141 -65 QCURVE SMOOTH",
"141 -49 OFFCURVE",
"123 -27 OFFCURVE",
"108 -27 QCURVE SMOOTH",
"86 -27 LINE",
"106 -4 LINE",
"87 -4 LINE"
);
}
);
width = 161;
}
);
note = cedilla;
unicode = 00B8;
},
{
glyphname = uni00B9;
layers = (
{
layerId = "02396921-8257-42A3-8ED5-3052446F9CE3";
paths = (
{
closed = 1;
nodes = (
"44 576 OFFCURVE",
"44 566 QCURVE SMOOTH",
"44 553 OFFCURVE",
"52 551 QCURVE",
"106 569 OFFCURVE",
"112 569 QCURVE SMOOTH",
"122 569 OFFCURVE",
"122 557 QCURVE SMOOTH",
"122 555 OFFCURVE",
"116 513 QCURVE",
"83 340 LINE SMOOTH",
"76 301 OFFCURVE",
"68 292 QCURVE",
"65 288 OFFCURVE",
"23 278 OFFCURVE",
"14 278 QCURVE SMOOTH",
"7 278 OFFCURVE",
"7 258 QCURVE SMOOTH",
"7 254 OFFCURVE",
"8 253 QCURVE",
"19 253 OFFCURVE",
"81 256 OFFCURVE",
"123 256 OFFCURVE",
"182 253 OFFCURVE",
"193 253 QCURVE",
"197 259 OFFCURVE",
"197 272 QCURVE SMOOTH",
"197 279 OFFCURVE",
"195 279 QCURVE SMOOTH",
"188 279 OFFCURVE",
"155 288 OFFCURVE",
"152 293 QCURVE",
"148 298 OFFCURVE",
"148 310 QCURVE SMOOTH",
"148 316 OFFCURVE",
"152 340 QCURVE SMOOTH",
"192 548 LINE SMOOTH",
"199 587 OFFCURVE",
"216 629 QCURVE",
"216 652 OFFCURVE",
"210 652 QCURVE SMOOTH",
"206 652 OFFCURVE",
"162 632 OFFCURVE",
"80 592 OFFCURVE",
"51 579 QCURVE SMOOTH"
);
}
);
width = 218;
}
);
note = uni00B9;
unicode = 00B9;
},
{
glyphname = ordmasculine;
layers = (
{
layerId = "02396921-8257-42A3-8ED5-3052446F9CE3";
paths = (
{
closed = 1;
nodes = (
"246 529 OFFCURVE",
"246 441 QCURVE SMOOTH",
"246 410 OFFCURVE",
"238 356 OFFCURVE",
"219 303 OFFCURVE",
"180 271 OFFCURVE",
"153 271 QCURVE SMOOTH",
"95 271 OFFCURVE",
"95 364 QCURVE SMOOTH",
"95 407 OFFCURVE",
"111 477 OFFCURVE",
"156 529 OFFCURVE",
"191 529 QCURVE SMOOTH"
);
},
{
closed = 1;
nodes = (
"129 554 OFFCURVE",
"29 438 OFFCURVE",
"29 367 QCURVE SMOOTH",
"29 316 OFFCURVE",
"92 247 OFFCURVE",
"141 247 QCURVE SMOOTH",
"212 247 OFFCURVE",
"312 361 OFFCURVE",
"312 432 QCURVE SMOOTH",
"312 484 OFFCURVE",
"250 554 OFFCURVE",
"201 554 QCURVE SMOOTH"
);
}
);
width = 312;
}
);
note = ordmasculine;
unicode = 00BA;
},
{
glyphname = guillemotright;
layers = (
{
layerId = "02396921-8257-42A3-8ED5-3052446F9CE3";
paths = (
{
closed = 1;
nodes = (
"82 422 OFFCURVE",
"72 419 OFFCURVE",
"65 416 OFFCURVE",
"59 408 OFFCURVE",
"59 402 QCURVE SMOOTH",
"59 391 OFFCURVE",
"102 338 QCURVE",
"166 247 LINE",
"68 157 LINE SMOOTH",
"56 146 OFFCURVE",
"38 131 QCURVE SMOOTH",
"10 107 OFFCURVE",
"-2 94 OFFCURVE",
"-2 88 QCURVE SMOOTH",
"-2 78 OFFCURVE",
"16 73 QCURVE",
"41 94 LINE SMOOTH",
"66 114 OFFCURVE",
"177 191 OFFCURVE",
"238 227 QCURVE",
"248 231 OFFCURVE",
"248 252 QCURVE SMOOTH",
"248 262 OFFCURVE",
"245 268 QCURVE",
"198 301 OFFCURVE",
"98 401 OFFCURVE",
"83 423 QCURVE"
);
},
{
closed = 1;
nodes = (
"246 422 LINE",
"242 420 OFFCURVE",
"236 418 OFFCURVE",
"229 413 OFFCURVE",
"225 406 OFFCURVE",
"225 401 QCURVE SMOOTH",
"225 392 OFFCURVE",
"269 338 QCURVE",
"333 247 LINE",
"235 157 LINE SMOOTH",
"223 146 OFFCURVE",
"205 131 QCURVE SMOOTH",
"177 107 OFFCURVE",
"165 94 OFFCURVE",
"165 88 QCURVE SMOOTH",
"165 78 OFFCURVE",
"183 73 QCURVE",
"210 94 LINE",
"236 116 OFFCURVE",
"346 193 OFFCURVE",
"404 227 QCURVE",
"415 231 OFFCURVE",
"415 254 QCURVE SMOOTH",
"415 263 OFFCURVE",
"411 268 QCURVE",
"364 302 OFFCURVE",
"263 403 OFFCURVE",
"250 423 QCURVE"
);
}
);
width = 425;
}
);
note = guillemotright;
unicode = 00BB;
},
{
glyphname = onequarter;
layers = (
{
layerId = "02396921-8257-42A3-8ED5-3052446F9CE3";
paths = (
{
closed = 1;
nodes = (
"36 576 OFFCURVE",
"36 566 QCURVE SMOOTH",
"36 553 OFFCURVE",
"44 551 QCURVE",
"98 569 OFFCURVE",
"104 569 QCURVE SMOOTH",
"114 569 OFFCURVE",
"114 557 QCURVE SMOOTH",
"114 555 OFFCURVE",
"108 513 QCURVE",
"75 340 LINE SMOOTH",
"68 301 OFFCURVE",
"60 292 QCURVE",
"57 288 OFFCURVE",
"15 278 OFFCURVE",
"6 278 QCURVE SMOOTH",
"-1 278 OFFCURVE",
"-1 258 QCURVE SMOOTH",
"-1 254 OFFCURVE",
"0 253 QCURVE",
"11 253 OFFCURVE",
"73 256 OFFCURVE",
"115 256 OFFCURVE",
"174 253 OFFCURVE",
"185 253 QCURVE",
"189 259 OFFCURVE",
"189 272 QCURVE SMOOTH",
"189 279 OFFCURVE",
"187 279 QCURVE SMOOTH",
"180 279 OFFCURVE",
"148 288 OFFCURVE",
"145 293 QCURVE",
"140 300 OFFCURVE",
"140 310 QCURVE SMOOTH",
"140 316 OFFCURVE",
"144 340 QCURVE SMOOTH",
"184 548 LINE SMOOTH",
"191 587 OFFCURVE",
"208 629 QCURVE",
"208 652 OFFCURVE",
"202 652 QCURVE SMOOTH",
"198 652 OFFCURVE",
"154 632 OFFCURVE",
"72 592 OFFCURVE",
"43 579 QCURVE SMOOTH"
);
},
{
closed = 1;
nodes = (
"553 619 OFFCURVE",
"553 623 QCURVE SMOOTH",
"553 634 OFFCURVE",
"522 642 QCURVE",
"75 10 LINE",
"73 8 OFFCURVE",
"73 4 QCURVE SMOOTH",
"73 -7 OFFCURVE",
"106 -14 QCURVE",
"552 618 LINE"
);
},
{
closed = 1;
nodes = (
"283 141 LINE",
"283 127 OFFCURVE",
"290 115 QCURVE",
"429 115 LINE SMOOTH",
"432 115 OFFCURVE",
"432 113 QCURVE SMOOTH",
"432 112 LINE",
"412 4 LINE",
"411 2 OFFCURVE",
"417 -2 OFFCURVE",
"435 -5 OFFCURVE",
"448 -5 QCURVE SMOOTH",
"465 -5 OFFCURVE",
"475 0 QCURVE",
"497 110 LINE",
"499 115 OFFCURVE",
"501 115 QCURVE SMOOTH",
"533 115 LINE",
"544 122 OFFCURVE",
"544 151 QCURVE SMOOTH",
"544 158 OFFCURVE",
"535 158 QCURVE SMOOTH",
"511 158 LINE SMOOTH",
"507 158 OFFCURVE",
"507 161 QCURVE SMOOTH",
"507 162 LINE",
"552 390 LINE",
"554 397 OFFCURVE",
"529 397 QCURVE SMOOTH",
"521 397 OFFCURVE",
"514 390 QCURVE"
);
},
{
closed = 1;
nodes = (
"342 158 OFFCURVE",
"342 163 QCURVE SMOOTH",
"342 165 OFFCURVE",
"343 166 QCURVE SMOOTH",
"465 296 LINE",
"466 296 LINE SMOOTH",
"468 296 OFFCURVE",
"468 292 QCURVE",
"442 163 LINE SMOOTH",
"441 158 OFFCURVE",
"436 158 QCURVE SMOOTH",
"345 158 LINE SMOOTH"
);
}
);
width = 563;
}
);
note = onequarter;
unicode = 00BC;
},
{
glyphname = onehalf;
layers = (
{
layerId = "02396921-8257-42A3-8ED5-3052446F9CE3";
paths = (
{
closed = 1;
nodes = (
"540 620 OFFCURVE",
"540 623 QCURVE SMOOTH",
"540 634 OFFCURVE",
"508 642 QCURVE",
"61 10 LINE",
"59 8 OFFCURVE",
"59 4 QCURVE SMOOTH",
"59 -7 OFFCURVE",
"92 -14 QCURVE",
"538 618 LINE"
);
},
{
closed = 1;
nodes = (
"387 56 LINE SMOOTH",
"386 56 OFFCURVE",
"386 57 QCURVE SMOOTH",
"386 63 OFFCURVE",
"452 113 OFFCURVE",
"530 174 OFFCURVE",
"596 266 OFFCURVE",
"596 309 QCURVE SMOOTH",
"596 345 OFFCURVE",
"550 393 OFFCURVE",
"513 393 QCURVE SMOOTH",
"482 393 OFFCURVE",
"411 355 OFFCURVE",
"387 329 QCURVE",
"386 321 LINE",
"386 315 OFFCURVE",
"393 298 OFFCURVE",
"396 298 QCURVE SMOOTH",
"398 298 OFFCURVE",
"400 300 QCURVE",
"415 317 OFFCURVE",
"459 340 OFFCURVE",
"476 340 QCURVE SMOOTH",
"499 340 OFFCURVE",
"522 311 OFFCURVE",
"522 291 QCURVE SMOOTH",
"522 278 OFFCURVE",
"510 249 OFFCURVE",
"482 211 OFFCURVE",
"458 180 OFFCURVE",
"409 131 OFFCURVE",
"380 103 OFFCURVE",
"319 45 OFFCURVE",
"306 33 QCURVE",
"300 26 OFFCURVE",
"300 17 QCURVE SMOOTH",
"300 4 OFFCURVE",
"308 0 QCURVE",
"542 0 LINE",
"577 87 OFFCURVE",
"579 90 QCURVE",
"578 92 OFFCURVE",
"572 92 QCURVE SMOOTH",
"562 92 OFFCURVE",
"552 81 OFFCURVE",
"549 67 OFFCURVE",
"531 56 OFFCURVE",
"514 56 QCURVE SMOOTH"
);
},
{
closed = 1;
nodes = (
"170 625 OFFCURVE",
"132 604 OFFCURVE",
"105 590 OFFCURVE",
"81 579 OFFCURVE",
"66 572 OFFCURVE",
"54 567 OFFCURVE",
"48 563 OFFCURVE",
"43 561 OFFCURVE",
"41 557 OFFCURVE",
"41 555 OFFCURVE",
"41 551 QCURVE",
"42 548 OFFCURVE",
"52 540 QCURVE",
"97 555 OFFCURVE",
"99 555 QCURVE SMOOTH",
"109 555 OFFCURVE",
"109 539 QCURVE SMOOTH",
"109 524 OFFCURVE",
"104 499 QCURVE SMOOTH",
"74 338 LINE SMOOTH",
"69 308 OFFCURVE",
"58 290 QCURVE SMOOTH",
"55 285 OFFCURVE",
"17 275 OFFCURVE",
"7 275 QCURVE SMOOTH",
"0 275 OFFCURVE",
"0 257 QCURVE SMOOTH",
"0 253 OFFCURVE",
"2 251 QCURVE",
"14 251 OFFCURVE",
"71 254 OFFCURVE",
"113 254 OFFCURVE",
"167 251 OFFCURVE",
"179 251 QCURVE",
"183 257 OFFCURVE",
"183 270 QCURVE SMOOTH",
"183 276 OFFCURVE",
"181 276 QCURVE SMOOTH",
"174 276 OFFCURVE",
"137 286 OFFCURVE",
"136 291 QCURVE SMOOTH",
"134 303 OFFCURVE",
"134 308 QCURVE SMOOTH",
"134 314 OFFCURVE",
"138 338 QCURVE SMOOTH",
"176 534 LINE SMOOTH",
"183 573 OFFCURVE",
"201 614 QCURVE",
"201 638 OFFCURVE",
"195 638 QCURVE SMOOTH",
"191 638 LINE"
);
}
);
width = 609;
}
);
note = onehalf;
unicode = 00BD;
},
{
glyphname = threequarters;
layers = (
{
layerId = "02396921-8257-42A3-8ED5-3052446F9CE3";
paths = (
{
closed = 1;
nodes = (
"574 619 OFFCURVE",
"574 623 QCURVE SMOOTH",
"574 634 OFFCURVE",
"543 642 QCURVE",
"96 10 LINE",
"94 8 OFFCURVE",
"94 4 QCURVE SMOOTH",
"94 -7 OFFCURVE",
"127 -14 QCURVE",
"573 618 LINE"
);
},
{
closed = 1;
nodes = (
"96 558 OFFCURVE",
"150 596 OFFCURVE",
"169 596 QCURVE SMOOTH",
"186 596 OFFCURVE",
"210 578 OFFCURVE",
"210 562 QCURVE SMOOTH",
"210 539 OFFCURVE",
"164 480 OFFCURVE",
"108 468 QCURVE",
"97 465 OFFCURVE",
"97 452 QCURVE SMOOTH",
"97 446 OFFCURVE",
"102 438 QCURVE",
"147 444 OFFCURVE",
"151 444 QCURVE SMOOTH",
"199 444 OFFCURVE",
"199 392 QCURVE SMOOTH",
"199 346 OFFCURVE",
"139 283 OFFCURVE",
"99 283 QCURVE SMOOTH",
"82 283 OFFCURVE",
"50 317 OFFCURVE",
"36 317 QCURVE SMOOTH",
"23 317 OFFCURVE",
"2 290 OFFCURVE",
"1 273 QCURVE",
"4 264 OFFCURVE",
"46 247 OFFCURVE",
"73 247 QCURVE SMOOTH",
"151 247 OFFCURVE",
"267 343 OFFCURVE",
"267 403 QCURVE SMOOTH",
"267 439 OFFCURVE",
"218 484 OFFCURVE",
"196 484 QCURVE",
"206 490 LINE SMOOTH",
"215 495 OFFCURVE",
"220 498 OFFCURVE",
"237 510 OFFCURVE",
"244 517 OFFCURVE",
"258 530 OFFCURVE",
"265 542 OFFCURVE",
"273 557 OFFCURVE",
"276 574 OFFCURVE",
"276 583 QCURVE SMOOTH",
"276 612 OFFCURVE",
"234 647 OFFCURVE",
"211 647 QCURVE SMOOTH",
"139 647 OFFCURVE",
"88 593 QCURVE",
"87 590 LINE SMOOTH",
"86 587 OFFCURVE",
"86 585 QCURVE SMOOTH",
"86 558 OFFCURVE",
"94 558 QCURVE SMOOTH"
);
},
{
closed = 1;
nodes = (
"505 -5 OFFCURVE",
"507 0 QCURVE",
"528 109 LINE",
"530 114 OFFCURVE",
"532 114 QCURVE SMOOTH",
"564 115 LINE",
"566 116 OFFCURVE",
"568 118 QCURVE",
"572 120 OFFCURVE",
"574 136 QCURVE SMOOTH",
"575 145 OFFCURVE",
"576 152 QCURVE",
"576 159 OFFCURVE",
"568 159 QCURVE SMOOTH",
"543 159 LINE SMOOTH",
"539 159 OFFCURVE",
"539 162 QCURVE SMOOTH",
"539 163 LINE",
"583 390 LINE",
"583 391 LINE SMOOTH",
"583 397 OFFCURVE",
"565 397 QCURVE SMOOTH",
"553 397 OFFCURVE",
"546 390 QCURVE",
"315 141 LINE",
"315 138 LINE SMOOTH",
"315 127 OFFCURVE",
"322 115 QCURVE",
"461 115 LINE SMOOTH",
"464 115 OFFCURVE",
"464 112 QCURVE",
"443 4 LINE",
"443 -5 OFFCURVE",
"479 -5 QCURVE SMOOTH"
);
},
{
closed = 1;
nodes = (
"473 158 OFFCURVE",
"468 158 QCURVE SMOOTH",
"377 158 LINE SMOOTH",
"373 158 OFFCURVE",
"373 164 QCURVE SMOOTH",
"373 165 OFFCURVE",
"492 292 OFFCURVE",
"497 297 QCURVE",
"499 297 OFFCURVE",
"499 292 QCURVE",
"474 163 LINE SMOOTH"
);
}
);
width = 593;
}
);
note = threequarters;
unicode = 00BE;
},
{
glyphname = questiondown;
layers = (
{
layerId = "02396921-8257-42A3-8ED5-3052446F9CE3";
paths = (
{
closed = 1;
nodes = (
"138 226 OFFCURVE",
"177 180 OFFCURVE",
"177 162 QCURVE SMOOTH",
"177 124 OFFCURVE",
"144 102 QCURVE SMOOTH",
"122 87 OFFCURVE",
"62 48 OFFCURVE",
"37 32 OFFCURVE",
"5 4 OFFCURVE",
"-6 -20 OFFCURVE",
"-15 -55 OFFCURVE",
"-15 -79 QCURVE SMOOTH",
"-15 -128 OFFCURVE",
"70 -208 OFFCURVE",
"130 -208 QCURVE SMOOTH",
"161 -208 OFFCURVE",
"197 -172 OFFCURVE",
"203 -154 QCURVE",
"200 -133 OFFCURVE",
"178 -107 OFFCURVE",
"163 -107 QCURVE SMOOTH",
"149 -107 OFFCURVE",
"116 -154 OFFCURVE",
"95 -154 QCURVE SMOOTH",
"65 -154 OFFCURVE",
"33 -118 OFFCURVE",
"33 -92 QCURVE SMOOTH",
"33 -59 OFFCURVE",
"85 -23 QCURVE SMOOTH",
"204 61 LINE",
"246 94 OFFCURVE",
"246 144 QCURVE SMOOTH",
"246 181 OFFCURVE",
"172 242 OFFCURVE",
"148 242 QCURVE",
"138 236 OFFCURVE",
"138 228 QCURVE SMOOTH"
);
},
{
closed = 1;
nodes = (
"273 411 OFFCURVE",
"250 437 OFFCURVE",
"231 437 QCURVE SMOOTH",
"206 437 OFFCURVE",
"163 394 OFFCURVE",
"163 367 QCURVE SMOOTH",
"163 347 OFFCURVE",
"189 321 OFFCURVE",
"208 321 QCURVE SMOOTH",
"233 321 OFFCURVE",
"273 363 OFFCURVE",
"273 391 QCURVE SMOOTH"
);
}
);
width = 277;
}
);
note = questiondown;
unicode = 00BF;
},
{
glyphname = AE;
layers = (
{
layerId = "02396921-8257-42A3-8ED5-3052446F9CE3";
paths = (
{
closed = 1;
nodes = (
"211 67 OFFCURVE",
"256 131 QCURVE SMOOTH",
"365 290 LINE",
"368 293 OFFCURVE",
"371 293 QCURVE",
"397 294 OFFCURVE",
"438 294 QCURVE SMOOTH",
"506 293 LINE SMOOTH",
"512 293 OFFCURVE",
"512 285 QCURVE",
"511 272 OFFCURVE",
"507 219 OFFCURVE",
"504 187 OFFCURVE",
"499 141 OFFCURVE",
"495 111 OFFCURVE",
"489 78 OFFCURVE",
"481 56 OFFCURVE",
"473 44 OFFCURVE",
"415 31 OFFCURVE",
"404 31 QCURVE SMOOTH",
"401 31 OFFCURVE",
"395 11 OFFCURVE",
"395 3 QCURVE SMOOTH",
"395 -2 OFFCURVE",
"396 -3 QCURVE",
"522 2 LINE",
"562 2 OFFCURVE",
"742 -4 OFFCURVE",
"795 -4 QCURVE",
"818 64 OFFCURVE",
"869 162 QCURVE",
"865 168 OFFCURVE",
"848 168 QCURVE SMOOTH",
"836 168 OFFCURVE",
"833 162 QCURVE SMOOTH",
"792 76 OFFCURVE",
"763 61 QCURVE SMOOTH",
"729 44 OFFCURVE",
"651 44 QCURVE SMOOTH",
"636 44 LINE SMOOTH",
"610 44 OFFCURVE",
"582 49 OFFCURVE",
"575 57 OFFCURVE",
"575 63 QCURVE SMOOTH",
"575 68 OFFCURVE",
"580 111 QCURVE SMOOTH",
"584 154 LINE",
"596 286 LINE SMOOTH",
"597 296 OFFCURVE",
"637 296 QCURVE SMOOTH",
"727 296 OFFCURVE",
"737 288 QCURVE SMOOTH",
"743 283 OFFCURVE",
"746 279 OFFCURVE",
"753 250 OFFCURVE",
"754 224 QCURVE",
"755 217 OFFCURVE",
"767 217 QCURVE SMOOTH",
"776 217 OFFCURVE",
"782 221 QCURVE",
"792 351 OFFCURVE",
"808 413 QCURVE",
"805 418 OFFCURVE",
"781 418 OFFCURVE",
"778 411 QCURVE",
"777 408 OFFCURVE",
"774 402 QCURVE",
"754 357 OFFCURVE",
"725 340 OFFCURVE",
"665 340 QCURVE SMOOTH",
"632 340 LINE SMOOTH",
"601 340 OFFCURVE",
"601 346 QCURVE SMOOTH",
"601 347 LINE",
"616 505 LINE SMOOTH",
"624 578 OFFCURVE",
"631 603 QCURVE SMOOTH",
"635 616 OFFCURVE",
"713 616 QCURVE SMOOTH",
"772 616 LINE SMOOTH",
"787 616 OFFCURVE",
"810 611 OFFCURVE",
"837 596 OFFCURVE",
"853 560 OFFCURVE",
"854 532 QCURVE",
"854 525 OFFCURVE",
"878 525 OFFCURVE",
"883 530 QCURVE",
"884 554 OFFCURVE",
"891 644 OFFCURVE",
"892 664 QCURVE",
"840 664 OFFCURVE",
"634 656 OFFCURVE",
"592 656 QCURVE SMOOTH",
"505 656 LINE",
"495 646 OFFCURVE",
"495 630 QCURVE SMOOTH",
"495 625 OFFCURVE",
"498 625 QCURVE SMOOTH",
"528 625 OFFCURVE",
"528 601 QCURVE SMOOTH",
"528 593 OFFCURVE",
"523 586 QCURVE SMOOTH",
"211 139 LINE SMOOTH",
"171 80 OFFCURVE",
"132 45 QCURVE",
"123 36 OFFCURVE",
"82 24 OFFCURVE",
"72 24 QCURVE SMOOTH",
"69 24 OFFCURVE",
"63 9 OFFCURVE",
"63 3 QCURVE SMOOTH",
"63 -2 OFFCURVE",
"64 -3 QCURVE",
"80 -2 OFFCURVE",
"113 0 OFFCURVE",
"141 2 OFFCURVE",
"160 2 QCURVE SMOOTH",
"162 2 OFFCURVE",
"254 -3 QCURVE",
"263 12 OFFCURVE",
"263 22 QCURVE SMOOTH",
"263 24 OFFCURVE",
"262 24 QCURVE SMOOTH",
"251 24 OFFCURVE",
"211 40 OFFCURVE",
"211 50 QCURVE SMOOTH"
);
},
{
closed = 1;
nodes = (
"519 346 LINE",
"513 341 LINE",
"493 339 OFFCURVE",
"454 339 QCURVE SMOOTH",
"420 339 OFFCURVE",
"401 340 QCURVE",
"400 340 OFFCURVE",
"399 343 OFFCURVE",
"400 344 QCURVE",
"540 547 LINE"
);
}
);
width = 847;
}
);
note = AE;
unicode = 00C6;
},
{
glyphname = Eth;
layers = (
{
layerId = "02396921-8257-42A3-8ED5-3052446F9CE3";
paths = (
{
closed = 1;
nodes = (
"402 663 OFFCURVE",
"292 661 OFFCURVE",
"257 661 QCURVE SMOOTH",
"196 661 OFFCURVE",
"150 663 QCURVE",
"143 656 OFFCURVE",
"143 640 QCURVE SMOOTH",
"143 636 OFFCURVE",
"145 636 QCURVE SMOOTH",
"156 636 OFFCURVE",
"200 620 OFFCURVE",
"201 612 QCURVE SMOOTH",
"203 591 OFFCURVE",
"190 519 QCURVE SMOOTH",
"118 147 LINE SMOOTH",
"106 83 OFFCURVE",
"92 54 QCURVE SMOOTH",
"88 46 OFFCURVE",
"36 29 OFFCURVE",
"25 29 QCURVE SMOOTH",
"20 29 OFFCURVE",
"20 10 QCURVE SMOOTH",
"20 3 OFFCURVE",
"21 2 QCURVE",
"35 3 LINE",
"49 5 OFFCURVE",
"105 7 OFFCURVE",
"132 7 QCURVE SMOOTH",
"166 7 OFFCURVE",
"272 2 OFFCURVE",
"290 2 QCURVE SMOOTH",
"367 2 OFFCURVE",
"499 55 OFFCURVE",
"589 141 OFFCURVE",
"654 249 OFFCURVE",
"684 359 OFFCURVE",
"684 410 QCURVE SMOOTH",
"684 462 OFFCURVE",
"653 551 OFFCURVE",
"590 622 OFFCURVE",
"487 663 OFFCURVE",
"420 663 QCURVE SMOOTH"
);
},
{
closed = 1;
nodes = (
"508 619 OFFCURVE",
"596 507 OFFCURVE",
"596 419 QCURVE SMOOTH",
"596 325 OFFCURVE",
"529 157 OFFCURVE",
"397 48 OFFCURVE",
"313 48 QCURVE SMOOTH",
"298 48 OFFCURVE",
"256 50 OFFCURVE",
"201 60 OFFCURVE",
"197 68 QCURVE",
"195 73 OFFCURVE",
"195 130 OFFCURVE",
"198 144 QCURVE SMOOTH",
"271 524 LINE SMOOTH",
"276 550 OFFCURVE",
"278 563 OFFCURVE",
"290 593 OFFCURVE",
"298 603 QCURVE",
"303 610 OFFCURVE",
"368 618 OFFCURVE",
"408 619 OFFCURVE",
"418 619 QCURVE SMOOTH"
);
},
{
closed = 1;
nodes = (
"95 344 OFFCURVE",
"95 326 QCURVE SMOOTH",
"95 313 OFFCURVE",
"100 313 QCURVE SMOOTH",
"446 313 LINE",
"452 327 OFFCURVE",
"452 343 QCURVE SMOOTH",
"452 353 OFFCURVE",
"446 353 QCURVE SMOOTH",
"101 353 LINE"
);
}
);
width = 659;
}
);
note = Eth;
unicode = 00D0;
},
{
glyphname = multiply;
layers = (
{
layerId = "02396921-8257-42A3-8ED5-3052446F9CE3";
paths = (
{
closed = 1;
nodes = (
"26 60 OFFCURVE",
"29 63 QCURVE",
"190 203 LINE",
"192 205 OFFCURVE",
"194 205 QCURVE SMOOTH",
"195 205 OFFCURVE",
"197 203 QCURVE",
"300 63 LINE",
"302 60 OFFCURVE",
"307 60 QCURVE SMOOTH",
"313 60 OFFCURVE",
"340 98 OFFCURVE",
"340 108 QCURVE",
"240 244 LINE",
"239 245 OFFCURVE",
"239 246 QCURVE",
"241 248 LINE",
"394 384 LINE",
"394 398 OFFCURVE",
"382 433 OFFCURVE",
"377 433 QCURVE SMOOTH",
"374 433 OFFCURVE",
"371 430 QCURVE",
"213 289 LINE",
"212 288 OFFCURVE",
"211 288 QCURVE SMOOTH",
"209 288 OFFCURVE",
"207 290 QCURVE",
"103 431 LINE",
"99 435 LINE",
"94 435 OFFCURVE",
"61 397 OFFCURVE",
"61 388 QCURVE",
"162 251 LINE",
"163 250 OFFCURVE",
"163 246 QCURVE SMOOTH",
"163 245 OFFCURVE",
"161 243 QCURVE",
"7 108 LINE",
"7 96 OFFCURVE",
"20 60 OFFCURVE",
"24 60 QCURVE SMOOTH"
);
}
);
width = 394;
}
);
note = multiply;
unicode = 00D7;
},
{
glyphname = Oslash;
layers = (
{
layerId = "02396921-8257-42A3-8ED5-3052446F9CE3";
paths = (
{
closed = 1;
nodes = (
"654 645 LINE SMOOTH",
"657 649 OFFCURVE",
"638 665 OFFCURVE",
"631 667 QCURVE",
"115 10 LINE SMOOTH",
"112 6 OFFCURVE",
"130 -10 OFFCURVE",
"137 -13 QCURVE"
);
},
{
closed = 1;
nodes = (
"482 625 OFFCURVE",
"557 570 OFFCURVE",
"591 480 OFFCURVE",
"601 367 OFFCURVE",
"588 309 QCURVE SMOOTH",
"567 199 OFFCURVE",
"432 33 OFFCURVE",
"343 33 QCURVE SMOOTH",
"291 33 OFFCURVE",
"216 88 OFFCURVE",
"183 178 OFFCURVE",
"173 292 OFFCURVE",
"186 350 QCURVE SMOOTH",
"207 459 OFFCURVE",
"342 625 OFFCURVE",
"430 625 QCURVE SMOOTH"
);
},
{
closed = 1;
nodes = (
"443 -10 OFFCURVE",
"657 188 OFFCURVE",
"711 468 OFFCURVE",
"575 667 OFFCURVE",
"329 667 OFFCURVE",
"116 468 OFFCURVE",
"62 188 OFFCURVE",
"197 -10 OFFCURVE"
);
}
);
width = 646;
}
);
note = Oslash;
unicode = 00D8;
},
{
glyphname = Thorn;
layers = (
{
layerId = "02396921-8257-42A3-8ED5-3052446F9CE3";
paths = (
{
closed = 1;
nodes = (
"365 511 OFFCURVE",
"323 504 OFFCURVE",
"301 497 OFFCURVE",
"299 497 QCURVE SMOOTH",
"296 497 OFFCURVE",
"297 504 QCURVE",
"297 506 OFFCURVE",
"300 519 OFFCURVE",
"301 524 QCURVE SMOOTH",
"312 579 OFFCURVE",
"326 612 QCURVE SMOOTH",
"329 619 OFFCURVE",
"381 633 OFFCURVE",
"390 633 QCURVE SMOOTH",
"394 633 OFFCURVE",
"396 647 QCURVE",
"397 652 OFFCURVE",
"397 662 QCURVE",
"302 657 OFFCURVE",
"289 657 QCURVE SMOOTH",
"283 657 OFFCURVE",
"178 662 QCURVE",
"173 657 OFFCURVE",
"171 646 QCURVE SMOOTH",
"169 633 OFFCURVE",
"172 633 QCURVE SMOOTH",
"184 633 OFFCURVE",
"229 620 OFFCURVE",
"230 612 QCURVE",
"231 589 OFFCURVE",
"220 523 QCURVE SMOOTH",
"144 135 LINE SMOOTH",
"135 80 OFFCURVE",
"120 46 QCURVE",
"115 38 OFFCURVE",
"66 26 OFFCURVE",
"54 26 QCURVE SMOOTH",
"50 26 OFFCURVE",
"48 12 QCURVE",
"46 2 OFFCURVE",
"49 -3 QCURVE",
"156 2 OFFCURVE",
"161 2 QCURVE SMOOTH",
"176 2 OFFCURVE",
"268 -3 QCURVE",
"271 2 OFFCURVE",
"273 11 QCURVE SMOOTH",
"276 26 OFFCURVE",
"272 26 QCURVE SMOOTH",
"263 26 OFFCURVE",
"217 39 OFFCURVE",
"216 46 QCURVE",
"215 81 OFFCURVE",
"226 139 QCURVE SMOOTH",
"281 423 LINE SMOOTH",
"287 456 OFFCURVE",
"300 460 QCURVE",
"320 467 OFFCURVE",
"366 467 QCURVE SMOOTH",
"483 467 OFFCURVE",
"454 313 QCURVE SMOOTH",
"443 255 OFFCURVE",
"359 171 OFFCURVE",
"313 171 QCURVE SMOOTH",
"279 171 OFFCURVE",
"253 182 QCURVE",
"251 183 OFFCURVE",
"250 179 QCURVE",
"244 163 OFFCURVE",
"248 156 QCURVE",
"261 128 OFFCURVE",
"314 128 QCURVE SMOOTH",
"402 128 OFFCURVE",
"530 261 OFFCURVE",
"543 328 QCURVE SMOOTH",
"553 377 OFFCURVE",
"530 451 OFFCURVE",
"479 491 OFFCURVE",
"420 511 OFFCURVE",
"389 511 QCURVE SMOOTH"
);
}
);
width = 515;
}
);
note = Thorn;
unicode = 00DE;
},
{
glyphname = germandbls;
layers = (
{
layerId = "02396921-8257-42A3-8ED5-3052446F9CE3";
paths = (
{
closed = 1;
nodes = (
"135 407 LINE SMOOTH",
"119 407 OFFCURVE",
"87 373 OFFCURVE",
"87 364 QCURVE SMOOTH",
"87 361 OFFCURVE",
"89 361 QCURVE SMOOTH",
"154 361 LINE SMOOTH",
"157 361 OFFCURVE",
"157 356 QCURVE SMOOTH",
"157 354 LINE",
"92 9 LINE",
"91 5 OFFCURVE",
"90 -3 QCURVE",
"84 -36 OFFCURVE",
"69 -101 OFFCURVE",
"52 -159 OFFCURVE",
"26 -195 OFFCURVE",
"12 -195 QCURVE SMOOTH",
"-3 -195 OFFCURVE",
"-22 -176 OFFCURVE",
"-29 -152 OFFCURVE",
"-42 -133 OFFCURVE",
"-51 -133 QCURVE SMOOTH",
"-83 -133 OFFCURVE",
"-90 -191 QCURVE",
"-84 -207 OFFCURVE",
"-43 -234 OFFCURVE",
"-7 -234 QCURVE SMOOTH",
"55 -234 OFFCURVE",
"137 -103 OFFCURVE",
"165 46 QCURVE SMOOTH",
"247 474 LINE",
"258 520 LINE SMOOTH",
"269 565 OFFCURVE",
"324 656 OFFCURVE",
"356 656 QCURVE SMOOTH",
"397 656 OFFCURVE",
"444 622 OFFCURVE",
"444 589 QCURVE SMOOTH",
"444 497 OFFCURVE",
"362 435 QCURVE SMOOTH",
"305 393 OFFCURVE",
"272 355 OFFCURVE",
"272 324 QCURVE SMOOTH",
"272 311 OFFCURVE",
"278 289 OFFCURVE",
"296 268 OFFCURVE",
"306 257 OFFCURVE",
"335 233 OFFCURVE",
"340 229 QCURVE",
"343 226 OFFCURVE",
"374 200 OFFCURVE",
"386 187 OFFCURVE",
"407 163 OFFCURVE",
"415 138 OFFCURVE",
"415 125 QCURVE SMOOTH",
"415 109 OFFCURVE",
"405 71 OFFCURVE",
"370 32 OFFCURVE",
"343 32 QCURVE SMOOTH",
"328 32 OFFCURVE",
"306 53 OFFCURVE",
"297 79 OFFCURVE",
"282 100 OFFCURVE",
"272 100 QCURVE SMOOTH",
"237 100 OFFCURVE",
"228 42 QCURVE",
"232 28 OFFCURVE",
"298 0 OFFCURVE",
"340 0 QCURVE SMOOTH",
"399 0 OFFCURVE",
"480 87 OFFCURVE",
"480 147 QCURVE SMOOTH",
"480 162 OFFCURVE",
"472 190 OFFCURVE",
"465 207 OFFCURVE",
"441 233 OFFCURVE",
"431 243 OFFCURVE",
"393 275 OFFCURVE",
"387 280 QCURVE",
"384 283 OFFCURVE",
"367 297 OFFCURVE",
"360 303 OFFCURVE",
"346 316 OFFCURVE",
"340 324 OFFCURVE",
"332 335 OFFCURVE",
"329 346 OFFCURVE",
"329 352 QCURVE SMOOTH",
"329 365 OFFCURVE",
"344 386 OFFCURVE",
"359 396 OFFCURVE",
"392 415 OFFCURVE",
"399 419 QCURVE",
"421 433 OFFCURVE",
"447 452 OFFCURVE",
"495 496 OFFCURVE",
"520 550 OFFCURVE",
"520 581 QCURVE SMOOTH",
"520 636 OFFCURVE",
"426 694 OFFCURVE",
"365 694 QCURVE SMOOTH",
"315 694 OFFCURVE",
"240 635 OFFCURVE",
"203 550 OFFCURVE",
"180 466 OFFCURVE",
"168 407 OFFCURVE",
"164 407 QCURVE SMOOTH"
);
}
);
width = 495;
}
);
note = germandbls;
unicode = 00DF;
},
{
glyphname = ae;
layers = (
{
layerId = "02396921-8257-42A3-8ED5-3052446F9CE3";
paths = (
{
closed = 1;
nodes = (
"411 435 OFFCURVE",
"354 381 QCURVE",
"348 436 OFFCURVE",
"276 436 QCURVE SMOOTH",
"214 436 OFFCURVE",
"87 333 OFFCURVE",
"87 295 QCURVE SMOOTH",
"87 282 OFFCURVE",
"113 282 QCURVE SMOOTH",
"156 282 OFFCURVE",
"162 316 QCURVE SMOOTH",
"169 352 OFFCURVE",
"213 398 OFFCURVE",
"239 398 QCURVE SMOOTH",
"258 398 OFFCURVE",
"286 374 OFFCURVE",
"286 356 QCURVE SMOOTH",
"286 343 OFFCURVE",
"285 340 QCURVE",
"268 257 LINE SMOOTH",
"265 243 OFFCURVE",
"257 241 QCURVE",
"225 235 OFFCURVE",
"161 213 OFFCURVE",
"87 173 OFFCURVE",
"40 106 OFFCURVE",
"40 65 QCURVE SMOOTH",
"40 31 OFFCURVE",
"102 -7 OFFCURVE",
"138 -7 QCURVE SMOOTH",
"187 -7 OFFCURVE",
"252 42 OFFCURVE",
"269 75 QCURVE",
"282 42 OFFCURVE",
"343 -4 OFFCURVE",
"374 -4 QCURVE SMOOTH",
"414 -4 OFFCURVE",
"498 78 OFFCURVE",
"506 102 QCURVE",
"506 106 OFFCURVE",
"501 117 OFFCURVE",
"497 124 OFFCURVE",
"495 124 OFFCURVE",
"467 90 OFFCURVE",
"423 56 OFFCURVE",
"403 56 QCURVE SMOOTH",
"370 56 OFFCURVE",
"326 119 OFFCURVE",
"326 184 QCURVE SMOOTH",
"326 203 OFFCURVE",
"337 203 QCURVE SMOOTH",
"393 203 OFFCURVE",
"554 299 OFFCURVE",
"554 356 QCURVE SMOOTH",
"554 435 OFFCURVE",
"484 435 QCURVE SMOOTH"
);
},
{
closed = 1;
nodes = (
"241 107 OFFCURVE",
"197 40 OFFCURVE",
"162 40 QCURVE SMOOTH",
"143 40 OFFCURVE",
"119 69 OFFCURVE",
"119 90 QCURVE SMOOTH",
"119 101 OFFCURVE",
"127 122 OFFCURVE",
"151 154 OFFCURVE",
"211 183 OFFCURVE",
"256 191 QCURVE",
"248 145 LINE SMOOTH"
);
},
{
closed = 1;
nodes = (
"485 394 OFFCURVE",
"485 352 QCURVE SMOOTH",
"485 320 OFFCURVE",
"428 270 OFFCURVE",
"364 249 OFFCURVE",
"341 249 QCURVE SMOOTH",
"334 249 OFFCURVE",
"334 255 QCURVE SMOOTH",
"334 294 OFFCURVE",
"418 394 OFFCURVE",
"460 394 QCURVE SMOOTH"
);
}
);
width = 560;
}
);
note = ae;
unicode = 00E6;
},
{
glyphname = eth;
layers = (
{
layerId = "02396921-8257-42A3-8ED5-3052446F9CE3";
paths = (
{
closed = 1;
nodes = (
"445 674 LINE",
"451 680 OFFCURVE",
"435 705 QCURVE",
"185 541 LINE",
"179 535 OFFCURVE",
"194 509 QCURVE"
);
},
{
closed = 1;
nodes = (
"357 572 OFFCURVE",
"353 407 QCURVE",
"335 438 OFFCURVE",
"285 438 QCURVE SMOOTH",
"209 438 OFFCURVE",
"89 303 OFFCURVE",
"72 217 QCURVE SMOOTH",
"55 127 OFFCURVE",
"124 -7 OFFCURVE",
"210 -7 QCURVE SMOOTH",
"277 -7 OFFCURVE",
"391 138 OFFCURVE",
"413 250 QCURVE SMOOTH",
"447 423 OFFCURVE",
"315 656 OFFCURVE",
"200 688 QCURVE",
"195 688 OFFCURVE",
"183 670 OFFCURVE",
"182 664 QCURVE"
);
},
{
closed = 1;
nodes = (
"298 32 OFFCURVE",
"211 32 QCURVE SMOOTH",
"172 32 OFFCURVE",
"136 150 OFFCURVE",
"150 224 QCURVE SMOOTH",
"165 300 OFFCURVE",
"225 398 OFFCURVE",
"267 398 QCURVE SMOOTH",
"315 398 OFFCURVE",
"336 332 QCURVE SMOOTH",
"349 291 OFFCURVE",
"334 217 QCURVE SMOOTH"
);
}
);
width = 384;
}
);
note = eth;
unicode = 00F0;
},
{
glyphname = divide;
layers = (
{
layerId = "02396921-8257-42A3-8ED5-3052446F9CE3";
paths = (
{
closed = 1;
nodes = (
"251 490 OFFCURVE",
"222 457 OFFCURVE",
"222 434 QCURVE SMOOTH",
"222 416 OFFCURVE",
"240 390 OFFCURVE",
"256 390 QCURVE SMOOTH",
"279 390 OFFCURVE",
"310 426 OFFCURVE",
"310 450 QCURVE SMOOTH",
"310 466 OFFCURVE",
"288 490 OFFCURVE",
"273 490 QCURVE SMOOTH"
);
},
{
closed = 1;
nodes = (
"177 104 OFFCURVE",
"148 71 OFFCURVE",
"148 48 QCURVE SMOOTH",
"148 30 OFFCURVE",
"166 4 OFFCURVE",
"182 4 QCURVE SMOOTH",
"205 4 OFFCURVE",
"235 40 OFFCURVE",
"235 64 QCURVE SMOOTH",
"235 80 OFFCURVE",
"214 104 OFFCURVE",
"199 104 QCURVE SMOOTH"
);
},
{
closed = 1;
nodes = (
"0 250 OFFCURVE",
"0 224 QCURVE SMOOTH",
"0 215 OFFCURVE",
"5 215 QCURVE SMOOTH",
"435 215 LINE",
"456 238 OFFCURVE",
"456 269 QCURVE SMOOTH",
"456 278 OFFCURVE",
"452 278 QCURVE SMOOTH",
"22 278 LINE"
);
}
);
width = 458;
}
);
note = divide;
unicode = 00F7;
},
{
glyphname = oslash;
layers = (
{
layerId = "02396921-8257-42A3-8ED5-3052446F9CE3";
paths = (
{
closed = 1;
nodes = (
"405 400 LINE",
"410 407 OFFCURVE",
"386 419 QCURVE",
"78 20 LINE",
"73 12 OFFCURVE",
"97 0 QCURVE"
);
},
{
closed = 1;
nodes = (
"143 250 OFFCURVE",
"211 397 OFFCURVE",
"261 397 QCURVE SMOOTH",
"293 397 OFFCURVE",
"333 319 OFFCURVE",
"333 259 QCURVE SMOOTH",
"333 181 OFFCURVE",
"265 34 OFFCURVE",
"215 34 QCURVE SMOOTH",
"182 34 OFFCURVE",
"143 111 OFFCURVE",
"143 172 QCURVE SMOOTH"
);
},
{
closed = 1;
nodes = (
"69 89 OFFCURVE",
"141 -5 OFFCURVE",
"199 -5 QCURVE SMOOTH",
"277 -5 OFFCURVE",
"407 161 OFFCURVE",
"407 267 QCURVE SMOOTH",
"407 341 OFFCURVE",
"336 435 OFFCURVE",
"278 435 QCURVE SMOOTH",
"200 435 OFFCURVE",
"69 269 OFFCURVE",
"69 163 QCURVE SMOOTH"
);
}
);
width = 391;
}
);
note = oslash;
unicode = 00F8;
},
{
glyphname = thorn;
layers = (
{
layerId = "02396921-8257-42A3-8ED5-3052446F9CE3";
paths = (
{
closed = 1;
nodes = (
"226 393 OFFCURVE",
"226 395 OFFCURVE",
"226 397 QCURVE",
"227 399 LINE",
"264 591 LINE SMOOTH",
"274 646 OFFCURVE",
"292 678 QCURVE",
"292 682 OFFCURVE",
"286 694 OFFCURVE",
"283 694 QCURVE SMOOTH",
"281 694 LINE",
"236 665 OFFCURVE",
"153 656 QCURVE",
"150 656 OFFCURVE",
"144 642 OFFCURVE",
"144 640 QCURVE",
"142 636 OFFCURVE",
"142 634 QCURVE SMOOTH",
"142 633 OFFCURVE",
"195 628 OFFCURVE",
"196 616 QCURVE",
"196 594 OFFCURVE",
"186 539 QCURVE SMOOTH",
"65 -87 LINE SMOOTH",
"54 -141 OFFCURVE",
"39 -177 QCURVE SMOOTH",
"36 -184 OFFCURVE",
"-4 -199 OFFCURVE",
"-13 -199 QCURVE",
"-18 -227 LINE",
"-7 -226 OFFCURVE",
"52 -221 OFFCURVE",
"73 -221 QCURVE SMOOTH",
"93 -221 OFFCURVE",
"147 -226 OFFCURVE",
"158 -227 QCURVE",
"163 -217 OFFCURVE",
"163 -203 QCURVE SMOOTH",
"163 -199 OFFCURVE",
"162 -199 QCURVE SMOOTH",
"154 -199 OFFCURVE",
"120 -184 OFFCURVE",
"120 -177 QCURVE SMOOTH",
"120 -172 LINE SMOOTH",
"120 -154 OFFCURVE",
"133 -87 QCURVE SMOOTH",
"148 -12 LINE",
"150 -4 OFFCURVE",
"152 0 QCURVE",
"180 -15 OFFCURVE",
"223 -15 QCURVE SMOOTH",
"323 -15 OFFCURVE",
"470 183 OFFCURVE",
"470 289 QCURVE SMOOTH",
"470 355 OFFCURVE",
"400 438 OFFCURVE",
"329 438 QCURVE SMOOTH",
"292 437 OFFCURVE",
"227 393 QCURVE"
);
},
{
closed = 1;
nodes = (
"219 27 OFFCURVE",
"166 55 OFFCURVE",
"166 79 QCURVE SMOOTH",
"166 84 OFFCURVE",
"167 87 QCURVE",
"213 326 LINE SMOOTH",
"217 350 OFFCURVE",
"256 381 OFFCURVE",
"278 381 QCURVE SMOOTH",
"386 381 OFFCURVE",
"386 265 QCURVE SMOOTH",
"386 220 OFFCURVE",
"357 113 OFFCURVE",
"293 27 OFFCURVE",
"252 27 QCURVE SMOOTH"
);
}
);
width = 473;
}
);
note = thorn;
unicode = 00FE;
},
{
glyphname = Aogonek;
layers = (
{
layerId = "02396921-8257-42A3-8ED5-3052446F9CE3";
paths = (
{
closed = 1;
nodes = (
"290 298 OFFCURVE",
"267 299 QCURVE",
"266 299 OFFCURVE",
"266 303 OFFCURVE",
"389 526 QCURVE",
"392 505 OFFCURVE",
"409 393 OFFCURVE",
"422 309 OFFCURVE",
"422 304 QCURVE SMOOTH",
"422 300 OFFCURVE",
"418 300 QCURVE",
"389 298 OFFCURVE",
"343 298 QCURVE SMOOTH"
);
},
{
closed = 1;
nodes = (
"123 139 LINE SMOOTH",
"84 69 OFFCURVE",
"62 45 QCURVE SMOOTH",
"54 36 OFFCURVE",
"15 24 OFFCURVE",
"4 24 QCURVE SMOOTH",
"-3 24 OFFCURVE",
"-3 5 QCURVE SMOOTH",
"-3 -1 OFFCURVE",
"-1 -3 QCURVE",
"15 -2 OFFCURVE",
"49 0 OFFCURVE",
"78 2 OFFCURVE",
"97 2 QCURVE SMOOTH",
"100 2 OFFCURVE",
"192 -3 QCURVE",
"197 7 OFFCURVE",
"197 18 QCURVE SMOOTH",
"197 24 OFFCURVE",
"195 24 QCURVE SMOOTH",
"191 24 OFFCURVE",
"168 28 OFFCURVE",
"140 44 OFFCURVE",
"140 55 QCURVE SMOOTH",
"140 70 OFFCURVE",
"188 164 OFFCURVE",
"235 242 OFFCURVE",
"237 244 QCURVE",
"240 246 LINE",
"294 249 OFFCURVE",
"330 249 QCURVE SMOOTH",
"423 249 OFFCURVE",
"428 244 QCURVE SMOOTH",
"431 241 OFFCURVE",
"431 239 QCURVE",
"454 72 OFFCURVE",
"454 63 QCURVE SMOOTH",
"454 43 OFFCURVE",
"433 16 OFFCURVE",
"401 -11 QCURVE SMOOTH",
"359 -46 OFFCURVE",
"293 -140 OFFCURVE",
"293 -178 QCURVE SMOOTH",
"293 -199 OFFCURVE",
"322 -230 OFFCURVE",
"344 -230 QCURVE SMOOTH",
"395 -230 OFFCURVE",
"455 -163 QCURVE",
"458 -160 OFFCURVE",
"466 -134 OFFCURVE",
"461 -133 QCURVE",
"460 -133 OFFCURVE",
"437 -152 OFFCURVE",
"399 -171 OFFCURVE",
"378 -171 QCURVE SMOOTH",
"347 -171 OFFCURVE",
"347 -139 QCURVE SMOOTH",
"347 -100 OFFCURVE",
"469 1 OFFCURVE",
"519 1 QCURVE SMOOTH",
"520 1 OFFCURVE",
"548 -1 OFFCURVE",
"585 -3 OFFCURVE",
"596 -3 QCURVE",
"601 7 OFFCURVE",
"601 19 QCURVE SMOOTH",
"601 24 OFFCURVE",
"599 24 QCURVE SMOOTH",
"589 24 OFFCURVE",
"544 45 OFFCURVE",
"541 60 QCURVE SMOOTH",
"539 69 OFFCURVE",
"529 132 QCURVE SMOOTH",
"446 660 LINE",
"442 662 OFFCURVE",
"438 662 QCURVE SMOOTH",
"414 662 OFFCURVE",
"399 635 QCURVE SMOOTH"
);
}
);
width = 642;
}
);
note = Aogonek;
unicode = 0104;
},
{
glyphname = aogonek;
layers = (
{
layerId = "02396921-8257-42A3-8ED5-3052446F9CE3";
paths = (
{
closed = 1;
nodes = (
"346 397 OFFCURVE",
"346 385 QCURVE SMOOTH",
"346 383 OFFCURVE",
"345 374 OFFCURVE",
"345 373 QCURVE",
"325 270 LINE SMOOTH",
"311 201 OFFCURVE",
"209 52 OFFCURVE",
"177 52 QCURVE SMOOTH",
"156 52 OFFCURVE",
"135 80 OFFCURVE",
"133 102 OFFCURVE",
"133 121 QCURVE SMOOTH",
"133 202 OFFCURVE",
"274 397 OFFCURVE",
"340 397 QCURVE SMOOTH"
);
},
{
closed = 1;
nodes = (
"310 435 OFFCURVE",
"209 373 OFFCURVE",
"120 279 OFFCURVE",
"57 154 OFFCURVE",
"57 98 QCURVE SMOOTH",
"57 46 OFFCURVE",
"95 -7 OFFCURVE",
"141 -7 QCURVE SMOOTH",
"184 -7 OFFCURVE",
"275 92 OFFCURVE",
"295 134 QCURVE",
"297 136 LINE",
"298 134 LINE",
"294 108 LINE",
"291 82 OFFCURVE",
"291 67 QCURVE SMOOTH",
"291 39 OFFCURVE",
"313 1 OFFCURVE",
"333 -2 QCURVE",
"290 -45 OFFCURVE",
"223 -145 OFFCURVE",
"223 -180 QCURVE SMOOTH",
"223 -201 OFFCURVE",
"252 -230 OFFCURVE",
"274 -230 QCURVE SMOOTH",
"325 -230 OFFCURVE",
"385 -163 QCURVE",
"388 -160 OFFCURVE",
"396 -134 OFFCURVE",
"391 -133 QCURVE",
"390 -133 OFFCURVE",
"367 -152 OFFCURVE",
"329 -171 OFFCURVE",
"308 -171 QCURVE SMOOTH",
"277 -171 OFFCURVE",
"277 -139 QCURVE SMOOTH",
"277 -116 OFFCURVE",
"315 -62 OFFCURVE",
"392 11 OFFCURVE",
"395 14 QCURVE",
"443 67 OFFCURVE",
"457 103 QCURVE",
"457 107 OFFCURVE",
"452 118 OFFCURVE",
"448 125 OFFCURVE",
"446 125 OFFCURVE",
"422 88 OFFCURVE",
"391 52 OFFCURVE",
"382 52 QCURVE SMOOTH",
"360 52 OFFCURVE",
"360 89 QCURVE SMOOTH",
"360 101 OFFCURVE",
"361 106 QCURVE SMOOTH",
"421 421 LINE",
"407 435 OFFCURVE",
"347 435 QCURVE SMOOTH"
);
}
);
width = 444;
}
);
note = aogonek;
unicode = 0105;
},
{
glyphname = dcroat;
layers = (
{
layerId = "02396921-8257-42A3-8ED5-3052446F9CE3";
paths = (
{
closed = 1;
nodes = (
"313 135 OFFCURVE",
"313 132 QCURVE SMOOTH",
"313 131 OFFCURVE",
"309 111 OFFCURVE",
"305 80 OFFCURVE",
"305 66 QCURVE SMOOTH",
"305 -6 OFFCURVE",
"361 -6 QCURVE SMOOTH",
"393 -6 OFFCURVE",
"459 71 OFFCURVE",
"471 104 QCURVE",
"470 109 OFFCURVE",
"462 125 OFFCURVE",
"460 125 QCURVE SMOOTH",
"459 125 OFFCURVE",
"412 52 OFFCURVE",
"400 52 QCURVE SMOOTH",
"374 52 OFFCURVE",
"374 94 QCURVE SMOOTH",
"374 108 OFFCURVE",
"378 124 QCURVE",
"466 591 LINE SMOOTH",
"476 646 OFFCURVE",
"496 678 QCURVE",
"496 694 OFFCURVE",
"491 694 QCURVE",
"482 690 LINE",
"474 686 OFFCURVE",
"445 675 OFFCURVE",
"412 664 OFFCURVE",
"374 656 OFFCURVE",
"359 656 QCURVE SMOOTH",
"357 656 OFFCURVE",
"349 641 OFFCURVE",
"349 635 QCURVE SMOOTH",
"349 632 OFFCURVE",
"355 632 QCURVE SMOOTH",
"403 632 OFFCURVE",
"403 608 QCURVE SMOOTH",
"403 600 OFFCURVE",
"394 559 QCURVE SMOOTH",
"368 429 LINE",
"368 425 OFFCURVE",
"366 425 QCURVE",
"364 426 LINE",
"362 426 LINE",
"344 435 OFFCURVE",
"319 435 QCURVE SMOOTH",
"273 435 OFFCURVE",
"150 328 OFFCURVE",
"60 166 OFFCURVE",
"60 97 QCURVE SMOOTH",
"60 -7 OFFCURVE",
"155 -7 QCURVE SMOOTH",
"178 -7 OFFCURVE",
"226 22 OFFCURVE",
"263 64 OFFCURVE",
"293 106 OFFCURVE",
"302 120 QCURVE SMOOTH",
"311 135 OFFCURVE",
"311 135 QCURVE"
);
},
{
closed = 1;
nodes = (
"330 399 OFFCURVE",
"360 386 OFFCURVE",
"360 378 QCURVE SMOOTH",
"360 377 LINE",
"341 276 LINE SMOOTH",
"328 205 OFFCURVE",
"224 52 OFFCURVE",
"191 52 QCURVE SMOOTH",
"163 52 OFFCURVE",
"136 91 OFFCURVE",
"136 119 QCURVE SMOOTH",
"136 210 OFFCURVE",
"258 399 OFFCURVE",
"312 399 QCURVE SMOOTH"
);
},
{
closed = 1;
nodes = (
"263 558 OFFCURVE",
"260 542 QCURVE",
"259 538 OFFCURVE",
"260 529 OFFCURVE",
"262 529 QCURVE SMOOTH",
"492 529 LINE",
"501 544 OFFCURVE",
"503 559 QCURVE",
"505 569 OFFCURVE",
"500 569 QCURVE SMOOTH",
"271 569 LINE"
);
}
);
width = 424;
}
);
note = dcroat;
unicode = 0111;
},
{
glyphname = Eogonek;
layers = (
{
layerId = "02396921-8257-42A3-8ED5-3052446F9CE3";
paths = (
{
closed = 1;
nodes = (
"438 32 OFFCURVE",
"508 162 QCURVE",
"504 168 OFFCURVE",
"487 168 QCURVE SMOOTH",
"475 168 OFFCURVE",
"472 162 QCURVE SMOOTH",
"453 124 OFFCURVE",
"410 69 OFFCURVE",
"394 61 QCURVE SMOOTH",
"360 44 OFFCURVE",
"273 44 QCURVE SMOOTH",
"228 44 LINE SMOOTH",
"183 44 OFFCURVE",
"167 50 OFFCURVE",
"167 65 QCURVE SMOOTH",
"167 99 OFFCURVE",
"178 152 QCURVE SMOOTH",
"207 300 LINE SMOOTH",
"209 309 OFFCURVE",
"275 309 QCURVE SMOOTH",
"362 309 OFFCURVE",
"372 301 QCURVE SMOOTH",
"377 297 OFFCURVE",
"380 292 OFFCURVE",
"386 265 OFFCURVE",
"387 238 QCURVE",
"388 230 OFFCURVE",
"401 230 QCURVE SMOOTH",
"409 230 OFFCURVE",
"415 234 QCURVE",
"452 426 LINE",
"449 431 OFFCURVE",
"437 431 QCURVE SMOOTH",
"426 431 OFFCURVE",
"423 424 QCURVE SMOOTH",
"400 372 OFFCURVE",
"368 353 OFFCURVE",
"302 353 QCURVE SMOOTH",
"257 353 LINE SMOOTH",
"249 353 OFFCURVE",
"237 354 OFFCURVE",
"225 355 OFFCURVE",
"220 358 OFFCURVE",
"220 361 QCURVE",
"252 536 LINE SMOOTH",
"259 573 OFFCURVE",
"270 603 QCURVE SMOOTH",
"275 616 OFFCURVE",
"346 616 QCURVE SMOOTH",
"400 616 LINE SMOOTH",
"450 616 OFFCURVE",
"496 586 OFFCURVE",
"499 530 QCURVE",
"499 523 OFFCURVE",
"511 523 QCURVE SMOOTH",
"524 523 OFFCURVE",
"529 528 QCURVE",
"529 544 OFFCURVE",
"527 608 OFFCURVE",
"527 625 QCURVE SMOOTH",
"527 650 OFFCURVE",
"528 664 QCURVE",
"476 664 OFFCURVE",
"276 656 OFFCURVE",
"235 656 QCURVE SMOOTH",
"174 656 OFFCURVE",
"128 658 QCURVE",
"121 651 OFFCURVE",
"121 635 QCURVE SMOOTH",
"121 631 OFFCURVE",
"123 631 QCURVE SMOOTH",
"134 631 OFFCURVE",
"178 615 OFFCURVE",
"179 607 QCURVE SMOOTH",
"181 585 OFFCURVE",
"168 514 QCURVE SMOOTH",
"96 142 LINE SMOOTH",
"84 78 OFFCURVE",
"70 49 QCURVE SMOOTH",
"66 40 OFFCURVE",
"14 24 OFFCURVE",
"3 24 QCURVE SMOOTH",
"-2 24 OFFCURVE",
"-2 5 QCURVE SMOOTH",
"-2 -2 OFFCURVE",
"-1 -3 QCURVE",
"110 2 LINE",
"131 2 OFFCURVE",
"321 -3 QCURVE",
"279 -23 OFFCURVE",
"200 -140 OFFCURVE",
"200 -180 QCURVE SMOOTH",
"200 -201 OFFCURVE",
"229 -230 OFFCURVE",
"251 -230 QCURVE SMOOTH",
"302 -230 OFFCURVE",
"362 -163 QCURVE",
"365 -160 OFFCURVE",
"373 -134 OFFCURVE",
"368 -133 QCURVE",
"367 -133 OFFCURVE",
"344 -152 OFFCURVE",
"306 -171 OFFCURVE",
"285 -171 QCURVE SMOOTH",
"254 -171 OFFCURVE",
"254 -139 QCURVE SMOOTH",
"254 -97 OFFCURVE",
"360 -4 OFFCURVE",
"426 -4 QCURVE"
);
}
);
width = 536;
}
);
note = Eogonek;
unicode = 0118;
},
{
glyphname = eogonek;
layers = (
{
layerId = "02396921-8257-42A3-8ED5-3052446F9CE3";
paths = (
{
closed = 1;
nodes = (
"257 396 OFFCURVE",
"257 352 QCURVE SMOOTH",
"257 305 OFFCURVE",
"148 218 OFFCURVE",
"113 218 QCURVE SMOOTH",
"106 218 OFFCURVE",
"106 224 QCURVE SMOOTH",
"106 260 OFFCURVE",
"192 396 OFFCURVE",
"236 396 QCURVE SMOOTH"
);
},
{
closed = 1;
nodes = (
"200 435 OFFCURVE",
"91 347 OFFCURVE",
"26 215 OFFCURVE",
"26 152 QCURVE SMOOTH",
"26 84 OFFCURVE",
"98 -4 OFFCURVE",
"146 -4 QCURVE",
"114 -32 OFFCURVE",
"22 -148 OFFCURVE",
"23 -180 QCURVE SMOOTH",
"23 -201 OFFCURVE",
"51 -230 OFFCURVE",
"73 -230 QCURVE SMOOTH",
"124 -230 OFFCURVE",
"184 -163 QCURVE",
"187 -160 OFFCURVE",
"195 -134 OFFCURVE",
"190 -133 QCURVE",
"189 -133 OFFCURVE",
"166 -152 OFFCURVE",
"128 -171 OFFCURVE",
"107 -171 QCURVE SMOOTH",
"76 -171 OFFCURVE",
"76 -139 QCURVE SMOOTH",
"76 -119 OFFCURVE",
"146 -46 OFFCURVE",
"245 49 OFFCURVE",
"267 82 QCURVE SMOOTH",
"277 96 OFFCURVE",
"278 102 QCURVE",
"278 106 OFFCURVE",
"273 117 OFFCURVE",
"269 124 OFFCURVE",
"267 124 OFFCURVE",
"239 90 OFFCURVE",
"195 56 OFFCURVE",
"175 56 QCURVE SMOOTH",
"99 56 OFFCURVE",
"99 174 QCURVE SMOOTH",
"99 183 OFFCURVE",
"103 183 QCURVE SMOOTH",
"135 183 OFFCURVE",
"240 233 OFFCURVE",
"326 317 OFFCURVE",
"326 356 QCURVE SMOOTH",
"326 435 OFFCURVE",
"256 435 QCURVE SMOOTH"
);
}
);
width = 349;
}
);
note = eogonek;
unicode = 0119;
},
{
glyphname = Hbar;
layers = (
{
layerId = "02396921-8257-42A3-8ED5-3052446F9CE3";
paths = (
{
closed = 1;
nodes = (
"691 470 LINE",
"700 481 OFFCURVE",
"702 495 QCURVE",
"705 508 OFFCURVE",
"699 508 QCURVE SMOOTH",
"661 508 LINE",
"676 583 OFFCURVE",
"689 612 QCURVE SMOOTH",
"692 619 OFFCURVE",
"744 633 OFFCURVE",
"753 633 QCURVE SMOOTH",
"757 633 OFFCURVE",
"759 647 QCURVE",
"760 652 OFFCURVE",
"760 662 QCURVE",
"754 662 OFFCURVE",
"677 656 OFFCURVE",
"653 656 QCURVE SMOOTH",
"628 656 OFFCURVE",
"553 661 OFFCURVE",
"542 662 QCURVE",
"539 660 OFFCURVE",
"534 645 OFFCURVE",
"534 634 OFFCURVE",
"536 633 QCURVE",
"548 633 OFFCURVE",
"593 620 OFFCURVE",
"594 612 QCURVE",
"595 586 OFFCURVE",
"580 508 QCURVE",
"543 507 OFFCURVE",
"441 507 QCURVE SMOOTH",
"309 507 OFFCURVE",
"298 508 QCURVE",
"312 580 OFFCURVE",
"326 612 QCURVE SMOOTH",
"329 619 OFFCURVE",
"381 633 OFFCURVE",
"390 633 QCURVE SMOOTH",
"393 633 OFFCURVE",
"398 657 OFFCURVE",
"397 662 QCURVE",
"384 661 OFFCURVE",
"342 658 OFFCURVE",
"306 656 OFFCURVE",
"288 656 QCURVE SMOOTH",
"263 656 OFFCURVE",
"189 661 OFFCURVE",
"178 662 QCURVE",
"173 657 OFFCURVE",
"171 646 QCURVE SMOOTH",
"169 633 OFFCURVE",
"172 633 QCURVE SMOOTH",
"184 633 OFFCURVE",
"229 620 OFFCURVE",
"230 612 QCURVE",
"231 579 OFFCURVE",
"217 508 QCURVE",
"186 508 LINE",
"179 498 OFFCURVE",
"176 483 QCURVE SMOOTH",
"173 470 OFFCURVE",
"178 470 QCURVE SMOOTH",
"209 470 LINE",
"144 135 LINE SMOOTH",
"135 80 OFFCURVE",
"120 46 QCURVE",
"115 38 OFFCURVE",
"66 26 OFFCURVE",
"54 26 QCURVE SMOOTH",
"50 26 OFFCURVE",
"48 12 QCURVE",
"46 2 OFFCURVE",
"49 -3 QCURVE",
"156 2 OFFCURVE",
"161 2 QCURVE SMOOTH",
"176 2 OFFCURVE",
"268 -3 QCURVE",
"271 3 OFFCURVE",
"275 25 OFFCURVE",
"272 26 QCURVE",
"263 26 OFFCURVE",
"217 39 OFFCURVE",
"216 46 QCURVE",
"215 81 OFFCURVE",
"226 139 QCURVE SMOOTH",
"256 294 LINE SMOOTH",
"257 299 OFFCURVE",
"400 299 QCURVE SMOOTH",
"450 299 OFFCURVE",
"538 297 QCURVE",
"539 293 LINE",
"508 135 LINE SMOOTH",
"499 80 OFFCURVE",
"484 46 QCURVE",
"479 38 OFFCURVE",
"430 26 OFFCURVE",
"418 26 QCURVE SMOOTH",
"414 26 OFFCURVE",
"409 1 OFFCURVE",
"412 -3 QCURVE",
"520 2 OFFCURVE",
"526 2 QCURVE SMOOTH",
"538 2 OFFCURVE",
"631 -3 QCURVE",
"633 0 OFFCURVE",
"635 11 QCURVE SMOOTH",
"638 26 OFFCURVE",
"635 26 QCURVE SMOOTH",
"626 26 OFFCURVE",
"580 39 OFFCURVE",
"579 46 QCURVE",
"578 77 OFFCURVE",
"590 139 QCURVE SMOOTH",
"654 470 LINE"
);
},
{
closed = 1;
nodes = (
"535 471 OFFCURVE",
"573 470 QCURVE",
"550 353 LINE",
"550 351 OFFCURVE",
"548 349 QCURVE",
"464 347 OFFCURVE",
"410 347 QCURVE SMOOTH",
"359 347 OFFCURVE",
"269 349 QCURVE SMOOTH",
"267 349 OFFCURVE",
"267 352 QCURVE",
"290 470 LINE",
"332 471 OFFCURVE",
"434 471 QCURVE SMOOTH"
);
}
);
width = 684;
}
);
note = Hbar;
unicode = 0126;
},
{
glyphname = hbar;
layers = (
{
layerId = "02396921-8257-42A3-8ED5-3052446F9CE3";
paths = (
{
closed = 1;
nodes = (
"60 0 LINE",
"76 -4 OFFCURVE",
"112 -4 OFFCURVE",
"125 0 QCURVE",
"142 78 LINE SMOOTH",
"162 173 OFFCURVE",
"295 361 OFFCURVE",
"326 361 QCURVE SMOOTH",
"345 361 OFFCURVE",
"345 318 QCURVE SMOOTH",
"345 293 OFFCURVE",
"301 93 OFFCURVE",
"301 67 QCURVE SMOOTH",
"301 -6 OFFCURVE",
"357 -6 QCURVE SMOOTH",
"390 -6 OFFCURVE",
"458 77 OFFCURVE",
"467 103 QCURVE",
"467 107 OFFCURVE",
"462 118 OFFCURVE",
"458 125 OFFCURVE",
"456 125 OFFCURVE",
"432 88 OFFCURVE",
"401 52 OFFCURVE",
"392 52 QCURVE SMOOTH",
"369 52 OFFCURVE",
"369 89 QCURVE SMOOTH",
"369 96 OFFCURVE",
"371 106 QCURVE SMOOTH",
"401 251 LINE SMOOTH",
"417 328 OFFCURVE",
"417 369 QCURVE SMOOTH",
"417 435 OFFCURVE",
"367 435 QCURVE SMOOTH",
"325 435 OFFCURVE",
"197 282 OFFCURVE",
"175 241 QCURVE",
"174 240 LINE",
"173 241 LINE",
"173 244 OFFCURVE",
"243 591 QCURVE SMOOTH",
"254 646 OFFCURVE",
"269 678 QCURVE",
"269 694 OFFCURVE",
"261 694 QCURVE SMOOTH",
"260 694 LINE",
"255 691 LINE SMOOTH",
"250 688 OFFCURVE",
"231 679 OFFCURVE",
"204 669 OFFCURVE",
"158 659 OFFCURVE",
"131 656 QCURVE",
"128 656 OFFCURVE",
"123 642 OFFCURVE",
"123 640 QCURVE",
"121 629 OFFCURVE",
"126 629 QCURVE SMOOTH",
"133 629 LINE SMOOTH",
"173 629 OFFCURVE",
"174 613 QCURVE",
"174 585 OFFCURVE",
"167 549 QCURVE SMOOTH"
);
},
{
closed = 1;
nodes = (
"119 558 OFFCURVE",
"116 542 QCURVE",
"115 538 OFFCURVE",
"116 529 OFFCURVE",
"118 529 QCURVE SMOOTH",
"348 529 LINE",
"357 544 OFFCURVE",
"359 559 QCURVE",
"361 569 OFFCURVE",
"356 569 QCURVE SMOOTH",
"127 569 LINE"
);
}
);
width = 424;
}
);
note = hbar;
unicode = 0127;
},
{
glyphname = Iogonek;
layers = (
{
layerId = "02396921-8257-42A3-8ED5-3052446F9CE3";
paths = (
{
closed = 1;
nodes = (
"258 580 OFFCURVE",
"271 608 QCURVE SMOOTH",
"274 615 OFFCURVE",
"325 631 OFFCURVE",
"333 631 QCURVE SMOOTH",
"340 631 OFFCURVE",
"340 655 QCURVE SMOOTH",
"340 658 LINE",
"333 658 OFFCURVE",
"258 652 OFFCURVE",
"234 652 QCURVE SMOOTH",
"209 652 OFFCURVE",
"138 657 OFFCURVE",
"126 658 QCURVE",
"118 650 OFFCURVE",
"118 636 QCURVE SMOOTH",
"118 631 OFFCURVE",
"120 631 QCURVE SMOOTH",
"133 631 OFFCURVE",
"176 615 OFFCURVE",
"176 604 QCURVE SMOOTH",
"176 567 OFFCURVE",
"165 512 QCURVE SMOOTH",
"94 142 LINE SMOOTH",
"83 80 OFFCURVE",
"68 46 QCURVE SMOOTH",
"64 37 OFFCURVE",
"16 24 OFFCURVE",
"4 24 QCURVE SMOOTH",
"-3 24 OFFCURVE",
"-3 5 QCURVE SMOOTH",
"-3 -1 OFFCURVE",
"-1 -3 QCURVE",
"106 2 OFFCURVE",
"109 2 QCURVE",
"66 -19 OFFCURVE",
"-13 -134 OFFCURVE",
"-13 -180 QCURVE SMOOTH",
"-13 -201 OFFCURVE",
"15 -230 OFFCURVE",
"37 -230 QCURVE SMOOTH",
"88 -230 OFFCURVE",
"148 -163 QCURVE",
"151 -160 OFFCURVE",
"159 -134 OFFCURVE",
"154 -133 QCURVE",
"153 -133 OFFCURVE",
"130 -152 OFFCURVE",
"92 -171 OFFCURVE",
"71 -171 QCURVE SMOOTH",
"40 -171 OFFCURVE",
"40 -139 QCURVE SMOOTH",
"40 -106 OFFCURVE",
"114 -25 OFFCURVE",
"166 -10 QCURVE SMOOTH",
"192 -3 OFFCURVE",
"213 -3 QCURVE",
"219 9 OFFCURVE",
"219 20 QCURVE SMOOTH",
"219 24 OFFCURVE",
"217 24 QCURVE",
"204 26 LINE SMOOTH",
"190 28 OFFCURVE",
"163 41 OFFCURVE",
"163 49 QCURVE SMOOTH",
"163 84 OFFCURVE",
"174 139 QCURVE SMOOTH",
"245 515 LINE SMOOTH"
);
}
);
width = 341;
}
);
note = Iogonek;
unicode = 012E;
},
{
glyphname = iogonek;
layers = (
{
layerId = "02396921-8257-42A3-8ED5-3052446F9CE3";
paths = (
{
closed = 1;
nodes = (
"84 -83 OFFCURVE",
"183 20 QCURVE SMOOTH",
"226 65 OFFCURVE",
"241 103 QCURVE",
"241 107 OFFCURVE",
"236 118 OFFCURVE",
"232 125 OFFCURVE",
"230 125 OFFCURVE",
"206 88 OFFCURVE",
"175 52 OFFCURVE",
"166 52 QCURVE SMOOTH",
"144 52 OFFCURVE",
"144 89 QCURVE SMOOTH",
"144 90 OFFCURVE",
"146 108 QCURVE SMOOTH",
"149 129 OFFCURVE",
"172 247 OFFCURVE",
"190 346 OFFCURVE",
"190 363 QCURVE SMOOTH",
"190 435 OFFCURVE",
"133 435 QCURVE SMOOTH",
"100 435 OFFCURVE",
"32 352 OFFCURVE",
"23 326 QCURVE",
"23 322 OFFCURVE",
"29 311 OFFCURVE",
"33 304 OFFCURVE",
"34 304 QCURVE",
"58 340 LINE SMOOTH",
"83 377 OFFCURVE",
"93 377 QCURVE SMOOTH",
"121 377 OFFCURVE",
"121 336 QCURVE SMOOTH",
"121 329 OFFCURVE",
"118 308 QCURVE",
"82 128 LINE SMOOTH",
"75 96 OFFCURVE",
"75 67 QCURVE SMOOTH",
"75 3 OFFCURVE",
"121 -3 QCURVE",
"92 -35 OFFCURVE",
"30 -145 OFFCURVE",
"30 -180 QCURVE SMOOTH",
"30 -201 OFFCURVE",
"59 -230 OFFCURVE",
"81 -230 QCURVE SMOOTH",
"132 -230 OFFCURVE",
"192 -163 QCURVE",
"195 -160 OFFCURVE",
"203 -134 OFFCURVE",
"198 -133 QCURVE",
"197 -133 OFFCURVE",
"174 -152 OFFCURVE",
"136 -171 OFFCURVE",
"115 -171 QCURVE SMOOTH",
"84 -171 OFFCURVE",
"84 -139 QCURVE SMOOTH"
);
},
{
closed = 1;
nodes = (
"169 646 OFFCURVE",
"139 612 OFFCURVE",
"139 589 QCURVE SMOOTH",
"139 571 OFFCURVE",
"157 546 OFFCURVE",
"173 546 QCURVE SMOOTH",
"196 546 OFFCURVE",
"227 582 OFFCURVE",
"227 606 QCURVE SMOOTH",
"227 622 OFFCURVE",
"206 646 OFFCURVE",
"191 646 QCURVE SMOOTH"
);
}
);
width = 273;
}
);
note = iogonek;
unicode = 012F;
},
{
glyphname = dotlessi;
layers = (
{
layerId = "02396921-8257-42A3-8ED5-3052446F9CE3";
paths = (
{
closed = 1;
nodes = (
"165 435 OFFCURVE",
"108 435 QCURVE SMOOTH",
"75 435 OFFCURVE",
"7 352 OFFCURVE",
"-2 326 QCURVE",
"-2 322 OFFCURVE",
"4 311 OFFCURVE",
"8 304 OFFCURVE",
"9 304 QCURVE",
"34 340 LINE SMOOTH",
"58 377 OFFCURVE",
"68 377 QCURVE SMOOTH",
"96 377 OFFCURVE",
"96 336 QCURVE SMOOTH",
"96 329 OFFCURVE",
"93 308 QCURVE",
"57 128 LINE SMOOTH",
"50 96 OFFCURVE",
"50 67 QCURVE SMOOTH",
"50 -6 OFFCURVE",
"106 -6 QCURVE SMOOTH",
"139 -6 OFFCURVE",
"207 77 OFFCURVE",
"216 103 QCURVE",
"216 107 OFFCURVE",
"211 118 OFFCURVE",
"207 125 OFFCURVE",
"205 125 OFFCURVE",
"181 88 OFFCURVE",
"150 52 OFFCURVE",
"141 52 QCURVE SMOOTH",
"119 52 OFFCURVE",
"119 89 QCURVE SMOOTH",
"119 101 OFFCURVE",
"165 338 OFFCURVE",
"165 363 QCURVE SMOOTH"
);
}
);
width = 216;
}
);
note = dotlessi;
unicode = 0131;
},
{
glyphname = kgreenlandic;
layers = (
{
layerId = "02396921-8257-42A3-8ED5-3052446F9CE3";
paths = (
{
closed = 1;
nodes = (
"145 321 OFFCURVE",
"148 327 QCURVE",
"152 336 LINE",
"163 391 OFFCURVE",
"182 423 QCURVE",
"182 439 OFFCURVE",
"177 439 QCURVE",
"168 435 LINE",
"160 431 OFFCURVE",
"131 420 OFFCURVE",
"98 409 OFFCURVE",
"60 401 OFFCURVE",
"45 401 QCURVE SMOOTH",
"43 401 OFFCURVE",
"35 386 OFFCURVE",
"35 380 QCURVE SMOOTH",
"35 377 OFFCURVE",
"41 377 QCURVE SMOOTH",
"89 377 OFFCURVE",
"89 353 QCURVE SMOOTH",
"89 350 OFFCURVE",
"80 310 QCURVE SMOOTH",
"19 0 LINE",
"39 -5 OFFCURVE",
"52 -5 QCURVE SMOOTH",
"67 -5 OFFCURVE",
"85 0 QCURVE",
"122 191 LINE",
"122 193 OFFCURVE",
"123 193 QCURVE",
"124 191 LINE",
"131 181 OFFCURVE",
"180 110 OFFCURVE",
"209 74 OFFCURVE",
"255 23 OFFCURVE",
"300 0 OFFCURVE",
"322 0 QCURVE SMOOTH",
"353 0 OFFCURVE",
"409 67 OFFCURVE",
"416 91 QCURVE",
"414 103 OFFCURVE",
"402 103 QCURVE SMOOTH",
"399 103 OFFCURVE",
"398 102 QCURVE",
"398 101 OFFCURVE",
"384 80 OFFCURVE",
"374 68 OFFCURVE",
"355 55 OFFCURVE",
"346 55 QCURVE SMOOTH",
"318 55 OFFCURVE",
"255 110 OFFCURVE",
"191 205 QCURVE",
"237 213 OFFCURVE",
"303 233 OFFCURVE",
"362 266 OFFCURVE",
"392 319 OFFCURVE",
"392 354 QCURVE SMOOTH",
"392 388 OFFCURVE",
"343 435 OFFCURVE",
"309 435 QCURVE SMOOTH",
"287 435 OFFCURVE",
"240 412 OFFCURVE",
"202 378 OFFCURVE",
"171 344 OFFCURVE",
"151 321 OFFCURVE",
"150 321 QCURVE SMOOTH"
);
},
{
closed = 1;
nodes = (
"138 230 OFFCURVE",
"138 232 QCURVE SMOOTH",
"138 254 OFFCURVE",
"249 388 OFFCURVE",
"281 388 QCURVE SMOOTH",
"301 388 OFFCURVE",
"321 357 OFFCURVE",
"321 309 OFFCURVE",
"282 270 OFFCURVE",
"234 250 OFFCURVE",
"172 234 OFFCURVE",
"147 231 OFFCURVE",
"140 230 QCURVE"
);
}
);
width = 447;
}
);
note = kgreenlandic;
unicode = 0138;
},
{
glyphname = Lslash;
layers = (
{
layerId = "02396921-8257-42A3-8ED5-3052446F9CE3";
paths = (
{
closed = 1;
nodes = (
"171 260 LINE",
"90 207 LINE",
"84 202 OFFCURVE",
"100 178 QCURVE",
"164 220 LINE",
"149 143 LINE SMOOTH",
"134 62 OFFCURVE",
"124 49 QCURVE SMOOTH",
"117 40 OFFCURVE",
"69 28 OFFCURVE",
"56 28 QCURVE SMOOTH",
"52 28 OFFCURVE",
"50 15 QCURVE",
"47 2 OFFCURVE",
"50 -1 QCURVE",
"163 2 LINE SMOOTH",
"226 2 OFFCURVE",
"431 -4 OFFCURVE",
"479 -4 QCURVE",
"484 11 OFFCURVE",
"505 57 OFFCURVE",
"524 92 OFFCURVE",
"554 149 OFFCURVE",
"561 162 QCURVE",
"557 168 OFFCURVE",
"539 168 QCURVE SMOOTH",
"528 168 OFFCURVE",
"525 162 QCURVE SMOOTH",
"507 124 OFFCURVE",
"463 69 OFFCURVE",
"447 61 QCURVE SMOOTH",
"413 44 OFFCURVE",
"327 44 QCURVE SMOOTH",
"282 44 LINE SMOOTH",
"222 44 OFFCURVE",
"221 54 QCURVE",
"220 93 OFFCURVE",
"229 142 QCURVE SMOOTH",
"256 280 LINE",
"473 416 LINE SMOOTH",
"476 418 OFFCURVE",
"467 442 OFFCURVE",
"463 447 QCURVE",
"264 320 LINE",
"303 519 LINE SMOOTH",
"315 580 OFFCURVE",
"329 612 QCURVE SMOOTH",
"332 619 OFFCURVE",
"384 633 OFFCURVE",
"393 633 QCURVE SMOOTH",
"397 633 OFFCURVE",
"399 647 QCURVE",
"400 652 OFFCURVE",
"400 662 QCURVE",
"387 661 OFFCURVE",
"345 658 OFFCURVE",
"309 656 OFFCURVE",
"291 656 QCURVE SMOOTH",
"266 656 OFFCURVE",
"192 661 OFFCURVE",
"181 662 QCURVE",
"176 657 OFFCURVE",
"174 646 QCURVE SMOOTH",
"172 633 OFFCURVE",
"175 633 QCURVE SMOOTH",
"187 633 OFFCURVE",
"232 620 OFFCURVE",
"233 612 QCURVE",
"234 592 OFFCURVE",
"222 521 QCURVE SMOOTH"
);
}
);
width = 570;
}
);
note = Lslash;
unicode = 0141;
},
{
glyphname = lslash;
layers = (
{
layerId = "02396921-8257-42A3-8ED5-3052446F9CE3";
paths = (
{
closed = 1;
nodes = (
"144 297 LINE",
"108 116 LINE SMOOTH",
"98 68 OFFCURVE",
"89 46 QCURVE SMOOTH",
"86 39 OFFCURVE",
"43 26 OFFCURVE",
"33 26 QCURVE",
"27 -3 LINE",
"117 2 OFFCURVE",
"129 2 OFFCURVE",
"214 -3 QCURVE",
"217 2 OFFCURVE",
"220 25 OFFCURVE",
"217 26 QCURVE",
"208 26 OFFCURVE",
"170 39 OFFCURVE",
"170 46 QCURVE",
"169 70 OFFCURVE",
"181 135 QCURVE SMOOTH",
"222 350 LINE",
"289 396 LINE",
"294 401 OFFCURVE",
"281 423 QCURVE",
"230 388 LINE",
"269 591 LINE SMOOTH",
"280 646 OFFCURVE",
"295 678 QCURVE",
"295 694 OFFCURVE",
"287 694 QCURVE SMOOTH",
"286 694 LINE",
"281 691 LINE SMOOTH",
"276 688 OFFCURVE",
"257 679 OFFCURVE",
"230 669 OFFCURVE",
"184 659 OFFCURVE",
"157 656 QCURVE",
"154 656 OFFCURVE",
"149 642 OFFCURVE",
"149 640 QCURVE",
"147 629 OFFCURVE",
"152 629 QCURVE SMOOTH",
"159 629 LINE SMOOTH",
"199 629 OFFCURVE",
"200 613 QCURVE",
"200 589 OFFCURVE",
"193 549 QCURVE SMOOTH",
"151 335 LINE",
"83 288 LINE",
"76 281 OFFCURVE",
"90 260 QCURVE"
);
}
);
width = 249;
}
);
note = lslash;
unicode = 0142;
},
